<?xml version="1.0" encoding="utf-8"?>
<!-- Generator: Adobe Illustrator 16.0.4, SVG Export Plug-In . SVG Version: 6.00 Build 0)  -->
<!DOCTYPE svg PUBLIC "-//W3C//DTD SVG 1.1//EN" "http://www.w3.org/Graphics/SVG/1.1/DTD/svg11.dtd">
<svg version="1.1" id="Layer_1" xmlns="http://www.w3.org/2000/svg" xmlns:xlink="http://www.w3.org/1999/xlink" x="0px" y="0px"
	 width="51px" height="52px" viewBox="0 0 51 52" enable-background="new 0 0 51 52" xml:space="preserve">
<path fill-rule="evenodd" clip-rule="evenodd" fill="#F6D189" d="M45.335,8.706l-2.028-2.037c-0.271-0.271-0.582-0.407-0.933-0.407
	c-0.352,0-0.663,0.136-0.933,0.407L25.5,22.677L9.559,6.669C9.289,6.398,8.978,6.262,8.626,6.262S7.963,6.398,7.693,6.669
	L5.665,8.706C5.395,8.978,5.259,9.291,5.259,9.643c0,0.354,0.135,0.666,0.406,0.937l18.902,18.98
	c0.27,0.272,0.582,0.408,0.933,0.408c0.351,0,0.662-0.136,0.933-0.408l18.902-18.98c0.27-0.271,0.406-0.583,0.406-0.937
	C45.741,9.291,45.605,8.978,45.335,8.706L45.335,8.706z"/>
<path fill-rule="evenodd" clip-rule="evenodd" fill="#F6D189" d="M45.335,23.569l-2.028-2.037c-0.271-0.271-0.582-0.407-0.933-0.407
	c-0.352,0-0.663,0.136-0.933,0.407L25.5,37.54L9.559,21.533c-0.271-0.271-0.582-0.407-0.933-0.407s-0.663,0.136-0.933,0.407
	l-2.028,2.037c-0.271,0.272-0.406,0.584-0.406,0.937c0,0.354,0.135,0.666,0.406,0.937l18.902,18.98
	c0.27,0.272,0.582,0.408,0.933,0.408c0.351,0,0.662-0.136,0.933-0.408l18.902-18.98c0.27-0.271,0.406-0.583,0.406-0.937
	C45.741,24.154,45.605,23.841,45.335,23.569L45.335,23.569z"/>
</svg>
