<?xml version="1.0" encoding="utf-8"?>
<!-- Generator: Adobe Illustrator 16.0.4, SVG Export Plug-In . SVG Version: 6.00 Build 0)  -->
<!DOCTYPE svg PUBLIC "-//W3C//DTD SVG 1.1//EN" "http://www.w3.org/Graphics/SVG/1.1/DTD/svg11.dtd">
<svg version="1.1" id="Layer_1" xmlns="http://www.w3.org/2000/svg" xmlns:xlink="http://www.w3.org/1999/xlink" x="0px" y="0px"
	 width="615.753px" height="99.36px" viewBox="0 0 615.753 99.36" enable-background="new 0 0 615.753 99.36" xml:space="preserve">
<g>
	<path fill="#FDFEFF" d="M154.509,36.008l8.623,0.842c-0.555,4.602-2.553,8.389-5.995,11.363c-3.441,2.975-7.96,4.461-13.558,4.461
		c-4.715,0-8.541-1.055-11.478-3.165c-2.938-2.109-5.2-4.972-6.788-8.586c-1.588-3.613-2.383-7.598-2.383-11.952
		c0-7.003,1.866-12.698,5.597-17.087c3.731-4.388,8.862-6.582,15.392-6.582c5.118,0,9.379,1.402,12.783,4.208
		c3.403,2.807,5.546,6.824,6.429,12.054l-8.623,0.809c-1.588-6.937-5.093-10.404-10.514-10.404c-3.479,0-6.183,1.442-8.112,4.326
		c-1.929,2.885-2.894,7.065-2.894,12.542c0,5.567,1.034,9.77,3.102,12.609c2.067,2.84,4.803,4.259,8.207,4.259
		c2.723,0,5.042-0.953,6.958-2.861C153.172,40.935,154.257,38.656,154.509,36.008z"/>
	<path fill="#FDFEFF" d="M202.502,51.967h-33.545V6.009h33.205v6.834h-23.901v12.458h19.212v6.667h-19.212v12.861h24.242V51.967z"/>
	<path fill="#FDFEFF" d="M240.738,51.967h-31.767V6.009h9.795v38.45h21.972V51.967z"/>
	<path fill="#FDFEFF" d="M279.579,51.967h-33.545V6.009h33.205v6.834h-23.901v12.458h19.212v6.667h-19.212v12.861h24.242V51.967z"/>
	<path fill="#FDFEFF" d="M286.047,51.967V6.009h20.119c3.404,0,6.227,0.314,8.471,0.942c2.243,0.629,4.185,1.941,5.824,3.939
		c1.639,1.998,2.459,4.343,2.459,7.037c0,2.536-0.833,4.741-2.497,6.615c-1.664,1.875-3.958,3.07-6.883,3.586
		c3.631,0.562,6.379,1.875,8.245,3.939c1.865,2.065,2.799,4.512,2.799,7.34c0,3.547-1.305,6.526-3.915,8.939
		c-2.609,2.413-6.625,3.619-12.045,3.619H286.047z M294.859,25.301h11.346c2.32,0,4.153-0.617,5.502-1.852
		c1.349-1.234,2.023-2.806,2.023-4.714c0-2.109-0.77-3.664-2.307-4.663c-1.539-0.999-3.341-1.498-5.409-1.498h-11.156V25.301z
		 M294.859,45.064h12.026c2.546,0,4.557-0.595,6.032-1.784c1.476-1.189,2.212-2.795,2.212-4.814c0-1.931-0.75-3.513-2.25-4.748
		c-1.5-1.233-3.485-1.852-5.956-1.852h-12.064V45.064z"/>
	<path fill="#FDFEFF" d="M370.233,51.967h-9.832l-8.018-18.889h-13.086v18.889h-9.303V6.009h22.389
		c6.227,0,10.803,1.251,13.728,3.754s4.387,5.74,4.387,9.713c0,5.904-3.101,9.967-9.303,12.188L370.233,51.967z M339.298,26.445
		h11.573c3.353,0,5.849-0.628,7.487-1.885s2.459-2.985,2.459-5.186c0-2.021-0.808-3.653-2.421-4.898
		c-1.613-1.246-3.87-1.869-6.77-1.869h-12.329V26.445z"/>
	<path fill="#FDFEFF" d="M418.718,51.967h-9.946l-4.122-10.942h-19.854l-4.046,10.942h-7.942l17.132-45.958h11.459L418.718,51.967z
		 M402.153,34.392l-7.525-20.505l-7.526,20.505H402.153z"/>
	<path fill="#FDFEFF" d="M438.762,51.967h-9.983V13.112H415.05V6.009h37.44v7.104h-13.729V51.967z"/>
	<path fill="#FDFEFF" d="M491.708,51.967h-33.545V6.009h33.204v6.834h-23.901v12.458h19.212v6.667h-19.212v12.861h24.242V51.967z"/>
	<path fill="#FDFEFF" d="M253.027,64.134l-8.314,30.75h-4.333l-7.539-23.856l-6.993,23.856h-4.45l-8.769-30.75h4.49l6.916,24.915
		l7.329-24.915h3.521l7.899,24.915l6.442-24.915H253.027z"/>
	<path fill="#FDFEFF" d="M261.625,94.884h-4.327v-30.75h4.327V94.884z"/>
	<path fill="#FDFEFF" d="M280.678,94.884h-4.327V67.513h-9.894v-3.379h24.14v3.379h-9.919V94.884z"/>
	<path fill="#FDFEFF" d="M320.076,94.884h-4.327V80.241h-16.017v14.643h-4.327v-30.75h4.327v12.729h16.017V64.134h4.327V94.884z"/>
	<path fill="#FDFEFF" d="M365.491,64.134h3.594v20.087c0,4.027-1.109,6.917-3.328,8.668c-2.218,1.75-5.124,2.626-8.717,2.626
		c-3.998,0-6.958-0.901-8.882-2.705c-1.923-1.804-2.884-4.667-2.884-8.589V64.134h4.326v20.088c0,2.391,0.312,4.073,0.937,5.051
		c0.624,0.977,1.569,1.698,2.834,2.164c1.266,0.466,2.589,0.699,3.973,0.699c2.665,0,4.689-0.624,6.073-1.871
		c1.383-1.248,2.074-3.262,2.074-6.043V64.134z"/>
	<path fill="#FDFEFF" d="M373.411,86.751l3.896-0.788c1.569,4.19,4.968,6.285,10.197,6.285c2.733,0,4.791-0.516,6.175-1.549
		c1.383-1.031,2.074-2.414,2.074-4.147c0-1.312-0.526-2.366-1.58-3.165c-1.055-0.799-2.272-1.349-3.654-1.65l-6.911-1.517
		c-1.788-0.405-3.251-0.898-4.39-1.478s-2.104-1.47-2.897-2.673s-1.189-2.579-1.189-4.129c0-2.571,1.088-4.62,3.265-6.147
		c2.176-1.526,4.968-2.29,8.375-2.29c6.275,0,10.399,2.531,12.373,7.592l-3.922,1.036c-0.455-1.802-1.526-3.165-3.213-4.089
		c-1.688-0.923-3.484-1.385-5.39-1.385c-1.89,0-3.572,0.445-5.049,1.335c-1.476,0.891-2.214,2.15-2.214,3.78
		c0,2.278,1.871,3.817,5.611,4.617l6.459,1.348c5.903,1.262,8.855,4.094,8.855,8.494c0,2.659-1.109,4.871-3.327,6.636
		c-2.219,1.765-5.344,2.647-9.375,2.647C380.429,95.515,375.705,92.594,373.411,86.751z"/>
</g>
</svg>
