<?xml version="1.0" encoding="utf-8"?>
<!-- Generator: Adobe Illustrator 16.0.4, SVG Export Plug-In . SVG Version: 6.00 Build 0)  -->
<!DOCTYPE svg PUBLIC "-//W3C//DTD SVG 1.1//EN" "http://www.w3.org/Graphics/SVG/1.1/DTD/svg11.dtd">
<svg version="1.1" id="Layer_1" xmlns="http://www.w3.org/2000/svg" xmlns:xlink="http://www.w3.org/1999/xlink" x="0px" y="0px"
	 width="514.383px" height="68.493px" viewBox="0 0 514.383 68.493" enable-background="new 0 0 514.383 68.493"
	 xml:space="preserve">
<g>
	<path d="M182.42,55.834h-28.793v-44.31h28.501v6.59h-20.516v12.011h16.49v6.427h-16.49v12.4h20.808V55.834z"/>
	<path d="M207.673,55.834h-8.115l-13.666-44.31h8.439l10.16,33.954l10.388-33.954h6.654L207.673,55.834z"/>
	<path d="M254.029,55.834h-28.793v-44.31h28.501v6.59h-20.516v12.011h16.49v6.427h-16.49v12.4h20.808V55.834z"/>
	<path d="M293.049,55.834h-7.758l-16.815-28.306c-0.26-0.433-0.682-1.137-1.267-2.11c-0.26-0.433-0.66-1.114-1.2-2.045v32.461
		h-6.428v-44.31h8.829l15.518,26.099c0.129,0.217,1.07,1.808,2.824,4.772V11.524h6.297V55.834z"/>
	<path d="M316.942,55.834h-8.57v-37.46h-11.783v-6.85h32.137v6.85h-11.783V55.834z"/>
	<path d="M328.952,45.154l7.758-1.655c0.932,4.394,4.502,6.59,10.713,6.59c2.834,0,5.016-0.562,6.541-1.688
		c1.525-1.125,2.289-2.521,2.289-4.188c0-1.212-0.348-2.331-1.039-3.359c-0.693-1.028-2.176-1.834-4.447-2.419l-8.473-2.207
		c-2.9-0.757-5.043-1.617-6.428-2.581c-1.385-0.962-2.494-2.32-3.326-4.073c-0.834-1.753-1.25-3.625-1.25-5.616
		c0-3.96,1.471-7.136,4.414-9.527c2.943-2.391,6.709-3.587,11.297-3.587c3.809,0,7.211,0.834,10.209,2.5
		c2.996,1.667,4.906,4.025,5.729,7.076l-7.596,1.883c-1.168-3.354-3.895-5.031-8.18-5.031c-2.488,0-4.389,0.52-5.697,1.558
		c-1.309,1.039-1.963,2.359-1.963,3.961c0,2.531,2.055,4.307,6.166,5.323l7.531,1.883c4.566,1.147,7.629,2.84,9.188,5.08
		c1.557,2.24,2.336,4.713,2.336,7.417c0,4.351-1.639,7.774-4.918,10.274c-3.277,2.499-7.525,3.749-12.74,3.749
		c-4.393,0-8.24-0.92-11.539-2.759C332.225,51.917,330.034,49.05,328.952,45.154z"/>
</g>
</svg>
