<?xml version="1.0" encoding="utf-8"?>
<!-- Generator: Adobe Illustrator 21.0.0, SVG Export Plug-In . SVG Version: 6.00 Build 0)  -->
<svg version="1.1" id="Layer_1" xmlns="http://www.w3.org/2000/svg" xmlns:xlink="http://www.w3.org/1999/xlink" x="0px" y="0px"
	 viewBox="0 0 1132 111" style="enable-background:new 0 0 1132 111;" xml:space="preserve">
<style type="text/css">
	.st0{enable-background:new    ;}
	.st1{fill:#043054;}
</style>
<g class="st0">
	<path class="st1" d="M6.4,17.6H59v14.9H25v14.6h29.4v14.4H25V89H6.4V17.6z"/>
	<path class="st1" d="M66.1,53.1c0.3-6.8,3.5-11.2,8.1-13.9c4.6-2.6,10.6-3.6,16.5-3.6c12.3,0,24.2,2.7,24.2,17.4v22.7
		c0,4.4,0,9.2,2,13.3H99.8c-0.6-1.6-0.8-3.2-1-4.9c-4.4,4.6-10.9,6.4-17.1,6.4c-9.9,0-17.7-5-17.7-15.7c0-16.9,18.4-15.6,30.2-18
		c2.9-0.6,4.5-1.6,4.5-4.8c0-3.9-4.7-5.4-8.2-5.4c-4.7,0-7.7,2.1-8.5,6.5H66.1z M88.1,80c8.1,0,10.8-4.6,10.4-15.3
		c-2.4,1.5-6.8,1.8-10.5,2.8c-3.8,0.9-7,2.5-7,6.6C81,78.3,84.3,80,88.1,80z"/>
	<path class="st1" d="M159.9,56.1c-0.1-4.4-4-7.5-8.3-7.5c-9.5,0-11,8.1-11,15.3c0,6.7,2.9,13.6,10.1,13.6c5.9,0,8.9-3.4,9.7-8.9
		h16.5c-1.5,13.9-12.3,21.9-26.1,21.9c-15.6,0-27.2-10.7-27.2-26.6c0-16.5,10.5-28.3,27.2-28.3c12.9,0,24.4,6.8,25.6,20.5H159.9z"/>
	<path class="st1" d="M237,89h-16.5v-7.1h-0.2c-3.2,5.3-9.8,8.6-15.8,8.6c-14.9,0-19.2-8.6-19.2-22.2V37.1h17v30.1
		c0,6.9,3,9.3,8.4,9.3c3.7,0,9.3-2.4,9.3-11.6V37.1h17V89z"/>
	<path class="st1" d="M249,17.6h17V89h-17V17.6z"/>
	<path class="st1" d="M309.3,48.1h-10.5v23.6c0,4.1,2.4,5,6.1,5c1.4,0,2.9-0.2,4.4-0.2V89c-3.1,0.1-6.2,0.5-9.3,0.5
		c-14.5,0-18.2-4.2-18.2-18.3V48.1h-8.6v-11h8.6V21.4h17v15.7h10.5V48.1z"/>
	<path class="st1" d="M345.2,93.6c-4.1,11.4-10.2,12.8-21.7,12.8h-8V92.6h5.9c3.9,0,6.8-2.2,6.8-5.8c0-2.8-3.3-10.8-4.3-13.6
		l-13.4-36.1h18l9.8,33.8h0.2l9.8-33.8h17.4L345.2,93.6z"/>
	<path class="st1" d="M402.8,17.6h18.6V73h33.3v16h-51.9V17.6z"/>
	<path class="st1" d="M477.7,67.2c0.3,7.1,4.4,11.8,11.6,11.8c4.1,0,8.1-1.9,9.7-5.7h15.9c-3.1,12-14.2,17.2-25.8,17.2
		c-16.9,0-28.4-10.2-28.4-27.6c0-15.9,12.7-27.3,28-27.3c18.6,0,27.9,14,27.1,31.6H477.7z M498.8,57.7c-0.3-5.8-4.4-10.6-10.1-10.6
		c-6,0-10,4.3-11,10.6H498.8z"/>
	<path class="st1" d="M558.1,56.1c-0.1-4.4-4-7.5-8.3-7.5c-9.5,0-11,8.1-11,15.3c0,6.7,2.9,13.6,10.1,13.6c5.9,0,8.9-3.4,9.7-8.9
		h16.5c-1.5,13.9-12.3,21.9-26.1,21.9c-15.6,0-27.2-10.7-27.2-26.6c0-16.5,10.5-28.3,27.2-28.3c12.9,0,24.4,6.8,25.6,20.5H558.1z"/>
	<path class="st1" d="M614.9,48.1h-10.5v23.6c0,4.1,2.4,5,6.1,5c1.4,0,2.9-0.2,4.4-0.2V89c-3.1,0.1-6.2,0.5-9.3,0.5
		c-14.5,0-18.2-4.2-18.2-18.3V48.1h-8.6v-11h8.6V21.4h17v15.7h10.5V48.1z"/>
	<path class="st1" d="M674.1,89h-16.5v-7.1h-0.2c-3.2,5.3-9.8,8.6-15.8,8.6c-14.9,0-19.2-8.6-19.2-22.2V37.1h17v30.1
		c0,6.9,3,9.3,8.4,9.3c3.7,0,9.3-2.4,9.3-11.6V37.1h17V89z"/>
	<path class="st1" d="M686.1,37.1h16.5v9.1h0.2c2.5-6.6,8.3-10.1,15.6-10.1c1.3,0,2.7,0.1,4,0.4V52c-2.2-0.6-4.2-1-6.5-1
		c-8.4,0-12.8,5.8-12.8,12.3V89h-17V37.1z"/>
	<path class="st1" d="M740.8,67.2c0.3,7.1,4.4,11.8,11.6,11.8c4.1,0,8.1-1.9,9.7-5.7H778c-3.1,12-14.2,17.2-25.8,17.2
		c-16.9,0-28.4-10.2-28.4-27.6c0-15.9,12.7-27.3,28-27.3c18.6,0,27.9,14,27.1,31.6H740.8z M761.9,57.7c-0.3-5.8-4.4-10.6-10.1-10.6
		c-6,0-10,4.3-11,10.6H761.9z"/>
	<path class="st1" d="M834.1,65c0.4,8.4,5.6,11.1,13.5,11.1c5.6,0,11.4-2,11.4-7.3c0-6.3-10.2-7.5-20.5-10.4
		c-10.2-2.9-20.9-7.5-20.9-20.6c0-15.6,15.7-21.7,29.1-21.7c14.2,0,28.5,6.9,28.6,23h-18.6c0.3-6.5-5.8-8.6-11.5-8.6
		c-4,0-9,1.4-9,6.1c0,5.5,10.3,6.5,20.7,9.4c10.3,2.9,20.7,7.7,20.7,20.6c0,18.1-15.4,23.9-31.1,23.9c-16.4,0-30.9-7.2-31-25.5
		H834.1z"/>
	<path class="st1" d="M900.1,67.2c0.3,7.1,4.4,11.8,11.6,11.8c4.1,0,8.1-1.9,9.7-5.7h15.9c-3.1,12-14.2,17.2-25.8,17.2
		c-16.9,0-28.4-10.2-28.4-27.6c0-15.9,12.7-27.3,28-27.3c18.6,0,27.9,14,27.1,31.6H900.1z M921.2,57.7c-0.3-5.8-4.4-10.6-10.1-10.6
		c-6,0-10,4.3-11,10.6H921.2z"/>
	<path class="st1" d="M947.3,37.1h16.5v9.1h0.2c2.5-6.6,8.3-10.1,15.6-10.1c1.3,0,2.7,0.1,4,0.4V52c-2.2-0.6-4.2-1-6.5-1
		c-8.4,0-12.8,5.8-12.8,12.3V89h-17V37.1z"/>
	<path class="st1" d="M1006.9,30.6h-17v-13h17V30.6z M989.9,37.1h17V89h-17V37.1z"/>
	<path class="st1" d="M1033.4,67.2c0.3,7.1,4.4,11.8,11.6,11.8c4.1,0,8.1-1.9,9.7-5.7h15.9c-3.1,12-14.2,17.2-25.8,17.2
		c-16.9,0-28.4-10.2-28.4-27.6c0-15.9,12.7-27.3,28-27.3c18.6,0,27.9,14,27.1,31.6H1033.4z M1054.5,57.7
		c-0.3-5.8-4.4-10.6-10.1-10.6c-6,0-10,4.3-11,10.6H1054.5z"/>
	<path class="st1" d="M1093.2,71.9c0,2.6,1.1,4.5,2.8,5.8c1.6,1.2,3.9,1.8,6.3,1.8c3.3,0,8-1.4,8-5.5c0-4-5.3-4.8-8.3-5.5
		c-10.7-2.7-24.1-3-24.1-17c0-12.5,13.5-15.9,23.7-15.9c11.4,0,23.3,3.3,23.9,16.8h-15.7c0-2.2-0.8-3.6-2.2-4.5
		c-1.4-0.9-3.3-1.3-5.4-1.3c-2.8,0-7.3,0.3-7.3,3.9c0,4.9,11.4,5.8,19.2,7.5c10.5,2.1,13.2,9.7,13.2,14c0,13.9-13.2,18.5-24.9,18.5
		c-12.3,0-24.9-4.1-25.4-18.6H1093.2z"/>
</g>
</svg>
