<?xml version="1.0" encoding="utf-8"?>
<!-- Generator: Adobe Illustrator 21.1.0, SVG Export Plug-In . SVG Version: 6.00 Build 0)  -->
<svg version="1.1" id="Layer_1" xmlns="http://www.w3.org/2000/svg" xmlns:xlink="http://www.w3.org/1999/xlink" x="0px" y="0px"
	 viewBox="0 0 399.6 198.3" style="enable-background:new 0 0 399.6 198.3;" xml:space="preserve">
<style type="text/css">
	.st0{clip-path:url(#SVGID_2_);fill:none;stroke:#003767;stroke-width:0.3;stroke-miterlimit:4.04;}
	.st1{fill:#003767;}
	.st2{font-family:'GreatVibes-Regular';}
	.st3{font-size:75px;}
	.st4{letter-spacing:-2;}
	.st5{font-family:'MyriadPro-Semibold';}
	.st6{font-size:53.615px;}
	.st7{font-family:'MyriadPro-Bold';}
	.st8{font-size:26.9858px;}
	.st9{letter-spacing:1;}
	.st10{font-family:'MyriadPro-Regular';}
	.st11{font-size:14.8681px;}
</style>
<g>
	<defs>
		<rect id="SVGID_1_" width="449.7" height="198.3"/>
	</defs>
	<clipPath id="SVGID_2_">
		<use xlink:href="#SVGID_1_"  style="overflow:visible;"/>
	</clipPath>
	<path class="st0" d="M102,32.8c-2.4,4.1-4.3,8.1-5.9,11.9c-3.4-0.4-6-0.7-8-0.7c-2,0-4,0.5-6,1.6c-2,1.1-3.6,2.8-4.7,5.2
		c-0.2,0.4-0.2,0.8,0.1,1.1c0.3,0.3,0.6,0.1,1.1-0.4c1.8-2.7,5.7-4.1,11.5-4.1l4.8,0.1c-3.8,8.7-8.5,15.7-14.2,21.2
		c-3,2.8-6.2,4.9-9.6,6.3c-3.4,1.4-6.9,2.1-10.4,2.1c-3.5,0-6.8-0.6-9.8-1.7c-6.5-2.5-10.7-6.4-12.8-11.7c-0.8-1.9-1.1-3.8-1.1-5.4
		s0.1-3.1,0.4-4.4c0.6-3.4,2.5-6.3,5.8-8.7c1.6-1.1,2.5-1.8,2.6-2c0.1-0.2-0.4-0.1-1.5,0.2c-1.1,0.3-2.5,1.2-4.1,2.7
		c-1.6,1.5-2.7,3.1-3.3,5c-0.9,2.9-1.3,5.6-1.3,8.2c0,7.5,3.2,13.3,9.7,17.3c4.2,2.7,9.4,4.1,15.5,4.1c6.1,0,11.6-1.4,16.6-4.1
		c2.2-1.2,4.3-2.7,6.2-4.5c2-1.9,3.6-3.7,4.9-5.4c3.1-4.1,6.2-10.4,9.3-18.9c1.5,0.2,3.4,0.3,5.8,0.3c7.5,0,11.2-0.6,11.2-1.7
		c-0.1-0.4-0.8-0.6-2.2-0.5c-1.4,0.1-3.4,0.1-5.8,0.1s-5.1-0.2-8-0.6c0.1-0.3,0.7-1.7,1.7-4.1c2.9-7.2,5.7-12.3,8.3-15.2l2.1,1.1
		c1.3,0.6,2.6,1.3,4,1.9s3.1,1.2,5.2,1.9c2.1,0.7,3.9,1.2,5.2,1.4c1.3,0.2,2.6,0.3,3.7,0.3c1.2,0,2.4-0.3,3.7-1
		c2.1-1.1,3.1-2.6,3.1-4.6v-0.6c0-0.3-0.2-0.4-0.5-0.3c-0.3,0.2-0.6,0.6-0.9,1.4c-0.7,1.4-2.1,2.2-4.3,2.5c-0.6,0.1-1.5,0.1-2.6,0.1
		c-1.2,0-2.7-0.2-4.7-0.7c-5-1.3-9.3-2.9-13.1-4.7c1.2-1.1,2.3-1.7,3.4-1.7c0.4,0,0.7,0.1,1.1,0.2c0.3,0.3,0.6,0.6,0.8,0.6
		c0.4,0.1,0.6-0.2,0.5-0.8c-0.1-1.2-1-1.9-2.9-1.9c-1.6,0-3.2,0.9-4.8,2.6c-6-3.8-12.7-6.7-20.1-8.7c-3-0.9-5.9-1.3-8.8-1.3
		c-5.9,0-10.9,1.8-15,5.5c-4.1,3.7-6.1,7.7-6.1,12.2c0,3.7,1.6,6.4,4.8,8.2c1.7,1,3.4,1.6,5.2,1.6c1.7,0,3.5-0.3,5.1-0.8
		c3.9-1.3,6.3-3.7,7.4-7.3c0.1-0.4,0.2-0.8,0.2-1.1c0-0.5-0.2-0.6-0.7-0.3c-0.5,0.3-0.7,0.9-0.7,1.6c0,0.8-0.8,1.9-2.4,3.1
		c-1.6,1.3-3.5,2.2-5.8,2.8c-0.7,0.1-1.3,0.2-2,0.2c-1.8,0-3.6-0.5-5.5-1.6c-1.5-0.9-2.2-2.4-2.2-4.4c0-3.8,2-7.4,5.9-10.8
		c4.1-3.5,9.3-5.2,15.5-5.2c6.1,0,14.3,2.5,24.4,7.5C106,26.1,104.4,28.7,102,32.8z"/>
	<path class="st0" d="M137.4,50.4c-0.4,0.1-1,0.1-1.8-0.1c-0.8-0.1-1.3-0.2-1.5-0.2c-1,0-1.8,0.3-2.5,1c-0.6,0.7-1.5,1.9-2.4,3.8
		c-4.9,9.2-8.8,13.8-11.8,13.8c-1.2,0-1.9-1-1.9-2.9c0-1.9,1-4.5,2.9-7.8c1.5-2.7,3.2-5.1,5-7.1c3.2-3.4,5.8-5.1,8-5.1
		c1.8,0,3,0.9,3.6,2.7c0.6,0.1,1.1-0.1,1.3-0.6c0.2-0.5,0-1-0.5-1.6c-1.6-1.6-3.6-2.4-5.8-2.4c-0.9,0-1.8,0.1-2.7,0.4
		c-3.5,0.9-6.5,2.7-8.9,5.5c-4.2,5.1-6.4,10-6.4,14.9c0,2.5,0.8,4.3,2.2,5.4c0.6,0.5,1.4,0.8,2.2,0.8c2.9,0,6.3-3.2,10.3-9.7
		c-0.5,1.8-0.8,3.3-0.8,4.6c0,1.2,0.2,2.2,0.7,3c0.9,1.4,2.1,2.1,3.5,2.1c3.1,0,7-4.6,11.6-13.9c0.1-0.3,0.2-0.6,0.2-0.9
		c0-0.4-0.2-0.6-0.6-0.4c-0.3,0.1-0.5,0.3-0.7,0.8c-2,4.1-4,7.4-6.1,10c-1.4,1.8-2.6,2.6-3.5,2.6c-0.8,0-1.1-0.5-1.1-1.5
		c0-1,0.2-2.2,0.5-3.8c0.3-1.6,1.3-3.9,3-7.1C135.2,53.4,136.5,51.3,137.4,50.4z"/>
	<path class="st0" d="M158.5,55.4c-1.5,3.6-3.4,6.7-5.7,9.5c-2.3,2.8-4.3,4.2-5.8,4.2c-0.2,0-0.4,0-0.5-0.1
		c-1.7-0.3-2.5-1.8-2.5-4.5c0-6.5,4.4-16.2,13.2-29.2c3.6-5.2,6.1-8.7,7.8-10.5c-0.4,0.1-1,0.1-1.8-0.1c-0.8-0.1-1.3-0.2-1.3-0.2
		h-0.4h-0.1c-1.6,0-3.3,1.2-4.9,3.7c-2.1,3.1-5.8,9.8-11,20c-5.2,10.2-8.7,16.5-10.5,18.8c-0.1,0.2-0.2,0.4-0.2,0.5
		c0,0.8,0.3,0.9,0.8,0.5c1.2-1.2,3.9-5.6,7.9-13.4c-2.4,5-3.6,8.6-3.6,10.6c0,1.8,0.6,3.2,1.7,4.2c1.2,1,2.7,1.6,4.5,1.6
		c5,0,9.1-2.1,12.2-6.3c3.1-4.1,4.7-8.4,4.7-12.7c0-1.2-0.3-2.4-1-3.7c-0.9-2-2.7-3.3-5.3-3.7c-0.7-0.1-1.4-0.1-1.9,0.1
		c-0.6,0.1-0.8,0.4-0.7,0.9c0.1,0.4,0.7,0.6,1.6,0.5h0.6c2.3,0,3.5,1.4,3.5,4.3C159.8,51.8,159.3,53.5,158.5,55.4z"/>
	<path class="st0" d="M164.3,67.3c0.4,2.2,2,3.4,4.7,3.4c3.1,0,6.5-3.2,10.1-9.6c-0.5,1.7-0.8,3.1-0.8,4.3c0,1.2,0.2,2.1,0.4,2.9
		c0.7,1.6,2,2.5,3.9,2.5s3.8-1.1,5.7-3.3c0.8-0.9,1.6-2,2.4-3.5c0.9-1.5,1.5-2.6,1.9-3.5c0.4-0.9,0.9-1.7,1.3-2.6s0.7-1.5,0.7-1.7
		c0-0.2-0.1-0.4-0.4-0.6c-0.3-0.2-0.6,0.1-0.9,0.8c-3.9,8.4-7.3,12.5-10,12.5c-1.1-0.1-1.7-0.9-1.7-2.5c0-0.6,0.1-1.2,0.2-2
		c0.3-1.9,2-5.9,5-11.9c1.1-2.3,2-3.9,2.6-4.8c0.6-0.9,1.5-1.8,2.6-2.6h-4.1c-1.4,0-2.4,0.5-2.9,1.6c-4.8,9.9-8.5,16.5-11.2,19.6
		c-1.7,2-3,3-4,3c-0.6,0-1.2-0.2-1.5-0.7c-0.4-0.4-0.6-1.2-0.6-2.3c0-1.1,0.5-2.7,1.5-4.8c1-2.1,2.4-5,4.2-8.8
		c1.8-3.7,3.6-6.2,5.4-7.5h-4.6c-1.5,0-2.4,0.5-2.9,1.6c-1.1,2.2-2.5,5-4.2,8.2l-1.3,2.6c-0.4,0.8-0.1,1.2,0.7,1.2
		c-1.8,3.1-2.8,5.7-2.8,7.8C164.1,66.7,164.2,67,164.3,67.3z"/>
	<path class="st0" d="M198.2,53.9c1.5-3.9,3.4-8.3,5.8-13.5c2.4-5.1,4.3-8.7,5.7-10.6c1.4-2,2.3-3,2.8-3c0.3,0,0.5,0.5,0.5,1.5
		c0,1-0.6,2.9-1.8,5.7c-1.2,2.8-3,6.1-5.5,10.1C203.3,48,200.8,51.3,198.2,53.9z M197.6,56.3c5.9-5.4,11.1-12.9,15.4-22.5
		c1.2-2.6,1.8-4.8,1.8-6.4c0-0.4,0-0.8-0.1-1.1c-0.4-1.6-1.2-2.5-2.3-2.5c-1.6,0-3.3,0.9-5,2.7c-0.9,0.9-2,2.6-3.5,5.1
		c-1.5,2.5-3.3,6.2-5.4,11.1c-2.1,4.9-3.8,9.4-4.9,13.6c-0.1,0.2-0.3,1.1-0.8,2.6c-0.5,1.5-0.8,3.1-0.9,4.6
		c-0.1,0.9-0.1,1.7-0.1,2.3c0,0.6,0.1,1.3,0.3,2.1c0.2,0.8,0.7,1.5,1.5,2.2c0.8,0.7,2.1,1,3.6,1c1.5,0,3.2-0.5,5-1.6
		c0.6-0.4,1.3-1,2.1-1.8c0.7-0.8,1.3-1.5,1.7-2c0.4-0.5,0.9-1.3,1.5-2.4c0.6-1.1,1-1.8,1.2-2.2c0.2-0.4,0.6-1.2,1.1-2.2
		c0.5-1.1,0.8-1.8,0.9-2.1c0.2-0.3,0.1-0.6-0.1-0.8c-0.4-0.2-0.7,0.1-1.1,0.8c-1.9,3.8-3.7,6.8-5.4,9.3c-1.7,2.4-3.4,3.6-5.2,3.6
		c-1.1,0-1.9-0.5-2.4-1.4c-0.5-0.9-0.8-1.9-0.8-3s0.1-2.2,0.4-3.2c0.3-1.1,0.6-2.2,1-3.4C197.4,57.2,197.6,56.5,197.6,56.3z"/>
	<path class="st0" d="M226.7,50.5c0,2.4-0.6,4.9-1.9,7.5c-1.1,2.3-2.1,4.1-2.9,5.3c0.1-0.4,0.1-0.8,0.1-1.2s-0.2-0.8-0.6-1.2
		c-0.4-0.4-1-0.7-1.6-0.7c-1.6,0-2.5,1.1-2.6,3.2c0,1.3,0.4,2.5,1.2,3.7c-1.5,1.4-2.9,2-4.2,2c-1.8,0-2.6-1.1-2.6-3.4
		c0-2.3,0.9-5.2,2.6-8.8c1.4-3.1,3.1-5.6,4.9-7.4c1.9-1.8,3.5-2.7,4.8-2.7C225.7,46.8,226.7,48.1,226.7,50.5z M215.3,48.2
		c-2.7,2.5-4.8,5.4-6.3,8.9c-1.1,2.4-1.6,4.7-1.6,6.8c0,4.6,1.8,6.9,5.5,6.9c2,0,4.1-0.8,6.4-2.5c1.1,1.3,2.8,1.9,4.8,1.9
		c1.1,0,2.3-0.4,3.5-1.1c0.5-0.3,1-0.7,1.6-1.3c0.6-0.6,1-1.1,1.4-1.5c0.4-0.5,0.8-1.1,1.3-1.8c0.5-0.8,0.9-1.4,1.1-1.8
		c0.3-0.4,0.6-1.1,1-1.8c0.4-0.8,0.6-1.3,0.8-1.6c0.1-0.3,0.4-0.8,0.7-1.5l0.4-1.1c0.1-0.2,0.1-0.4,0.1-0.5c0-0.4-0.2-0.6-0.8-0.5
		c-0.2,0-0.4,0.1-0.5,0.3c-0.1,0.2-0.4,0.9-0.9,1.9c-0.5,1-0.9,1.8-1.2,2.4c-0.3,0.6-0.8,1.4-1.4,2.6c-0.7,1.2-1.7,2.5-3.2,4.1
		c-1.2,1.4-2.5,2-3.8,2c-1.7,0-2.9-0.6-3.5-1.9c2.8-2.7,4.9-5.6,6.3-8.9c1.1-2.4,1.7-4.6,1.7-6.8c0-4.6-1.8-6.9-5.5-6.9
		C220.6,44.5,218,45.7,215.3,48.2z"/>
	<path class="st0" d="M232.1,67.3c0.4,2.2,2,3.4,4.7,3.4c3.1,0,6.5-3.2,10.1-9.6c-0.5,1.7-0.8,3.1-0.8,4.3c0,1.2,0.2,2.1,0.4,2.9
		c0.7,1.6,2,2.5,3.9,2.5s3.8-1.1,5.7-3.3c0.8-0.9,1.6-2,2.4-3.5c0.9-1.5,1.5-2.6,1.9-3.5c0.4-0.9,0.9-1.7,1.3-2.6
		c0.4-0.9,0.7-1.5,0.7-1.7c0-0.2-0.1-0.4-0.4-0.6c-0.3-0.2-0.6,0.1-0.9,0.8c-3.9,8.4-7.3,12.5-10,12.5c-1.1-0.1-1.7-0.9-1.7-2.5
		c0-0.6,0.1-1.2,0.2-2c0.3-1.9,2-5.9,5-11.9c1.1-2.3,2-3.9,2.6-4.8c0.6-0.9,1.5-1.8,2.6-2.6h-4.1c-1.4,0-2.4,0.5-2.9,1.6
		c-4.8,9.9-8.5,16.5-11.2,19.6c-1.7,2-3,3-4,3c-0.6,0-1.2-0.2-1.5-0.7c-0.4-0.4-0.6-1.2-0.6-2.3c0-1.1,0.5-2.7,1.5-4.8
		c1-2.1,2.4-5,4.2-8.8c1.8-3.7,3.6-6.2,5.4-7.5h-4.6c-1.5,0-2.4,0.5-2.9,1.6c-1.1,2.2-2.5,5-4.2,8.2l-1.3,2.6
		c-0.4,0.8-0.1,1.2,0.7,1.2c-1.8,3.1-2.8,5.7-2.8,7.8C231.9,66.7,232,67,232.1,67.3z"/>
	<path class="st0" d="M260.9,63.8c0.1,2.6,1.1,4.5,3,5.6c-0.4,0.2-0.9,0.3-1.5,0.3c-1.5,0-2.4-0.7-2.8-2c-0.1-0.3-0.1-0.7-0.1-1
		C259.5,65.7,260,64.7,260.9,63.8z M262,62.9c0-1.5-0.5-2.2-1.6-2.2c0.9-1.7,3.2-6.3,7.1-13.9c-0.1,0.3-0.1,1-0.1,1.9
		c0,0.9,0.2,2.8,0.5,5.5c0.3,2.7,0.5,4.8,0.5,6.4c0,3.8-1.1,6.6-3.3,8.2C263,67.8,262,65.8,262,62.9z M271.4,65.4
		c1-1.6,1.6-3.2,1.6-4.9c0-1.6-0.6-3.8-1.7-6.4c-0.5-1-0.9-2-1.3-2.9c-0.4-0.9-0.6-2.1-0.6-3.5c0-2.6,0.9-4.4,2.5-5.2
		c0.3-0.2,0.6-0.2,1.1-0.2c0.4,0,0.9,0.1,1.4,0.4c0.5,0.3,0.9,0.2,1.1-0.2c0.2-0.4-0.1-0.8-0.8-1.1c-0.7-0.3-1.4-0.5-2.1-0.5
		c-2.7,0-5,2.1-7,6.4c-1.8,3.9-4,8.3-6.5,13.1c-0.7,0.1-1.4,0.5-2,1.4c-0.6,0.9-0.9,1.7-0.9,2.7s0.1,1.7,0.2,2.4
		c0.8,2.8,2.9,4.2,6.4,4.2c0.9,0,1.9-0.3,3.1-0.8c1.8,0.5,3.5,0.5,5.4-0.1c1.1-0.3,2.1-0.9,3-1.8l1.6-1.6c0.5-0.4,1-1.1,1.5-1.9
		c0.5-0.8,0.9-1.5,1.2-2c0.3-0.5,0.7-1.3,1.2-2.2c0.4-0.9,0.8-1.6,1-2.1c0.2-0.5,0.4-0.9,0.6-1.4c0.2-0.5,0.3-0.8,0.3-0.9
		c0-0.4-0.2-0.6-0.7-0.5c-0.3,0-0.4,0.1-0.5,0.4c-2.7,5.2-4.6,8.5-5.6,9.8c-2,2.4-3.9,3.5-5.9,3.5c-0.3,0-0.7,0-1.3-0.1
		C269.1,68.3,270.4,67,271.4,65.4z"/>
	<path class="st0" d="M310,39.2c-3.6,6.3-5.5,9.9-5.9,10.9v0.5l0.5,0.1c0.5-0.2,1.5-0.8,2.9-1.7c1.4-0.9,2.7-1.5,3.8-1.9
		c1.1-0.4,2.2-0.6,3.6-0.6c1.3,0,2.4,0.4,3.3,1.2c0.8,0.8,1.3,2,1.3,3.6c0,4.2-2.2,8.4-6.5,12.7c-4.3,4.2-8.5,6.4-12.8,6.4
		c-1.9,0-3.5-0.2-4.6-0.7l-0.3,0.1l-0.4,0.5v0.5c0.9,0.6,2.7,0.9,5.7,0.9c3,0,6.3-1,10.1-3c3.8-2,7-4.6,9.8-7.9
		c2.7-3.3,4.1-6.6,4.1-9.9c0-2.1-0.7-3.8-2.1-4.9c-1.4-1.1-3.2-1.6-5.4-1.6c-3.4,0-6.7,1.1-10.1,3.4l8.2-14.3l7.7,0.2
		c2.1,0,4.3-0.5,6.5-1.4c2.1-0.9,3.6-2.6,4.5-4.8l-0.3-0.1c-1.4,1.1-3.3,1.6-5.8,1.6c-2.5,0-4.2-0.1-5.2-0.2c-1-0.2-2-0.2-2.9-0.2
		c-0.9,0-2,0.2-3.3,0.7C315.6,29.6,313.5,32.9,310,39.2z"/>
	<path class="st0" d="M338.9,70.1c-3,0-4.6-1.9-4.6-5.6c0-2.1,0.7-5.2,2.2-9.2c1.5-4,3.2-7.9,5.4-11.8c2.1-3.9,4.6-7.4,7.4-10.3
		c2.8-2.9,5.3-4.4,7.6-4.4c2.7,0,4.1,1.7,4.1,5.1c0,3.4-1.1,7.9-3.3,13.5c-2.2,5.6-5.1,10.8-8.7,15.6
		C345.5,67.7,342.1,70.1,338.9,70.1z M356.9,27.3c-4,0-8.1,2.1-12.4,6.3c-4.3,4.2-7.8,9-10.5,14.4c-2.7,5.4-4,10-4,13.9
		c0,2.8,0.7,5.1,2.1,6.9c1.4,1.9,3.6,2.8,6.5,2.8c2.9,0,6-1.3,9.3-3.9c3.3-2.6,6-5.8,8.3-9.6c2.3-3.8,4.1-7.7,5.6-11.8
		c1.5-4.1,2.2-7.6,2.2-10.6C363.8,30.1,361.5,27.3,356.9,27.3z"/>
</g>
<text transform="matrix(1 0 0 1 31.7495 70.7493)"><tspan x="0" y="0" class="st1 st2 st3">Fabulo</tspan><tspan x="198.5" y="0" class="st1 st2 st3">u</tspan><tspan x="225.2" y="0" class="st1 st2 st3">s </tspan><tspan x="263.8" y="0" class="st1 st2 st3 st4">5</tspan><tspan x="294.3" y="0" class="st1 st2 st3">0</tspan></text>
<text transform="matrix(1 0 0 1 39.4248 107.0872)" class="st1 st5 st6"> </text>
<text transform="matrix(1 0 0 1 50.522 107.0872)"><tspan x="0" y="0" class="st1 st7 st8">A</tspan><tspan x="17.6" y="0" class="st1 st7 st8">l</tspan><tspan x="25.2" y="0" class="st1 st7 st8">u</tspan><tspan x="40.9" y="0" class="st1 st7 st8">mni</tspan><tspan x="87.6" y="0" class="st1 st7 st8 st9"> </tspan><tspan x="94.7" y="0" class="st1 st7 st8">A</tspan><tspan x="111.7" y="0" class="st1 st7 st8">w</tspan><tspan x="132.1" y="0" class="st1 st7 st8">a</tspan><tspan x="146.4" y="0" class="st1 st7 st8">r</tspan><tspan x="156.5" y="0" class="st1 st7 st8">d</tspan><tspan x="172.7" y="0" class="st1 st7 st8 st9"> </tspan><tspan x="179.9" y="0" class="st1 st7 st8">Recipi</tspan><tspan x="253.7" y="0" class="st1 st7 st8">e</tspan><tspan x="268" y="0" class="st1 st7 st8">n</tspan><tspan x="283.7" y="0" class="st1 st7 st8">t</tspan><tspan x="293.7" y="0" class="st1 st7 st8">s</tspan></text>
<text transform="matrix(1 0 0 1 24.2651 134.4778)"><tspan x="0" y="0" class="st1 st7 st8">  </tspan><tspan x="11" y="0" class="st1 st7 st8"> </tspan><tspan x="16.5" y="0" class="st1 st7 st8"> </tspan><tspan x="22" y="0" class="st1 st7 st8"> </tspan></text>
<text transform="matrix(1 0 0 1.0638 51.9375 134.468)"><tspan x="0" y="0" class="st1 st10 st11">K</tspan><tspan x="7.8" y="0" class="st1 st10 st11">C</tspan><tspan x="16.1" y="0" class="st1 st10 st11">C </tspan><tspan x="27.9" y="0" class="st1 st10 st11">r</tspan><tspan x="32.6" y="0" class="st1 st10 st11">e</tspan><tspan x="40.1" y="0" class="st1 st10 st11">c</tspan><tspan x="46.7" y="0" class="st1 st10 st11">o</tspan><tspan x="54.8" y="0" class="st1 st10 st11">g</tspan><tspan x="63" y="0" class="st1 st10 st11">ni</tspan><tspan x="74.8" y="0" class="st1 st10 st11">z</tspan><tspan x="81" y="0" class="st1 st10 st11">es these alumni </tspan><tspan x="180.8" y="0" class="st1 st10 st11">f</tspan><tspan x="185" y="0" class="st1 st10 st11">or their distinguished</tspan><tspan x="317.6" y="0" class="st1 st10 st11 st4">    </tspan><tspan x="318.7" y="0" class="st1 st10 st11"> </tspan></text>
<text transform="matrix(1 0 0 1.0638 370.8232 134.468)" class="st1 st10 st11"> </text>
<text transform="matrix(1 0 0 1.0638 24.2773 153.8479)"><tspan x="0" y="0" class="st1 st10 st11">         personal and ca</tspan><tspan x="126" y="0" class="st1 st10 st11">r</tspan><tspan x="130.8" y="0" class="st1 st10 st11">eer a</tspan><tspan x="160.8" y="0" class="st1 st10 st11">c</tspan><tspan x="167.4" y="0" class="st1 st10 st11">c</tspan><tspan x="174" y="0" class="st1 st10 st11">omplishme</tspan><tspan x="244" y="0" class="st1 st10 st11">n</tspan><tspan x="252.2" y="0" class="st1 st10 st11">t</tspan><tspan x="257.1" y="0" class="st1 st10 st11">s</tspan><tspan x="262.8" y="0" class="st1 st10 st11">, and</tspan></text>
<text transform="matrix(1 0 0 1.0638 317.1289 153.8479)" class="st1 st10 st11"> </text>
<text transform="matrix(1 0 0 1.0638 24.2773 173.2288)"><tspan x="0" y="0" class="st1 st10 st11">         </tspan><tspan x="28.4" y="0" class="st1 st10 st11">e</tspan><tspan x="35.8" y="0" class="st1 st10 st11">x</tspan><tspan x="42.4" y="0" class="st1 st10 st11">empla</tspan><tspan x="81.4" y="0" class="st1 st10 st11">r</tspan><tspan x="86.6" y="0" class="st1 st10 st11">y </tspan><tspan x="96.8" y="0" class="st1 st10 st11">c</tspan><tspan x="103.4" y="0" class="st1 st10 st11">o</tspan><tspan x="111.5" y="0" class="st1 st10 st11">n</tspan><tspan x="119.7" y="0" class="st1 st10 st11">t</tspan></text>
<text transform="matrix(1 0 0 1.0638 148.9307 173.2288)"><tspan x="0" y="0" class="st1 st10 st11">r</tspan><tspan x="4.9" y="0" class="st1 st10 st11">ibutions </tspan><tspan x="58.9" y="0" class="st1 st10 st11">t</tspan><tspan x="63.8" y="0" class="st1 st10 st11">o socie</tspan><tspan x="106.7" y="0" class="st1 st10 st11">t</tspan><tspan x="111.7" y="0" class="st1 st10 st11">y</tspan><tspan x="118.2" y="0" class="st1 st10 st11">.</tspan></text>
</svg>
