<?xml version="1.0" encoding="utf-8"?>
<!-- Generator: Adobe Illustrator 21.1.0, SVG Export Plug-In . SVG Version: 6.00 Build 0)  -->
<svg version="1.1" id="Layer_1" xmlns="http://www.w3.org/2000/svg" xmlns:xlink="http://www.w3.org/1999/xlink" x="0px" y="0px"
	 viewBox="0 0 417.4 198.3" style="enable-background:new 0 0 417.4 198.3;" xml:space="preserve">
<style type="text/css">
	.st0{clip-path:url(#SVGID_2_);fill:none;stroke:#003767;stroke-width:0.3;stroke-miterlimit:4.04;}
	.st1{fill:#003767;}
</style>
<g>
	<defs>
		<rect id="SVGID_1_" width="449.7" height="198.3"/>
	</defs>
	<clipPath id="SVGID_2_">
		<use xlink:href="#SVGID_1_"  style="overflow:visible;"/>
	</clipPath>
	<path class="st0" d="M102,32.8c-2.4,4.1-4.3,8.1-5.9,11.9c-3.4-0.4-6-0.7-8-0.7c-2,0-4,0.5-6,1.6c-2,1.1-3.6,2.8-4.7,5.2
		c-0.2,0.4-0.2,0.8,0.1,1.1c0.3,0.3,0.6,0.1,1.1-0.4c1.8-2.7,5.7-4.1,11.5-4.1l4.8,0.1c-3.8,8.7-8.5,15.7-14.2,21.2
		c-3,2.8-6.2,4.9-9.6,6.3c-3.4,1.4-6.9,2.1-10.4,2.1c-3.5,0-6.8-0.6-9.8-1.7c-6.5-2.5-10.7-6.4-12.8-11.7c-0.8-1.9-1.1-3.8-1.1-5.4
		s0.1-3.1,0.4-4.4c0.6-3.4,2.5-6.3,5.8-8.7c1.6-1.1,2.5-1.8,2.6-2c0.1-0.2-0.4-0.1-1.5,0.2c-1.1,0.3-2.5,1.2-4.1,2.7
		c-1.6,1.5-2.7,3.1-3.3,5c-0.9,2.9-1.3,5.6-1.3,8.2c0,7.5,3.2,13.3,9.7,17.3c4.2,2.7,9.4,4.1,15.5,4.1c6.1,0,11.6-1.4,16.6-4.1
		c2.2-1.2,4.3-2.7,6.2-4.5c2-1.9,3.6-3.7,4.9-5.4c3.1-4.1,6.2-10.4,9.3-18.9c1.5,0.2,3.4,0.3,5.8,0.3c7.5,0,11.2-0.6,11.2-1.7
		c-0.1-0.4-0.8-0.6-2.2-0.5c-1.4,0.1-3.4,0.1-5.8,0.1s-5.1-0.2-8-0.6c0.1-0.3,0.7-1.7,1.7-4.1c2.9-7.2,5.7-12.3,8.3-15.2l2.1,1.1
		c1.3,0.6,2.6,1.3,4,1.9s3.1,1.2,5.2,1.9c2.1,0.7,3.9,1.2,5.2,1.4c1.3,0.2,2.6,0.3,3.7,0.3c1.2,0,2.4-0.3,3.7-1
		c2.1-1.1,3.1-2.6,3.1-4.6v-0.6c0-0.3-0.2-0.4-0.5-0.3c-0.3,0.2-0.6,0.6-0.9,1.4c-0.7,1.4-2.1,2.2-4.3,2.5c-0.6,0.1-1.5,0.1-2.6,0.1
		c-1.2,0-2.7-0.2-4.7-0.7c-5-1.3-9.3-2.9-13.1-4.7c1.2-1.1,2.3-1.7,3.4-1.7c0.4,0,0.7,0.1,1.1,0.2c0.3,0.3,0.6,0.6,0.8,0.6
		c0.4,0.1,0.6-0.2,0.5-0.8c-0.1-1.2-1-1.9-2.9-1.9c-1.6,0-3.2,0.9-4.8,2.6c-6-3.8-12.7-6.7-20.1-8.7c-3-0.9-5.9-1.3-8.8-1.3
		c-5.9,0-10.9,1.8-15,5.5c-4.1,3.7-6.1,7.7-6.1,12.2c0,3.7,1.6,6.4,4.8,8.2c1.7,1,3.4,1.6,5.2,1.6c1.7,0,3.5-0.3,5.1-0.8
		c3.9-1.3,6.3-3.7,7.4-7.3c0.1-0.4,0.2-0.8,0.2-1.1c0-0.5-0.2-0.6-0.7-0.3c-0.5,0.3-0.7,0.9-0.7,1.6c0,0.8-0.8,1.9-2.4,3.1
		c-1.6,1.3-3.5,2.2-5.8,2.8c-0.7,0.1-1.3,0.2-2,0.2c-1.8,0-3.6-0.5-5.5-1.6c-1.5-0.9-2.2-2.4-2.2-4.4c0-3.8,2-7.4,5.9-10.8
		c4.1-3.5,9.3-5.2,15.5-5.2c6.1,0,14.3,2.5,24.4,7.5C106,26.1,104.4,28.7,102,32.8z"/>
	<path class="st0" d="M137.4,50.4c-0.4,0.1-1,0.1-1.8-0.1c-0.8-0.1-1.3-0.2-1.5-0.2c-1,0-1.8,0.3-2.5,1c-0.6,0.7-1.5,1.9-2.4,3.8
		c-4.9,9.2-8.8,13.8-11.8,13.8c-1.2,0-1.9-1-1.9-2.9c0-1.9,1-4.5,2.9-7.8c1.5-2.7,3.2-5.1,5-7.1c3.2-3.4,5.8-5.1,8-5.1
		c1.8,0,3,0.9,3.6,2.7c0.6,0.1,1.1-0.1,1.3-0.6c0.2-0.5,0-1-0.5-1.6c-1.6-1.6-3.6-2.4-5.8-2.4c-0.9,0-1.8,0.1-2.7,0.4
		c-3.5,0.9-6.5,2.7-8.9,5.5c-4.2,5.1-6.4,10-6.4,14.9c0,2.5,0.8,4.3,2.2,5.4c0.6,0.5,1.4,0.8,2.2,0.8c2.9,0,6.3-3.2,10.3-9.7
		c-0.5,1.8-0.8,3.3-0.8,4.6c0,1.2,0.2,2.2,0.7,3c0.9,1.4,2.1,2.1,3.5,2.1c3.1,0,7-4.6,11.6-13.9c0.1-0.3,0.2-0.6,0.2-0.9
		c0-0.4-0.2-0.6-0.6-0.4c-0.3,0.1-0.5,0.3-0.7,0.8c-2,4.1-4,7.4-6.1,10c-1.4,1.8-2.6,2.6-3.5,2.6c-0.8,0-1.1-0.5-1.1-1.5
		c0-1,0.2-2.2,0.5-3.8c0.3-1.6,1.3-3.9,3-7.1C135.2,53.4,136.5,51.3,137.4,50.4z"/>
	<path class="st0" d="M158.5,55.4c-1.5,3.6-3.4,6.7-5.7,9.5c-2.3,2.8-4.3,4.2-5.8,4.2c-0.2,0-0.4,0-0.5-0.1
		c-1.7-0.3-2.5-1.8-2.5-4.5c0-6.5,4.4-16.2,13.2-29.2c3.6-5.2,6.1-8.7,7.8-10.5c-0.4,0.1-1,0.1-1.8-0.1c-0.8-0.1-1.3-0.2-1.3-0.2
		h-0.4h-0.1c-1.6,0-3.3,1.2-4.9,3.7c-2.1,3.1-5.8,9.8-11,20c-5.2,10.2-8.7,16.5-10.5,18.8c-0.1,0.2-0.2,0.4-0.2,0.5
		c0,0.8,0.3,0.9,0.8,0.5c1.2-1.2,3.9-5.6,7.9-13.4c-2.4,5-3.6,8.6-3.6,10.6c0,1.8,0.6,3.2,1.7,4.2c1.2,1,2.7,1.6,4.5,1.6
		c5,0,9.1-2.1,12.2-6.3c3.1-4.1,4.7-8.4,4.7-12.7c0-1.2-0.3-2.4-1-3.7c-0.9-2-2.7-3.3-5.3-3.7c-0.7-0.1-1.4-0.1-1.9,0.1
		c-0.6,0.1-0.8,0.4-0.7,0.9c0.1,0.4,0.7,0.6,1.6,0.5h0.6c2.3,0,3.5,1.4,3.5,4.3C159.8,51.8,159.3,53.5,158.5,55.4z"/>
	<path class="st0" d="M164.3,67.3c0.4,2.2,2,3.4,4.7,3.4c3.1,0,6.5-3.2,10.1-9.6c-0.5,1.7-0.8,3.1-0.8,4.3c0,1.2,0.2,2.1,0.4,2.9
		c0.7,1.6,2,2.5,3.9,2.5s3.8-1.1,5.7-3.3c0.8-0.9,1.6-2,2.4-3.5c0.9-1.5,1.5-2.6,1.9-3.5c0.4-0.9,0.9-1.7,1.3-2.6s0.7-1.5,0.7-1.7
		c0-0.2-0.1-0.4-0.4-0.6c-0.3-0.2-0.6,0.1-0.9,0.8c-3.9,8.4-7.3,12.5-10,12.5c-1.1-0.1-1.7-0.9-1.7-2.5c0-0.6,0.1-1.2,0.2-2
		c0.3-1.9,2-5.9,5-11.9c1.1-2.3,2-3.9,2.6-4.8c0.6-0.9,1.5-1.8,2.6-2.6h-4.1c-1.4,0-2.4,0.5-2.9,1.6c-4.8,9.9-8.5,16.5-11.2,19.6
		c-1.7,2-3,3-4,3c-0.6,0-1.2-0.2-1.5-0.7c-0.4-0.4-0.6-1.2-0.6-2.3c0-1.1,0.5-2.7,1.5-4.8c1-2.1,2.4-5,4.2-8.8
		c1.8-3.7,3.6-6.2,5.4-7.5h-4.6c-1.5,0-2.4,0.5-2.9,1.6c-1.1,2.2-2.5,5-4.2,8.2l-1.3,2.6c-0.4,0.8-0.1,1.2,0.7,1.2
		c-1.8,3.1-2.8,5.7-2.8,7.8C164.1,66.7,164.2,67,164.3,67.3z"/>
	<path class="st0" d="M198.2,53.9c1.5-3.9,3.4-8.3,5.8-13.5c2.4-5.1,4.3-8.7,5.7-10.6c1.4-2,2.3-3,2.8-3c0.3,0,0.5,0.5,0.5,1.5
		c0,1-0.6,2.9-1.8,5.7c-1.2,2.8-3,6.1-5.5,10.1C203.3,48,200.8,51.3,198.2,53.9z M197.6,56.3c5.9-5.4,11.1-12.9,15.4-22.5
		c1.2-2.6,1.8-4.8,1.8-6.4c0-0.4,0-0.8-0.1-1.1c-0.4-1.6-1.2-2.5-2.3-2.5c-1.6,0-3.3,0.9-5,2.7c-0.9,0.9-2,2.6-3.5,5.1
		c-1.5,2.5-3.3,6.2-5.4,11.1c-2.1,4.9-3.8,9.4-4.9,13.6c-0.1,0.2-0.3,1.1-0.8,2.6c-0.5,1.5-0.8,3.1-0.9,4.6
		c-0.1,0.9-0.1,1.7-0.1,2.3c0,0.6,0.1,1.3,0.3,2.1c0.2,0.8,0.7,1.5,1.5,2.2c0.8,0.7,2.1,1,3.6,1c1.5,0,3.2-0.5,5-1.6
		c0.6-0.4,1.3-1,2.1-1.8c0.7-0.8,1.3-1.5,1.7-2c0.4-0.5,0.9-1.3,1.5-2.4c0.6-1.1,1-1.8,1.2-2.2c0.2-0.4,0.6-1.2,1.1-2.2
		c0.5-1.1,0.8-1.8,0.9-2.1c0.2-0.3,0.1-0.6-0.1-0.8c-0.4-0.2-0.7,0.1-1.1,0.8c-1.9,3.8-3.7,6.8-5.4,9.3c-1.7,2.4-3.4,3.6-5.2,3.6
		c-1.1,0-1.9-0.5-2.4-1.4c-0.5-0.9-0.8-1.9-0.8-3s0.1-2.2,0.4-3.2c0.3-1.1,0.6-2.2,1-3.4C197.4,57.2,197.6,56.5,197.6,56.3z"/>
	<path class="st0" d="M226.7,50.5c0,2.4-0.6,4.9-1.9,7.5c-1.1,2.3-2.1,4.1-2.9,5.3c0.1-0.4,0.1-0.8,0.1-1.2s-0.2-0.8-0.6-1.2
		c-0.4-0.4-1-0.7-1.6-0.7c-1.6,0-2.5,1.1-2.6,3.2c0,1.3,0.4,2.5,1.2,3.7c-1.5,1.4-2.9,2-4.2,2c-1.8,0-2.6-1.1-2.6-3.4
		c0-2.3,0.9-5.2,2.6-8.8c1.4-3.1,3.1-5.6,4.9-7.4c1.9-1.8,3.5-2.7,4.8-2.7C225.7,46.8,226.7,48.1,226.7,50.5z M215.3,48.2
		c-2.7,2.5-4.8,5.4-6.3,8.9c-1.1,2.4-1.6,4.7-1.6,6.8c0,4.6,1.8,6.9,5.5,6.9c2,0,4.1-0.8,6.4-2.5c1.1,1.3,2.8,1.9,4.8,1.9
		c1.1,0,2.3-0.4,3.5-1.1c0.5-0.3,1-0.7,1.6-1.3c0.6-0.6,1-1.1,1.4-1.5c0.4-0.5,0.8-1.1,1.3-1.8c0.5-0.8,0.9-1.4,1.1-1.8
		c0.3-0.4,0.6-1.1,1-1.8c0.4-0.8,0.6-1.3,0.8-1.6c0.1-0.3,0.4-0.8,0.7-1.5l0.4-1.1c0.1-0.2,0.1-0.4,0.1-0.5c0-0.4-0.2-0.6-0.8-0.5
		c-0.2,0-0.4,0.1-0.5,0.3c-0.1,0.2-0.4,0.9-0.9,1.9c-0.5,1-0.9,1.8-1.2,2.4c-0.3,0.6-0.8,1.4-1.4,2.6c-0.7,1.2-1.7,2.5-3.2,4.1
		c-1.2,1.4-2.5,2-3.8,2c-1.7,0-2.9-0.6-3.5-1.9c2.8-2.7,4.9-5.6,6.3-8.9c1.1-2.4,1.7-4.6,1.7-6.8c0-4.6-1.8-6.9-5.5-6.9
		C220.6,44.5,218,45.7,215.3,48.2z"/>
	<path class="st0" d="M232.1,67.3c0.4,2.2,2,3.4,4.7,3.4c3.1,0,6.5-3.2,10.1-9.6c-0.5,1.7-0.8,3.1-0.8,4.3c0,1.2,0.2,2.1,0.4,2.9
		c0.7,1.6,2,2.5,3.9,2.5s3.8-1.1,5.7-3.3c0.8-0.9,1.6-2,2.4-3.5c0.9-1.5,1.5-2.6,1.9-3.5c0.4-0.9,0.9-1.7,1.3-2.6
		c0.4-0.9,0.7-1.5,0.7-1.7c0-0.2-0.1-0.4-0.4-0.6c-0.3-0.2-0.6,0.1-0.9,0.8c-3.9,8.4-7.3,12.5-10,12.5c-1.1-0.1-1.7-0.9-1.7-2.5
		c0-0.6,0.1-1.2,0.2-2c0.3-1.9,2-5.9,5-11.9c1.1-2.3,2-3.9,2.6-4.8c0.6-0.9,1.5-1.8,2.6-2.6h-4.1c-1.4,0-2.4,0.5-2.9,1.6
		c-4.8,9.9-8.5,16.5-11.2,19.6c-1.7,2-3,3-4,3c-0.6,0-1.2-0.2-1.5-0.7c-0.4-0.4-0.6-1.2-0.6-2.3c0-1.1,0.5-2.7,1.5-4.8
		c1-2.1,2.4-5,4.2-8.8c1.8-3.7,3.6-6.2,5.4-7.5h-4.6c-1.5,0-2.4,0.5-2.9,1.6c-1.1,2.2-2.5,5-4.2,8.2l-1.3,2.6
		c-0.4,0.8-0.1,1.2,0.7,1.2c-1.8,3.1-2.8,5.7-2.8,7.8C231.9,66.7,232,67,232.1,67.3z"/>
	<path class="st0" d="M260.9,63.8c0.1,2.6,1.1,4.5,3,5.6c-0.4,0.2-0.9,0.3-1.5,0.3c-1.5,0-2.4-0.7-2.8-2c-0.1-0.3-0.1-0.7-0.1-1
		C259.5,65.7,260,64.7,260.9,63.8z M262,62.9c0-1.5-0.5-2.2-1.6-2.2c0.9-1.7,3.2-6.3,7.1-13.9c-0.1,0.3-0.1,1-0.1,1.9
		c0,0.9,0.2,2.8,0.5,5.5c0.3,2.7,0.5,4.8,0.5,6.4c0,3.8-1.1,6.6-3.3,8.2C263,67.8,262,65.8,262,62.9z M271.4,65.4
		c1-1.6,1.6-3.2,1.6-4.9c0-1.6-0.6-3.8-1.7-6.4c-0.5-1-0.9-2-1.3-2.9c-0.4-0.9-0.6-2.1-0.6-3.5c0-2.6,0.9-4.4,2.5-5.2
		c0.3-0.2,0.6-0.2,1.1-0.2c0.4,0,0.9,0.1,1.4,0.4c0.5,0.3,0.9,0.2,1.1-0.2c0.2-0.4-0.1-0.8-0.8-1.1c-0.7-0.3-1.4-0.5-2.1-0.5
		c-2.7,0-5,2.1-7,6.4c-1.8,3.9-4,8.3-6.5,13.1c-0.7,0.1-1.4,0.5-2,1.4c-0.6,0.9-0.9,1.7-0.9,2.7s0.1,1.7,0.2,2.4
		c0.8,2.8,2.9,4.2,6.4,4.2c0.9,0,1.9-0.3,3.1-0.8c1.8,0.5,3.5,0.5,5.4-0.1c1.1-0.3,2.1-0.9,3-1.8l1.6-1.6c0.5-0.4,1-1.1,1.5-1.9
		c0.5-0.8,0.9-1.5,1.2-2c0.3-0.5,0.7-1.3,1.2-2.2c0.4-0.9,0.8-1.6,1-2.1c0.2-0.5,0.4-0.9,0.6-1.4c0.2-0.5,0.3-0.8,0.3-0.9
		c0-0.4-0.2-0.6-0.7-0.5c-0.3,0-0.4,0.1-0.5,0.4c-2.7,5.2-4.6,8.5-5.6,9.8c-2,2.4-3.9,3.5-5.9,3.5c-0.3,0-0.7,0-1.3-0.1
		C269.1,68.3,270.4,67,271.4,65.4z"/>
	<path class="st0" d="M310,39.2c-3.6,6.3-5.5,9.9-5.9,10.9v0.5l0.5,0.1c0.5-0.2,1.5-0.8,2.9-1.7c1.4-0.9,2.7-1.5,3.8-1.9
		c1.1-0.4,2.2-0.6,3.6-0.6c1.3,0,2.4,0.4,3.3,1.2c0.8,0.8,1.3,2,1.3,3.6c0,4.2-2.2,8.4-6.5,12.7c-4.3,4.2-8.5,6.4-12.8,6.4
		c-1.9,0-3.5-0.2-4.6-0.7l-0.3,0.1l-0.4,0.5v0.5c0.9,0.6,2.7,0.9,5.7,0.9c3,0,6.3-1,10.1-3c3.8-2,7-4.6,9.8-7.9
		c2.7-3.3,4.1-6.6,4.1-9.9c0-2.1-0.7-3.8-2.1-4.9c-1.4-1.1-3.2-1.6-5.4-1.6c-3.4,0-6.7,1.1-10.1,3.4l8.2-14.3l7.7,0.2
		c2.1,0,4.3-0.5,6.5-1.4c2.1-0.9,3.6-2.6,4.5-4.8l-0.3-0.1c-1.4,1.1-3.3,1.6-5.8,1.6c-2.5,0-4.2-0.1-5.2-0.2c-1-0.2-2-0.2-2.9-0.2
		c-0.9,0-2,0.2-3.3,0.7C315.6,29.6,313.5,32.9,310,39.2z"/>
	<path class="st0" d="M338.9,70.1c-3,0-4.6-1.9-4.6-5.6c0-2.1,0.7-5.2,2.2-9.2c1.5-4,3.2-7.9,5.4-11.8c2.1-3.9,4.6-7.4,7.4-10.3
		c2.8-2.9,5.3-4.4,7.6-4.4c2.7,0,4.1,1.7,4.1,5.1c0,3.4-1.1,7.9-3.3,13.5c-2.2,5.6-5.1,10.8-8.7,15.6
		C345.5,67.7,342.1,70.1,338.9,70.1z M356.9,27.3c-4,0-8.1,2.1-12.4,6.3c-4.3,4.2-7.8,9-10.5,14.4c-2.7,5.4-4,10-4,13.9
		c0,2.8,0.7,5.1,2.1,6.9c1.4,1.9,3.6,2.8,6.5,2.8c2.9,0,6-1.3,9.3-3.9c3.3-2.6,6-5.8,8.3-9.6c2.3-3.8,4.1-7.7,5.6-11.8
		c1.5-4.1,2.2-7.6,2.2-10.6C363.8,30.1,361.5,27.3,356.9,27.3z"/>
</g>
<g>
	<path class="st1" d="M107,25c-10.1-5-18.2-7.5-24.4-7.5s-11.3,1.8-15.5,5.2c-4,3.4-5.9,7-5.9,10.8c0,2,0.7,3.5,2.2,4.4
		c2,1.1,3.8,1.6,5.6,1.6c0.6,0,1.3-0.1,1.9-0.2c2.3-0.5,4.2-1.5,5.9-2.8c1.6-1.3,2.4-2.3,2.4-3.1s0.2-1.4,0.7-1.7
		c0.5-0.3,0.7-0.2,0.7,0.3c0,0.3-0.1,0.7-0.2,1c-1.1,3.6-3.5,6-7.4,7.3c-1.6,0.6-3.4,0.8-5.1,0.8c-1.8,0-3.5-0.5-5.2-1.6
		c-3.2-1.8-4.8-4.5-4.8-8.2c0-4.4,2-8.5,6.2-12.2c4.1-3.6,9.1-5.5,15-5.5c2.9,0,5.8,0.4,8.8,1.3c7.4,2,14.1,4.9,20.1,8.7
		c1.5-1.7,3.1-2.5,4.8-2.5c1.8,0,2.8,0.6,2.9,1.9c0,0.6-0.1,0.8-0.5,0.8c-0.3,0-0.5-0.2-0.8-0.6c-0.4-0.2-0.8-0.2-1.1-0.2
		c-1.1,0-2.2,0.6-3.4,1.7c3.7,1.9,8,3.4,13,4.7c2,0.5,3.5,0.7,4.7,0.7c1.1,0,2,0,2.6-0.1c2.2-0.2,3.6-1.1,4.3-2.5
		c0.3-0.8,0.7-1.2,0.9-1.4c0.3-0.2,0.4-0.1,0.5,0.3c0,0.2,0,0.4,0,0.6c0,2.1-1,3.6-3.1,4.6c-1.3,0.7-2.5,1-3.7,1
		c-1.2,0-2.4-0.1-3.8-0.3c-1.4-0.2-3.1-0.7-5.2-1.4c-2.2-0.7-3.9-1.3-5.2-1.9c-1.4-0.6-2.7-1.2-4-1.9l-2.1-1.1
		c-2.6,3-5.4,8-8.3,15.2c-1,2.4-1.5,3.8-1.6,4.1c2.9,0.4,5.6,0.6,8,0.6c2.4,0,4.4,0,5.8-0.1c1.4-0.1,2.2,0.1,2.2,0.5
		c0,1.1-3.7,1.7-11.2,1.7c-2.4,0-4.3-0.1-5.8-0.3c-3.1,8.5-6.2,14.8-9.3,18.9c-1.3,1.7-2.9,3.5-4.9,5.4c-2,1.9-4,3.4-6.2,4.5
		c-5,2.7-10.5,4-16.6,4c-6.1,0-11.3-1.3-15.5-4c-6.5-4-9.7-9.8-9.7-17.3c0-2.5,0.4-5.3,1.3-8.2c0.6-1.9,1.7-3.6,3.3-5
		c1.6-1.4,3-2.3,4.1-2.7c1.1-0.3,1.6-0.4,1.5-0.2c-0.1,0.2-0.9,0.9-2.6,2c-3.3,2.4-5.2,5.2-5.8,8.7c-0.3,1.3-0.4,2.7-0.4,4.4
		c0,1.6,0.4,3.4,1.1,5.4c2,5.3,6.3,9.2,12.8,11.7c3,1.1,6.3,1.7,9.8,1.7c3.5,0,7-0.7,10.4-2.1c3.4-1.4,6.6-3.5,9.6-6.3
		c5.7-5.4,10.5-12.5,14.2-21.2l-4.8-0.1c-5.9,0-9.7,1.4-11.5,4.1c-0.5,0.6-0.8,0.7-1.1,0.4c-0.3-0.3-0.3-0.6-0.1-1.1
		c1.1-2.4,2.6-4.1,4.6-5.2c2-1,4-1.6,6-1.6c2,0,4.6,0.2,8,0.7c1.5-3.8,3.5-7.8,5.9-11.9C104.4,28.7,106,26.1,107,25z"/>
	<path class="st1" d="M133.6,56.5c-1.6,3.2-2.6,5.6-3,7.1c-0.3,1.6-0.5,2.9-0.5,3.8c0,1,0.4,1.5,1.1,1.5c0.9,0,2.1-0.9,3.5-2.6
		c2-2.5,4.1-5.9,6.1-10c0.2-0.4,0.4-0.7,0.7-0.8c0.4-0.1,0.6,0,0.6,0.5c0,0.3-0.1,0.6-0.2,0.9c-4.6,9.3-8.5,14-11.6,14
		c-1.5,0-2.6-0.7-3.5-2.1c-0.4-0.8-0.7-1.7-0.7-3c0-1.2,0.2-2.8,0.8-4.6c-4,6.5-7.5,9.7-10.4,9.7c-0.8,0-1.5-0.2-2.2-0.8
		c-1.5-1.1-2.2-2.9-2.2-5.4c0-4.9,2.1-9.9,6.4-14.9c2.4-2.8,5.3-4.6,8.9-5.5c0.9-0.2,1.8-0.4,2.7-0.4c2.3,0,4.2,0.8,5.9,2.4
		c0.5,0.6,0.6,1.1,0.5,1.6c-0.2,0.5-0.6,0.7-1.3,0.6c-0.6-1.8-1.8-2.7-3.6-2.7c-2.2,0-4.8,1.7-8,5.1c-1.8,2-3.5,4.3-5,7
		c-2,3.3-2.9,5.8-2.9,7.8c0,2,0.6,2.9,1.9,2.9c3,0,6.9-4.6,11.8-13.8c0.9-1.8,1.7-3.1,2.4-3.8c0.6-0.7,1.5-1,2.5-1
		c0.2,0,0.7,0.1,1.5,0.2c0.8,0.2,1.4,0.2,1.8,0.1C136.5,51.3,135.2,53.4,133.6,56.5z"/>
	<path class="st1" d="M159.8,50.3c0-2.8-1.2-4.3-3.5-4.3c-0.2,0-0.4,0-0.6,0c-0.9,0.1-1.4-0.1-1.6-0.5s0.1-0.8,0.7-0.9
		c0.6-0.2,1.2-0.2,2-0.1c2.6,0.4,4.4,1.6,5.3,3.7c0.6,1.2,1,2.5,1,3.7c0,4.3-1.6,8.5-4.7,12.7c-3.1,4.2-7.2,6.3-12.2,6.3
		c-1.9,0-3.4-0.5-4.5-1.6c-1.2-1-1.7-2.4-1.7-4.2c0-2.1,1.2-5.6,3.6-10.7c-4.1,7.8-6.8,12.2-8,13.4c-0.5,0.5-0.8,0.3-0.8-0.5
		c0-0.2,0.1-0.3,0.1-0.5c1.7-2.3,5.2-8.5,10.5-18.8c5.2-10.2,8.9-16.9,11-20c1.7-2.4,3.3-3.7,4.9-3.7h0.1h0.4c0,0,0.5,0.1,1.3,0.2
		s1.4,0.2,1.8,0.1c-1.6,1.8-4.3,5.2-7.8,10.5c-8.8,13-13.2,22.8-13.2,29.3c0,2.7,0.8,4.2,2.6,4.5c0.1,0,0.3,0.1,0.5,0.1
		c1.5,0,3.5-1.4,5.8-4.2c2.3-2.8,4.2-5.9,5.7-9.5C159.3,53.5,159.8,51.8,159.8,50.3z"/>
	<path class="st1" d="M164.1,66.4c0-2.1,0.9-4.8,2.8-7.8c-0.8,0-1-0.4-0.7-1.2l1.4-2.6c1.7-3.2,3.1-6,4.2-8.2
		c0.5-1.1,1.5-1.6,2.9-1.6h4.6c-1.8,1.3-3.6,3.8-5.4,7.5c-1.8,3.7-3.2,6.7-4.2,8.8c-1,2.1-1.5,3.7-1.5,4.8c0,1.1,0.2,1.9,0.6,2.3
		s0.9,0.7,1.5,0.7c0.9,0,2.3-1,4-3c2.6-3.1,6.4-9.6,11.2-19.6c0.5-1.1,1.5-1.6,2.9-1.6h4.1c-1.1,0.9-2,1.7-2.6,2.6
		c-0.6,0.9-1.5,2.5-2.6,4.8c-3,6-4.7,10-5,11.9c-0.1,0.7-0.2,1.4-0.2,2c0,1.6,0.5,2.5,1.7,2.5c2.7,0,6-4.2,10-12.5
		c0.3-0.7,0.6-1,0.9-0.8c0.3,0.1,0.4,0.4,0.4,0.6c0,0.3-0.2,0.8-0.7,1.7c-0.5,0.9-0.9,1.8-1.3,2.6c-0.4,0.9-1.1,2-2,3.5
		c-0.9,1.5-1.7,2.6-2.4,3.5c-1.9,2.2-3.9,3.3-5.7,3.3s-3.2-0.8-3.9-2.5c-0.3-0.8-0.4-1.7-0.4-2.9c0-1.1,0.2-2.6,0.8-4.3
		c-3.7,6.4-7,9.6-10.1,9.6c-2.7,0-4.3-1.1-4.7-3.4C164.2,67,164.1,66.7,164.1,66.4z"/>
	<path class="st1" d="M197,58.3c-0.4,1.2-0.7,2.3-1,3.4c-0.3,1.1-0.4,2.2-0.4,3.2c0,1.1,0.2,2.1,0.8,3c0.5,0.9,1.3,1.4,2.4,1.4
		c1.8,0,3.5-1.2,5.2-3.6c1.7-2.4,3.5-5.5,5.4-9.3c0.4-0.7,0.8-1,1.1-0.8c0.2,0.2,0.3,0.5,0.1,0.8s-0.5,1-0.9,2.1
		c-0.5,1.1-0.8,1.8-1,2.2c-0.2,0.4-0.6,1.2-1.2,2.2c-0.6,1.1-1.1,1.9-1.5,2.4c-0.4,0.5-1,1.2-1.7,2c-0.7,0.8-1.4,1.4-2.1,1.8
		c-1.8,1.1-3.4,1.7-4.9,1.7c-1.6,0-2.8-0.3-3.6-1c-0.9-0.7-1.4-1.4-1.5-2.2c-0.2-0.8-0.3-1.5-0.3-2.1c0-0.6,0-1.4,0.1-2.3
		c0.1-1.6,0.5-3.2,0.9-4.7c0.5-1.5,0.7-2.3,0.8-2.5c1.1-4.1,2.8-8.7,4.9-13.6c2.1-4.9,3.9-8.6,5.4-11.1c1.5-2.5,2.6-4.2,3.5-5.1
		c1.7-1.8,3.4-2.7,5-2.7c1.1,0,1.9,0.8,2.3,2.5c0,0.3,0.1,0.7,0.1,1.1c0,1.7-0.6,3.9-1.8,6.5c-4.3,9.6-9.4,17.1-15.4,22.5
		C197.6,56.5,197.4,57.2,197,58.3z M205.8,44c2.5-3.9,4.3-7.3,5.5-10.1c1.2-2.8,1.8-4.7,1.8-5.7c0-1-0.2-1.5-0.5-1.5
		c-0.5,0-1.5,1-2.9,3c-1.4,2-3.3,5.5-5.7,10.6c-2.4,5.1-4.3,9.6-5.8,13.5C200.8,51.3,203.3,48,205.8,44z"/>
	<path class="st1" d="M223.1,44.5c3.6,0,5.5,2.3,5.5,6.9c0,2.1-0.6,4.3-1.6,6.8c-1.4,3.2-3.5,6.2-6.3,8.8c0.6,1.2,1.8,1.9,3.5,1.9
		c1.4,0,2.6-0.7,3.8-2c1.5-1.5,2.6-2.9,3.2-4.1c0.6-1.2,1.1-2,1.4-2.6c0.3-0.5,0.7-1.3,1.2-2.4c0.5-1,0.8-1.7,0.9-1.9
		c0.1-0.2,0.3-0.3,0.5-0.3c0.5,0,0.8,0.1,0.8,0.5c0,0.2-0.1,0.3-0.1,0.5l-0.5,1c-0.3,0.7-0.5,1.2-0.7,1.5s-0.4,0.8-0.8,1.6
		c-0.4,0.8-0.7,1.4-1,1.8c-0.3,0.4-0.7,1-1.1,1.8c-0.5,0.8-0.9,1.3-1.3,1.8s-0.8,1-1.4,1.5c-0.6,0.6-1.1,1-1.6,1.3
		c-1.3,0.8-2.4,1.1-3.5,1.1c-2.1,0-3.7-0.6-4.8-2c-2.3,1.7-4.4,2.5-6.4,2.5c-3.7,0-5.5-2.3-5.5-6.9c0-2.1,0.5-4.3,1.7-6.8
		c1.5-3.5,3.6-6.5,6.3-8.9C218,45.7,220.6,44.5,223.1,44.5z M223.9,46.8c-1.4,0-3,0.9-4.8,2.7c-1.9,1.8-3.5,4.2-5,7.3
		c-1.8,3.6-2.6,6.6-2.6,8.8c0,2.3,0.9,3.5,2.6,3.5c1.2,0,2.6-0.7,4.2-2c-0.8-1.2-1.2-2.4-1.2-3.7c0.1-2.1,1-3.2,2.6-3.2
		c0.6,0,1.2,0.2,1.6,0.7c0.4,0.5,0.6,0.9,0.6,1.2s-0.1,0.8-0.1,1.2c0.8-1.2,1.8-3,2.9-5.3c1.2-2.5,1.9-5,1.9-7.5
		C226.7,48,225.7,46.8,223.9,46.8z"/>
	<path class="st1" d="M231.9,66.4c0-2.1,0.9-4.8,2.8-7.8c-0.8,0-1-0.4-0.7-1.2l1.4-2.6c1.7-3.2,3.1-6,4.2-8.2
		c0.5-1.1,1.5-1.6,2.9-1.6h4.6c-1.8,1.3-3.6,3.8-5.4,7.5c-1.8,3.7-3.2,6.7-4.2,8.8c-1,2.1-1.5,3.7-1.5,4.8c0,1.1,0.2,1.9,0.6,2.3
		s0.9,0.7,1.5,0.7c0.9,0,2.3-1,4-3c2.6-3.1,6.4-9.6,11.2-19.6c0.5-1.1,1.5-1.6,2.9-1.6h4.1c-1.1,0.9-2,1.7-2.6,2.6
		c-0.6,0.9-1.5,2.5-2.6,4.8c-3,6-4.7,10-5,11.9c-0.1,0.7-0.2,1.4-0.2,2c0,1.6,0.5,2.5,1.7,2.5c2.7,0,6-4.2,10-12.5
		c0.3-0.7,0.6-1,0.9-0.8c0.3,0.1,0.4,0.4,0.4,0.6c0,0.3-0.2,0.8-0.7,1.7c-0.5,0.9-0.9,1.8-1.3,2.6c-0.4,0.9-1.1,2-2,3.5
		c-0.9,1.5-1.7,2.6-2.4,3.5c-1.9,2.2-3.9,3.3-5.7,3.3s-3.2-0.8-3.9-2.5c-0.3-0.8-0.4-1.7-0.4-2.9c0-1.1,0.2-2.6,0.8-4.3
		c-3.7,6.4-7,9.6-10.1,9.6c-2.7,0-4.3-1.1-4.7-3.4C232,67,231.9,66.7,231.9,66.4z"/>
	<path class="st1" d="M267.7,69.3c0.6,0.1,1.1,0.1,1.4,0.1c2,0,4-1.2,5.9-3.5c1-1.3,2.9-4.6,5.6-9.8c0.1-0.2,0.3-0.4,0.5-0.4
		c0.5,0,0.7,0.1,0.7,0.5c0,0.1-0.1,0.4-0.3,0.9c-0.2,0.5-0.4,1-0.6,1.4c-0.2,0.5-0.5,1.2-1,2.1s-0.8,1.6-1.2,2.2
		c-0.3,0.6-0.7,1.2-1.2,2c-0.5,0.8-1,1.4-1.5,1.9l-1.6,1.6c-0.9,0.9-1.9,1.5-3,1.8c-1.9,0.6-3.7,0.6-5.4,0.1
		c-1.2,0.5-2.2,0.8-3.1,0.8c-3.6,0-5.7-1.4-6.4-4.2c-0.1-0.6-0.2-1.4-0.2-2.4c0-0.9,0.3-1.8,0.9-2.7c0.6-0.8,1.3-1.3,2-1.4
		c2.6-4.8,4.7-9.2,6.5-13.1c2-4.2,4.3-6.4,7-6.4c0.7,0,1.4,0.2,2.1,0.5c0.7,0.3,0.9,0.7,0.8,1.1c-0.2,0.4-0.5,0.5-1.1,0.2
		c-0.6-0.2-1-0.4-1.4-0.4c-0.4,0-0.8,0.1-1.1,0.2c-1.7,0.8-2.5,2.5-2.5,5.2c0,1.4,0.2,2.5,0.6,3.5c0.4,0.9,0.8,1.9,1.4,2.9
		c1.1,2.6,1.7,4.7,1.7,6.4c0,1.7-0.5,3.3-1.6,4.9C270.4,67,269.1,68.3,267.7,69.3z M259.5,66.8c0,0.3,0,0.6,0.1,1
		c0.4,1.3,1.3,2,2.8,2c0.6,0,1.1-0.1,1.5-0.3c-1.9-1.1-2.9-3-3-5.6C260,64.7,259.5,65.7,259.5,66.8z M265.1,68.8
		c2.2-1.7,3.3-4.4,3.3-8.3c0-1.5-0.2-3.7-0.5-6.4c-0.4-2.7-0.5-4.5-0.5-5.5c0-0.9,0-1.6,0.1-2c-3.8,7.6-6.1,12.2-7,13.9
		c1,0,1.6,0.8,1.6,2.2C262,65.8,263,67.8,265.1,68.8z"/>
	<path class="st1" d="M316.1,29.2c1.3-0.5,2.4-0.7,3.3-0.7c0.9,0,1.9,0.1,2.9,0.2c1,0.2,2.8,0.2,5.2,0.2c2.4,0,4.4-0.5,5.8-1.6
		l0.3,0.1c-0.9,2.2-2.4,3.9-4.5,4.8c-2.2,1-4.3,1.4-6.5,1.4l-7.7-0.2l-8.2,14.3c3.3-2.2,6.7-3.4,10-3.4c2.2,0,4,0.6,5.4,1.7
		c1.4,1.1,2.1,2.7,2.1,4.9c0,3.3-1.4,6.6-4.1,9.9c-2.7,3.3-6,5.9-9.8,7.9c-3.8,2-7.1,3-10.1,3c-3,0-4.8-0.3-5.7-0.9v-0.5l0.4-0.5
		l0.3-0.2c1.2,0.5,2.7,0.7,4.6,0.7c4.2,0,8.4-2.1,12.8-6.4c4.3-4.2,6.5-8.5,6.5-12.7c0-1.5-0.4-2.7-1.3-3.6
		c-0.9-0.8-1.9-1.2-3.3-1.2c-1.3,0-2.5,0.2-3.6,0.6c-1,0.4-2.3,1-3.8,1.9s-2.4,1.4-2.9,1.7l-0.4-0.2V50c0.3-1,2.3-4.6,5.9-10.9
		C313.5,32.9,315.6,29.6,316.1,29.2z"/>
	<path class="st1" d="M363.9,35.6c0,3-0.7,6.5-2.2,10.6c-1.5,4.1-3.3,8-5.6,11.8c-2.3,3.8-5.1,7-8.3,9.6c-3.3,2.6-6.4,3.9-9.3,3.9
		s-5.1-0.9-6.5-2.8c-1.4-1.9-2.1-4.2-2.1-6.9c0-3.8,1.3-8.5,4-13.9c2.7-5.4,6.2-10.2,10.5-14.4c4.3-4.2,8.5-6.3,12.4-6.3
		C361.6,27.3,363.9,30.1,363.9,35.6z M349.1,62.9c3.6-4.8,6.5-9.9,8.7-15.6s3.3-10.1,3.3-13.5c0-3.4-1.4-5.1-4.1-5.1
		c-2.3,0-4.8,1.5-7.6,4.4c-2.8,2.9-5.2,6.4-7.4,10.3c-2.2,3.9-4,7.9-5.4,11.9c-1.5,4-2.2,7-2.2,9.2c0,3.8,1.5,5.6,4.6,5.6
		C342.2,70.1,345.5,67.7,349.1,62.9z"/>
</g>
<g>
	<path class="st1" d="M56.5,102.4l-1.3,4.7H51l5.6-18.2h5.4l5.6,18.2h-4.4l-1.4-4.7H56.5z M61.2,99.3L60,95.5
		c-0.3-1.1-0.6-2.4-0.9-3.5h-0.1c-0.3,1.1-0.5,2.5-0.8,3.5l-1.1,3.9H61.2z"/>
	<path class="st1" d="M69.8,87.9h4.1v19.2h-4.1V87.9z"/>
	<path class="st1" d="M89.8,102.8c0,1.7,0.1,3.1,0.1,4.2h-3.6l-0.2-1.9H86c-0.5,0.8-1.8,2.2-4.1,2.2c-2.7,0-4.6-1.7-4.6-5.7v-7.7
		h4.1v7.1c0,1.9,0.6,3.1,2.1,3.1c1.1,0,1.8-0.8,2.1-1.4c0.1-0.2,0.1-0.6,0.1-0.9v-7.9h4.1V102.8z"/>
	<path class="st1" d="M93.1,98.1c0-1.6-0.1-3.1-0.1-4.2h3.5l0.2,1.8h0.1c0.6-0.8,1.7-2.1,4-2.1c1.7,0,3.1,0.9,3.6,2.2h0.1
		c0.5-0.7,1.1-1.2,1.7-1.6c0.7-0.4,1.5-0.6,2.5-0.6c2.5,0,4.5,1.8,4.5,5.7v7.8h-4v-7.2c0-1.9-0.6-3-1.9-3c-0.9,0-1.6,0.6-1.9,1.4
		c-0.1,0.3-0.2,0.7-0.2,1.1v7.7h-4v-7.4c0-1.7-0.6-2.8-1.9-2.8c-1.1,0-1.7,0.8-1.9,1.5c-0.1,0.3-0.2,0.7-0.2,1v7.7h-4V98.1z"/>
	<path class="st1" d="M116.4,98.1c0-1.6-0.1-3.1-0.1-4.2h3.6l0.2,1.8h0.1c0.5-0.8,1.9-2.1,4.1-2.1c2.7,0,4.7,1.8,4.7,5.7v7.8h-4.1
		v-7.3c0-1.7-0.6-2.9-2.1-2.9c-1.1,0-1.8,0.8-2.1,1.5c-0.1,0.2-0.2,0.6-0.2,1v7.6h-4.1V98.1z"/>
	<path class="st1" d="M136.5,90.2c0,1.1-0.9,2.1-2.2,2.1c-1.3,0-2.2-0.9-2.1-2.1c0-1.2,0.8-2.1,2.2-2.1
		C135.7,88.1,136.5,89,136.5,90.2z M132.3,107.1V93.9h4.1v13.2H132.3z"/>
	<path class="st1" d="M151.3,102.4l-1.3,4.7h-4.3l5.6-18.2h5.4l5.6,18.2h-4.4l-1.4-4.7H151.3z M155.9,99.3l-1.1-3.9
		c-0.3-1.1-0.6-2.4-0.9-3.5h-0.1c-0.3,1.1-0.5,2.5-0.8,3.5l-1.1,3.9H155.9z"/>
	<path class="st1" d="M166.7,93.9l1.1,5.4c0.3,1.4,0.5,2.8,0.8,4.3h0.1c0.3-1.5,0.6-3,1-4.3l1.4-5.4h3.2l1.3,5.3
		c0.4,1.5,0.7,3,1,4.5h0.1c0.2-1.5,0.5-3,0.8-4.5l1.1-5.2h4l-4,13.2h-3.9l-1.2-4.6c-0.3-1.3-0.6-2.5-0.8-4.1h-0.1
		c-0.2,1.6-0.5,2.9-0.9,4.1l-1.3,4.6h-3.9l-3.8-13.2H166.7z"/>
	<path class="st1" d="M191.8,107.1l-0.2-1.3h-0.1c-0.9,1.1-2.2,1.6-3.8,1.6c-2.7,0-4.3-1.9-4.3-4c0-3.4,3.1-5.1,7.7-5v-0.2
		c0-0.7-0.4-1.7-2.4-1.7c-1.3,0-2.8,0.5-3.6,1l-0.8-2.6c0.9-0.5,2.7-1.2,5.1-1.2c4.4,0,5.8,2.6,5.8,5.7v4.6c0,1.3,0.1,2.5,0.2,3.2
		H191.8z M191.3,100.9c-2.2,0-3.8,0.5-3.8,2.1c0,1.1,0.7,1.6,1.6,1.6c1,0,1.9-0.7,2.1-1.5c0.1-0.2,0.1-0.5,0.1-0.7V100.9z"/>
	<path class="st1" d="M198.6,98.2c0-1.9-0.1-3.2-0.1-4.3h3.5l0.1,2.4h0.1c0.7-1.9,2.3-2.7,3.6-2.7c0.4,0,0.6,0,0.9,0.1v3.9
		c-0.3-0.1-0.6-0.1-1.1-0.1c-1.5,0-2.5,0.8-2.8,2.1c-0.1,0.3-0.1,0.6-0.1,0.9v6.7h-4.1V98.2z"/>
	<path class="st1" d="M221.5,87.9v15.2c0,1.5,0.1,3.1,0.1,3.9H218l-0.2-1.9h-0.1c-0.8,1.5-2.4,2.2-4.1,2.2c-3.1,0-5.6-2.7-5.6-6.8
		c0-4.5,2.8-7,5.9-7c1.6,0,2.9,0.6,3.5,1.5h0.1v-7.2H221.5z M217.4,99.5c0-0.2,0-0.5-0.1-0.7c-0.2-1.1-1.1-2-2.4-2
		c-1.9,0-2.8,1.7-2.8,3.8c0,2.2,1.1,3.6,2.8,3.6c1.2,0,2.1-0.8,2.4-2c0.1-0.3,0.1-0.6,0.1-0.9V99.5z"/>
	<path class="st1" d="M232.2,89.1c1.3-0.2,3.3-0.4,5.5-0.4c2.7,0,4.6,0.4,5.9,1.4c1.1,0.9,1.7,2.1,1.7,3.8c0,2.3-1.6,3.9-3.2,4.5
		v0.1c1.3,0.5,2,1.7,2.4,3.4c0.6,2.1,1.1,4.4,1.5,5.1h-4.2c-0.3-0.5-0.7-2-1.3-4.2c-0.5-2.3-1.3-2.9-2.9-2.9h-1.2v7.2h-4.1V89.1z
		 M236.2,97h1.6c2.1,0,3.3-1,3.3-2.6c0-1.7-1.1-2.5-3-2.5c-1,0-1.6,0.1-1.9,0.1V97z"/>
	<path class="st1" d="M251.3,101.8c0.1,1.7,1.8,2.5,3.7,2.5c1.4,0,2.5-0.2,3.6-0.5l0.5,2.8c-1.3,0.5-3,0.8-4.8,0.8
		c-4.5,0-7-2.6-7-6.7c0-3.3,2.1-7,6.7-7c4.3,0,5.9,3.3,5.9,6.6c0,0.7-0.1,1.3-0.1,1.6H251.3z M256.1,99c0-1-0.4-2.7-2.3-2.7
		c-1.7,0-2.4,1.6-2.5,2.7H256.1z"/>
	<path class="st1" d="M272.3,106.8c-0.7,0.3-2.1,0.6-3.7,0.6c-4.3,0-7-2.6-7-6.7c0-3.9,2.6-7,7.6-7c1.1,0,2.3,0.2,3.1,0.5l-0.6,3
		c-0.5-0.2-1.2-0.4-2.3-0.4c-2.2,0-3.6,1.5-3.5,3.7c0,2.4,1.6,3.7,3.6,3.7c1,0,1.7-0.2,2.3-0.4L272.3,106.8z"/>
	<path class="st1" d="M278.9,90.2c0,1.1-0.9,2.1-2.2,2.1c-1.3,0-2.2-0.9-2.1-2.1c0-1.2,0.8-2.1,2.2-2.1
		C278.1,88.1,278.9,89,278.9,90.2z M274.7,107.1V93.9h4.1v13.2H274.7z"/>
	<path class="st1" d="M282.2,98.3c0-1.7-0.1-3.2-0.1-4.4h3.6l0.2,1.8h0.1c1-1.4,2.5-2.1,4.4-2.1c2.9,0,5.5,2.5,5.5,6.7
		c0,4.8-3.1,7.1-6,7.1c-1.6,0-2.8-0.6-3.4-1.5h-0.1v6.6h-4.1V98.3z M286.3,101.4c0,0.3,0,0.6,0.1,0.9c0.3,1.1,1.2,1.9,2.4,1.9
		c1.8,0,2.8-1.5,2.8-3.7c0-2.1-0.9-3.7-2.8-3.7c-1.2,0-2.2,0.9-2.5,2.1c-0.1,0.2-0.1,0.5-0.1,0.7V101.4z"/>
	<path class="st1" d="M302.6,90.2c0,1.1-0.9,2.1-2.2,2.1c-1.3,0-2.2-0.9-2.1-2.1c0-1.2,0.8-2.1,2.2-2.1
		C301.8,88.1,302.6,89,302.6,90.2z M298.4,107.1V93.9h4.1v13.2H298.4z"/>
	<path class="st1" d="M309,101.8c0.1,1.7,1.8,2.5,3.7,2.5c1.4,0,2.5-0.2,3.6-0.5l0.5,2.8c-1.3,0.5-3,0.8-4.8,0.8c-4.5,0-7-2.6-7-6.7
		c0-3.3,2.1-7,6.7-7c4.3,0,5.9,3.3,5.9,6.6c0,0.7-0.1,1.3-0.1,1.6H309z M313.8,99c0-1-0.4-2.7-2.3-2.7c-1.7,0-2.4,1.6-2.5,2.7H313.8
		z"/>
	<path class="st1" d="M320.2,98.1c0-1.6-0.1-3.1-0.1-4.2h3.6l0.2,1.8h0.1c0.5-0.8,1.9-2.1,4.1-2.1c2.7,0,4.7,1.8,4.7,5.7v7.8h-4.1
		v-7.3c0-1.7-0.6-2.9-2.1-2.9c-1.1,0-1.8,0.8-2.1,1.5c-0.1,0.2-0.2,0.6-0.2,1v7.6h-4.1V98.1z"/>
	<path class="st1" d="M340.5,90.1v3.8h2.9v3h-2.9v4.8c0,1.6,0.4,2.3,1.6,2.3c0.5,0,0.9-0.1,1.2-0.1l0,3.1c-0.5,0.2-1.5,0.4-2.7,0.4
		c-1.3,0-2.4-0.5-3.1-1.1c-0.8-0.8-1.1-2.1-1.1-3.9v-5.4h-1.8v-3h1.8V91L340.5,90.1z"/>
	<path class="st1" d="M345.8,103.5c0.8,0.5,2.3,1,3.5,1c1.2,0,1.8-0.4,1.8-1.1s-0.4-1-1.9-1.5c-2.7-0.9-3.8-2.4-3.8-4
		c0-2.5,2.1-4.3,5.4-4.3c1.5,0,2.9,0.4,3.7,0.8l-0.7,2.8c-0.6-0.3-1.7-0.8-2.9-0.8c-1,0-1.6,0.4-1.6,1.1c0,0.6,0.5,0.9,2.1,1.5
		c2.5,0.9,3.6,2.1,3.6,4.1c0,2.5-1.9,4.3-5.7,4.3c-1.7,0-3.3-0.4-4.3-0.9L345.8,103.5z"/>
</g>
<g>
	<path class="st1" d="M53.1,123.8h1.3v5.1h0c0.3-0.4,0.5-0.8,0.8-1.1l3.1-4h1.6l-3.6,4.5l3.9,6.1h-1.5l-3.3-5.2l-1,1.2v4.1h-1.3
		V123.8z"/>
	<path class="st1" d="M67.9,134.1c-0.5,0.3-1.4,0.5-2.6,0.5c-2.8,0-4.9-1.9-4.9-5.4c0-3.3,2.1-5.6,5.2-5.6c1.2,0,2,0.3,2.4,0.5
		l-0.3,1.1c-0.5-0.3-1.2-0.4-2-0.4c-2.3,0-3.9,1.6-3.9,4.4c0,2.6,1.4,4.3,3.8,4.3c0.8,0,1.6-0.2,2.1-0.4L67.9,134.1z"/>
	<path class="st1" d="M76.2,134.1c-0.5,0.3-1.4,0.5-2.6,0.5c-2.8,0-4.9-1.9-4.9-5.4c0-3.3,2.1-5.6,5.2-5.6c1.2,0,2,0.3,2.4,0.5
		l-0.3,1.1c-0.5-0.3-1.2-0.4-2-0.4c-2.3,0-3.9,1.6-3.9,4.4c0,2.6,1.4,4.3,3.8,4.3c0.8,0,1.6-0.2,2.1-0.4L76.2,134.1z"/>
	<path class="st1" d="M80.9,129.2c0-0.9,0-1.7-0.1-2.4H82l0,1.5h0.1c0.3-1,1.1-1.7,2-1.7c0.1,0,0.3,0,0.4,0v1.3c-0.1,0-0.3,0-0.4,0
		c-0.9,0-1.6,0.7-1.8,1.8c0,0.2-0.1,0.4-0.1,0.6v4.1h-1.3V129.2z"/>
	<path class="st1" d="M86.4,130.9c0,1.9,1.2,2.7,2.5,2.7c0.9,0,1.5-0.2,2-0.4l0.2,1c-0.5,0.2-1.2,0.5-2.4,0.5
		c-2.2,0-3.5-1.6-3.5-3.9c0-2.3,1.3-4.1,3.4-4.1c2.3,0,3,2.2,3,3.6c0,0.3,0,0.5,0,0.6H86.4z M90.2,129.9c0-0.9-0.3-2.3-1.8-2.3
		c-1.3,0-1.9,1.3-2,2.3H90.2z"/>
	<path class="st1" d="M98.2,134.2c-0.3,0.2-1.1,0.4-2.1,0.4c-2.2,0-3.6-1.6-3.6-3.9c0-2.4,1.5-4.1,3.9-4.1c0.8,0,1.5,0.2,1.8,0.4
		l-0.3,1.1c-0.3-0.2-0.8-0.4-1.5-0.4c-1.6,0-2.5,1.3-2.5,2.9c0,1.8,1.1,2.9,2.5,2.9c0.7,0,1.2-0.2,1.6-0.4L98.2,134.2z"/>
	<path class="st1" d="M106.2,130.6c0,2.8-1.8,4.1-3.6,4.1c-1.9,0-3.4-1.5-3.4-3.9c0-2.6,1.6-4.1,3.6-4.1
		C104.8,126.6,106.2,128.2,106.2,130.6z M100.5,130.7c0,1.7,0.9,2.9,2.2,2.9c1.2,0,2.2-1.2,2.2-3c0-1.3-0.6-2.9-2.2-2.9
		C101.1,127.7,100.5,129.2,100.5,130.7z"/>
	<path class="st1" d="M114,126.8c0,0.6-0.1,1.2-0.1,2.1v4.4c0,1.8-0.3,2.8-1,3.5c-0.7,0.7-1.7,0.9-2.6,0.9c-0.9,0-1.8-0.2-2.4-0.6
		l0.3-1.1c0.5,0.3,1.2,0.6,2.1,0.6c1.3,0,2.3-0.7,2.3-2.7v-0.9h0c-0.4,0.7-1.2,1.3-2.3,1.3c-1.8,0-3.1-1.6-3.1-3.7
		c0-2.6,1.6-4.1,3.2-4.1c1.2,0,1.9,0.7,2.2,1.3h0l0.1-1.2H114z M112.7,129.8c0-0.2,0-0.4-0.1-0.6c-0.2-0.8-0.9-1.5-1.8-1.5
		c-1.2,0-2.1,1.1-2.1,2.9c0,1.5,0.7,2.8,2.1,2.8c0.8,0,1.5-0.5,1.8-1.4c0.1-0.2,0.1-0.5,0.1-0.7V129.8z"/>
	<path class="st1" d="M116.1,128.9c0-0.8,0-1.4-0.1-2.1h1.2l0.1,1.3h0c0.4-0.7,1.2-1.4,2.4-1.4c1,0,2.5,0.6,2.5,3.3v4.6h-1.3v-4.4
		c0-1.2-0.4-2.3-1.7-2.3c-0.9,0-1.5,0.6-1.8,1.4c-0.1,0.2-0.1,0.4-0.1,0.6v4.6h-1.3V128.9z"/>
	<path class="st1" d="M125.8,124.7c0,0.5-0.3,0.9-0.8,0.9c-0.5,0-0.8-0.4-0.8-0.9c0-0.5,0.3-0.9,0.8-0.9
		C125.5,123.8,125.8,124.2,125.8,124.7z M124.3,134.5v-7.7h1.3v7.7H124.3z"/>
	<path class="st1" d="M127,133.7l3.3-4.5c0.3-0.4,0.6-0.8,0.9-1.2v0h-3.9v-1.1h5.5l0,0.9l-3.2,4.4c-0.3,0.4-0.6,0.8-0.9,1.2v0h4.2
		v1.1H127V133.7z"/>
	<path class="st1" d="M134.8,130.9c0,1.9,1.2,2.7,2.5,2.7c0.9,0,1.5-0.2,2-0.4l0.2,1c-0.5,0.2-1.2,0.5-2.4,0.5
		c-2.2,0-3.5-1.6-3.5-3.9c0-2.3,1.3-4.1,3.4-4.1c2.3,0,3,2.2,3,3.6c0,0.3,0,0.5,0,0.6H134.8z M138.6,129.9c0-0.9-0.3-2.3-1.8-2.3
		c-1.3,0-1.9,1.3-2,2.3H138.6z"/>
	<path class="st1" d="M141.3,133c0.4,0.3,1.1,0.6,1.7,0.6c1,0,1.4-0.5,1.4-1.1c0-0.7-0.4-1-1.3-1.4c-1.3-0.5-1.9-1.2-1.9-2.2
		c0-1.2,0.9-2.2,2.5-2.2c0.7,0,1.4,0.2,1.8,0.5l-0.3,1c-0.3-0.2-0.8-0.4-1.5-0.4c-0.8,0-1.2,0.5-1.2,1c0,0.6,0.4,0.9,1.4,1.3
		c1.2,0.5,1.9,1.2,1.9,2.3c0,1.3-1,2.3-2.7,2.3c-0.8,0-1.5-0.2-2-0.5L141.3,133z"/>
	<path class="st1" d="M152.1,124.6v2.2h1.9v1.1h-1.9v4.1c0,1,0.3,1.5,1,1.5c0.3,0,0.6,0,0.8-0.1l0.1,1c-0.3,0.1-0.7,0.2-1.2,0.2
		c-0.6,0-1.1-0.2-1.4-0.6c-0.4-0.4-0.5-1.1-0.5-2v-4.2h-1.1v-1.1h1.1V125L152.1,124.6z"/>
	<path class="st1" d="M155.5,123.2h1.3v4.8h0c0.2-0.4,0.5-0.7,0.9-1c0.4-0.2,0.8-0.4,1.3-0.4c1,0,2.5,0.6,2.5,3.3v4.6h-1.3v-4.4
		c0-1.2-0.4-2.3-1.7-2.3c-0.8,0-1.5,0.6-1.8,1.4c-0.1,0.2-0.1,0.4-0.1,0.7v4.6h-1.3V123.2z"/>
	<path class="st1" d="M164.5,130.9c0,1.9,1.2,2.7,2.5,2.7c0.9,0,1.5-0.2,2-0.4l0.2,1c-0.5,0.2-1.2,0.5-2.4,0.5
		c-2.2,0-3.5-1.6-3.5-3.9c0-2.3,1.3-4.1,3.4-4.1c2.3,0,3,2.2,3,3.6c0,0.3,0,0.5,0,0.6H164.5z M168.3,129.9c0-0.9-0.3-2.3-1.8-2.3
		c-1.3,0-1.9,1.3-2,2.3H168.3z"/>
	<path class="st1" d="M171,133c0.4,0.3,1.1,0.6,1.7,0.6c1,0,1.4-0.5,1.4-1.1c0-0.7-0.4-1-1.3-1.4c-1.3-0.5-1.9-1.2-1.9-2.2
		c0-1.2,0.9-2.2,2.5-2.2c0.7,0,1.4,0.2,1.8,0.5l-0.3,1c-0.3-0.2-0.8-0.4-1.5-0.4c-0.8,0-1.2,0.5-1.2,1c0,0.6,0.4,0.9,1.4,1.3
		c1.2,0.5,1.9,1.2,1.9,2.3c0,1.3-1,2.3-2.7,2.3c-0.8,0-1.5-0.2-2-0.5L171,133z"/>
	<path class="st1" d="M177.8,130.9c0,1.9,1.2,2.7,2.5,2.7c0.9,0,1.5-0.2,2-0.4l0.2,1c-0.5,0.2-1.2,0.5-2.4,0.5
		c-2.2,0-3.5-1.6-3.5-3.9c0-2.3,1.3-4.1,3.4-4.1c2.3,0,3,2.2,3,3.6c0,0.3,0,0.5,0,0.6H177.8z M181.6,129.9c0-0.9-0.3-2.3-1.8-2.3
		c-1.3,0-1.9,1.3-2,2.3H181.6z"/>
	<path class="st1" d="M191.6,134.5l-0.1-1h0c-0.4,0.6-1.2,1.1-2.2,1.1c-1.5,0-2.2-1.1-2.2-2.2c0-1.9,1.5-2.9,4.3-2.8v-0.2
		c0-0.6-0.2-1.8-1.6-1.8c-0.7,0-1.4,0.2-1.9,0.6l-0.3-0.9c0.6-0.4,1.5-0.7,2.4-0.7c2.2,0,2.7,1.6,2.7,3.1v2.9c0,0.7,0,1.3,0.1,1.8
		H191.6z M191.5,130.6c-1.4,0-3,0.2-3,1.7c0,0.9,0.6,1.3,1.2,1.3c0.9,0,1.5-0.6,1.7-1.3c0-0.1,0.1-0.3,0.1-0.4V130.6z"/>
	<path class="st1" d="M194.8,123.2h1.3v11.2h-1.3V123.2z"/>
	<path class="st1" d="M204.4,132.4c0,0.8,0,1.5,0.1,2.1h-1.2l-0.1-1.2h0c-0.3,0.6-1.1,1.4-2.4,1.4c-1.1,0-2.5-0.7-2.5-3.4v-4.5h1.3
		v4.2c0,1.5,0.4,2.4,1.6,2.4c0.9,0,1.5-0.6,1.7-1.3c0.1-0.2,0.1-0.5,0.1-0.7v-4.7h1.3V132.4z"/>
	<path class="st1" d="M206.5,128.9c0-0.8,0-1.4-0.1-2.1h1.1l0.1,1.2h0c0.4-0.7,1.1-1.4,2.3-1.4c1,0,1.7,0.6,2,1.5h0
		c0.2-0.4,0.5-0.8,0.8-1c0.4-0.3,0.9-0.5,1.6-0.5c1,0,2.4,0.7,2.4,3.3v4.5h-1.3v-4.3c0-1.5-0.5-2.4-1.6-2.4c-0.7,0-1.3,0.6-1.5,1.3
		c-0.1,0.2-0.1,0.4-0.1,0.7v4.7H211v-4.6c0-1.2-0.5-2.1-1.5-2.1c-0.8,0-1.4,0.7-1.6,1.4c-0.1,0.2-0.1,0.4-0.1,0.7v4.6h-1.3V128.9z"
		/>
	<path class="st1" d="M218.9,128.9c0-0.8,0-1.4-0.1-2.1h1.2l0.1,1.3h0c0.4-0.7,1.2-1.4,2.4-1.4c1,0,2.5,0.6,2.5,3.3v4.6h-1.3v-4.4
		c0-1.2-0.4-2.3-1.7-2.3c-0.9,0-1.5,0.6-1.8,1.4c-0.1,0.2-0.1,0.4-0.1,0.6v4.6h-1.3V128.9z"/>
	<path class="st1" d="M228.6,124.7c0,0.5-0.3,0.9-0.8,0.9c-0.5,0-0.8-0.4-0.8-0.9c0-0.5,0.3-0.9,0.8-0.9
		C228.3,123.8,228.6,124.2,228.6,124.7z M227.2,134.5v-7.7h1.3v7.7H227.2z"/>
	<path class="st1" d="M233.9,134.5v-6.6h-1v-1.1h1v-0.4c0-1.1,0.2-2.1,0.8-2.7c0.5-0.5,1.1-0.7,1.8-0.7c0.5,0,0.9,0.1,1.1,0.2
		l-0.2,1.1c-0.2-0.1-0.5-0.2-0.8-0.2c-1.1,0-1.4,1-1.4,2.2v0.4h1.7v1.1h-1.7v6.6H233.9z"/>
	<path class="st1" d="M244.5,130.6c0,2.8-1.8,4.1-3.6,4.1c-1.9,0-3.4-1.5-3.4-3.9c0-2.6,1.6-4.1,3.6-4.1
		C243.1,126.6,244.5,128.2,244.5,130.6z M238.8,130.7c0,1.7,0.9,2.9,2.2,2.9c1.2,0,2.2-1.2,2.2-3c0-1.3-0.6-2.9-2.2-2.9
		C239.4,127.7,238.8,129.2,238.8,130.7z"/>
	<path class="st1" d="M246.1,129.2c0-0.9,0-1.7-0.1-2.4h1.1l0,1.5h0.1c0.3-1,1.1-1.7,2-1.7c0.1,0,0.3,0,0.4,0v1.3
		c-0.1,0-0.3,0-0.4,0c-0.9,0-1.6,0.7-1.8,1.8c0,0.2-0.1,0.4-0.1,0.6v4.1h-1.3V129.2z"/>
	<path class="st1" d="M255.7,124.6v2.2h1.9v1.1h-1.9v4.1c0,1,0.3,1.5,1,1.5c0.3,0,0.6,0,0.8-0.1l0.1,1c-0.3,0.1-0.7,0.2-1.2,0.2
		c-0.6,0-1.1-0.2-1.4-0.6c-0.4-0.4-0.5-1.1-0.5-2v-4.2h-1.1v-1.1h1.1V125L255.7,124.6z"/>
	<path class="st1" d="M259.1,123.2h1.3v4.8h0c0.2-0.4,0.5-0.7,0.9-1c0.4-0.2,0.8-0.4,1.3-0.4c1,0,2.5,0.6,2.5,3.3v4.6h-1.3v-4.4
		c0-1.2-0.4-2.3-1.7-2.3c-0.8,0-1.5,0.6-1.8,1.4c-0.1,0.2-0.1,0.4-0.1,0.7v4.6h-1.3V123.2z"/>
	<path class="st1" d="M268.1,130.9c0,1.9,1.2,2.7,2.5,2.7c0.9,0,1.5-0.2,2-0.4l0.2,1c-0.5,0.2-1.2,0.5-2.4,0.5
		c-2.2,0-3.5-1.6-3.5-3.9c0-2.3,1.3-4.1,3.4-4.1c2.3,0,3,2.2,3,3.6c0,0.3,0,0.5,0,0.6H268.1z M271.9,129.9c0-0.9-0.3-2.3-1.8-2.3
		c-1.3,0-1.9,1.3-2,2.3H271.9z"/>
	<path class="st1" d="M276.2,124.7c0,0.5-0.3,0.9-0.8,0.9c-0.5,0-0.8-0.4-0.8-0.9c0-0.5,0.3-0.9,0.8-0.9
		C275.9,123.8,276.2,124.2,276.2,124.7z M274.8,134.5v-7.7h1.3v7.7H274.8z"/>
	<path class="st1" d="M278.3,129.2c0-0.9,0-1.7-0.1-2.4h1.1l0,1.5h0.1c0.3-1,1.1-1.7,2-1.7c0.1,0,0.3,0,0.4,0v1.3
		c-0.1,0-0.3,0-0.4,0c-0.9,0-1.6,0.7-1.8,1.8c0,0.2-0.1,0.4-0.1,0.6v4.1h-1.3V129.2z"/>
	<path class="st1" d="M292.5,123.2v9.3c0,0.7,0,1.5,0.1,2h-1.2l-0.1-1.3h0c-0.4,0.9-1.3,1.5-2.5,1.5c-1.7,0-3.1-1.6-3.1-3.9
		c0-2.5,1.5-4.1,3.2-4.1c1.1,0,1.8,0.6,2.2,1.2h0v-4.6H292.5z M291.2,129.9c0-0.2,0-0.4-0.1-0.6c-0.2-0.9-0.9-1.6-1.9-1.6
		c-1.4,0-2.2,1.3-2.2,3c0,1.6,0.7,2.8,2.1,2.8c0.9,0,1.7-0.6,1.9-1.7c0-0.2,0.1-0.4,0.1-0.6V129.9z"/>
	<path class="st1" d="M296.1,124.7c0,0.5-0.3,0.9-0.8,0.9c-0.5,0-0.8-0.4-0.8-0.9c0-0.5,0.3-0.9,0.8-0.9
		C295.8,123.8,296.1,124.2,296.1,124.7z M294.7,134.5v-7.7h1.3v7.7H294.7z"/>
	<path class="st1" d="M298,133c0.4,0.3,1.1,0.6,1.7,0.6c1,0,1.4-0.5,1.4-1.1c0-0.7-0.4-1-1.3-1.4c-1.3-0.5-1.9-1.2-1.9-2.2
		c0-1.2,0.9-2.2,2.5-2.2c0.7,0,1.4,0.2,1.8,0.5l-0.3,1c-0.3-0.2-0.8-0.4-1.5-0.4c-0.8,0-1.2,0.5-1.2,1c0,0.6,0.4,0.9,1.4,1.3
		c1.2,0.5,1.9,1.2,1.9,2.3c0,1.3-1,2.3-2.7,2.3c-0.8,0-1.5-0.2-2-0.5L298,133z"/>
	<path class="st1" d="M305.6,124.6v2.2h1.9v1.1h-1.9v4.1c0,1,0.3,1.5,1,1.5c0.3,0,0.6,0,0.8-0.1l0.1,1c-0.3,0.1-0.7,0.2-1.2,0.2
		c-0.6,0-1.1-0.2-1.4-0.6c-0.4-0.4-0.5-1.1-0.5-2v-4.2h-1.1v-1.1h1.1V125L305.6,124.6z"/>
	<path class="st1" d="M310.4,124.7c0,0.5-0.3,0.9-0.8,0.9c-0.5,0-0.8-0.4-0.8-0.9c0-0.5,0.3-0.9,0.8-0.9
		C310.1,123.8,310.4,124.2,310.4,124.7z M308.9,134.5v-7.7h1.3v7.7H308.9z"/>
	<path class="st1" d="M312.4,128.9c0-0.8,0-1.4-0.1-2.1h1.2l0.1,1.3h0c0.4-0.7,1.2-1.4,2.4-1.4c1,0,2.5,0.6,2.5,3.3v4.6h-1.3v-4.4
		c0-1.2-0.4-2.3-1.7-2.3c-0.9,0-1.5,0.6-1.8,1.4c-0.1,0.2-0.1,0.4-0.1,0.6v4.6h-1.3V128.9z"/>
	<path class="st1" d="M326.9,126.8c0,0.6-0.1,1.2-0.1,2.1v4.4c0,1.8-0.3,2.8-1,3.5c-0.7,0.7-1.7,0.9-2.6,0.9c-0.9,0-1.8-0.2-2.4-0.6
		l0.3-1.1c0.5,0.3,1.2,0.6,2.1,0.6c1.3,0,2.3-0.7,2.3-2.7v-0.9h0c-0.4,0.7-1.2,1.3-2.3,1.3c-1.8,0-3.1-1.6-3.1-3.7
		c0-2.6,1.6-4.1,3.2-4.1c1.2,0,1.9,0.7,2.2,1.3h0l0.1-1.2H326.9z M325.5,129.8c0-0.2,0-0.4-0.1-0.6c-0.2-0.8-0.9-1.5-1.8-1.5
		c-1.2,0-2.1,1.1-2.1,2.9c0,1.5,0.7,2.8,2.1,2.8c0.8,0,1.5-0.5,1.8-1.4c0.1-0.2,0.1-0.5,0.1-0.7V129.8z"/>
	<path class="st1" d="M335,132.4c0,0.8,0,1.5,0.1,2.1h-1.2l-0.1-1.2h0c-0.3,0.6-1.1,1.4-2.4,1.4c-1.1,0-2.5-0.7-2.5-3.4v-4.5h1.3
		v4.2c0,1.5,0.4,2.4,1.6,2.4c0.9,0,1.5-0.6,1.7-1.3c0.1-0.2,0.1-0.5,0.1-0.7v-4.7h1.3V132.4z"/>
	<path class="st1" d="M338.6,124.7c0,0.5-0.3,0.9-0.8,0.9c-0.5,0-0.8-0.4-0.8-0.9c0-0.5,0.3-0.9,0.8-0.9
		C338.3,123.8,338.6,124.2,338.6,124.7z M337.2,134.5v-7.7h1.3v7.7H337.2z"/>
	<path class="st1" d="M340.5,133c0.4,0.3,1.1,0.6,1.7,0.6c1,0,1.4-0.5,1.4-1.1c0-0.7-0.4-1-1.3-1.4c-1.3-0.5-1.9-1.2-1.9-2.2
		c0-1.2,0.9-2.2,2.5-2.2c0.7,0,1.4,0.2,1.8,0.5l-0.3,1c-0.3-0.2-0.8-0.4-1.5-0.4c-0.8,0-1.2,0.5-1.2,1c0,0.6,0.4,0.9,1.4,1.3
		c1.2,0.5,1.9,1.2,1.9,2.3c0,1.3-1,2.3-2.7,2.3c-0.8,0-1.5-0.2-2-0.5L340.5,133z"/>
	<path class="st1" d="M346.5,123.2h1.3v4.8h0c0.2-0.4,0.5-0.7,0.9-1c0.4-0.2,0.8-0.4,1.3-0.4c1,0,2.5,0.6,2.5,3.3v4.6h-1.3v-4.4
		c0-1.2-0.4-2.3-1.7-2.3c-0.8,0-1.5,0.6-1.8,1.4c-0.1,0.2-0.1,0.4-0.1,0.7v4.6h-1.3V123.2z"/>
	<path class="st1" d="M355.5,130.9c0,1.9,1.2,2.7,2.5,2.7c0.9,0,1.5-0.2,2-0.4l0.2,1c-0.5,0.2-1.2,0.5-2.4,0.5
		c-2.2,0-3.5-1.6-3.5-3.9c0-2.3,1.3-4.1,3.4-4.1c2.3,0,3,2.2,3,3.6c0,0.3,0,0.5,0,0.6H355.5z M359.4,129.9c0-0.9-0.3-2.3-1.8-2.3
		c-1.3,0-1.9,1.3-2,2.3H359.4z"/>
	<path class="st1" d="M368.5,123.2v9.3c0,0.7,0,1.5,0.1,2h-1.2l-0.1-1.3h0c-0.4,0.9-1.3,1.5-2.5,1.5c-1.7,0-3.1-1.6-3.1-3.9
		c0-2.5,1.5-4.1,3.2-4.1c1.1,0,1.8,0.6,2.2,1.2h0v-4.6H368.5z M367.1,129.9c0-0.2,0-0.4-0.1-0.6c-0.2-0.9-0.9-1.6-1.9-1.6
		c-1.4,0-2.2,1.3-2.2,3c0,1.6,0.7,2.8,2.1,2.8c0.9,0,1.7-0.6,1.9-1.7c0-0.2,0.1-0.4,0.1-0.6V129.9z"/>
</g>
<g>
	<path class="st1" d="M53.7,148.7c0-1,0-1.8-0.1-2.5h1.2l0.1,1.3h0c0.5-0.9,1.4-1.5,2.6-1.5c1.7,0,3,1.6,3,3.9
		c0,2.8-1.6,4.1-3.3,4.1c-1,0-1.8-0.4-2.2-1.2h0v4.2h-1.3V148.7z M55,150.7c0,0.2,0,0.4,0.1,0.6c0.2,1,1,1.6,2,1.6
		c1.4,0,2.2-1.2,2.2-3c0-1.5-0.8-2.8-2.1-2.8c-0.9,0-1.7,0.7-2,1.7c0,0.2-0.1,0.4-0.1,0.6V150.7z"/>
	<path class="st1" d="M62.9,150.3c0,1.9,1.2,2.7,2.5,2.7c0.9,0,1.5-0.2,2-0.4l0.2,1c-0.5,0.2-1.2,0.5-2.4,0.5
		c-2.2,0-3.5-1.6-3.5-3.9c0-2.3,1.3-4.1,3.4-4.1c2.3,0,3,2.2,3,3.6c0,0.3,0,0.5,0,0.6H62.9z M66.8,149.3c0-0.9-0.3-2.3-1.8-2.3
		c-1.3,0-1.9,1.3-2,2.3H66.8z"/>
	<path class="st1" d="M69.6,148.6c0-0.9,0-1.7-0.1-2.4h1.1l0,1.5h0.1c0.3-1,1.1-1.7,2-1.7c0.1,0,0.3,0,0.4,0v1.3c-0.1,0-0.3,0-0.4,0
		c-0.9,0-1.6,0.7-1.8,1.8c0,0.2-0.1,0.4-0.1,0.6v4.1h-1.3V148.6z"/>
	<path class="st1" d="M74.3,152.4c0.4,0.3,1.1,0.6,1.7,0.6c1,0,1.4-0.5,1.4-1.1c0-0.7-0.4-1-1.3-1.4c-1.3-0.5-1.9-1.2-1.9-2.2
		c0-1.2,0.9-2.2,2.5-2.2c0.7,0,1.4,0.2,1.8,0.5l-0.3,1c-0.3-0.2-0.8-0.4-1.5-0.4c-0.8,0-1.2,0.5-1.2,1c0,0.6,0.4,0.9,1.4,1.3
		c1.2,0.5,1.9,1.2,1.9,2.3c0,1.3-1,2.3-2.7,2.3c-0.8,0-1.5-0.2-2-0.5L74.3,152.4z"/>
	<path class="st1" d="M86.9,150c0,2.8-1.8,4.1-3.6,4.1c-1.9,0-3.4-1.5-3.4-3.9c0-2.6,1.6-4.1,3.6-4.1C85.5,146,86.9,147.6,86.9,150z
		 M81.2,150c0,1.7,0.9,2.9,2.2,2.9c1.2,0,2.2-1.2,2.2-3c0-1.3-0.6-2.9-2.2-2.9C81.9,147.1,81.2,148.6,81.2,150z"/>
	<path class="st1" d="M88.5,148.3c0-0.8,0-1.4-0.1-2.1h1.2l0.1,1.3h0c0.4-0.7,1.2-1.4,2.4-1.4c1,0,2.5,0.6,2.5,3.3v4.6h-1.3v-4.4
		c0-1.2-0.4-2.3-1.7-2.3c-0.9,0-1.5,0.6-1.8,1.4c-0.1,0.2-0.1,0.4-0.1,0.6v4.6h-1.3V148.3z"/>
	<path class="st1" d="M100.8,153.8l-0.1-1h0c-0.4,0.6-1.2,1.1-2.2,1.1c-1.5,0-2.2-1.1-2.2-2.2c0-1.9,1.5-2.9,4.3-2.8v-0.2
		c0-0.6-0.2-1.8-1.6-1.8c-0.7,0-1.4,0.2-1.9,0.6l-0.3-0.9c0.6-0.4,1.5-0.7,2.4-0.7c2.2,0,2.7,1.6,2.7,3.1v2.9c0,0.7,0,1.3,0.1,1.8
		H100.8z M100.6,149.9c-1.4,0-3,0.2-3,1.7c0,0.9,0.6,1.3,1.2,1.3c0.9,0,1.5-0.6,1.7-1.3c0-0.1,0.1-0.3,0.1-0.4V149.9z"/>
	<path class="st1" d="M104,142.6h1.3v11.2H104V142.6z"/>
	<path class="st1" d="M114.6,153.8l-0.1-1h0c-0.4,0.6-1.2,1.1-2.2,1.1c-1.5,0-2.2-1.1-2.2-2.2c0-1.9,1.5-2.9,4.3-2.8v-0.2
		c0-0.6-0.2-1.8-1.6-1.8c-0.7,0-1.4,0.2-1.9,0.6l-0.3-0.9c0.6-0.4,1.5-0.7,2.4-0.7c2.2,0,2.7,1.6,2.7,3.1v2.9c0,0.7,0,1.3,0.1,1.8
		H114.6z M114.4,149.9c-1.4,0-3,0.2-3,1.7c0,0.9,0.6,1.3,1.2,1.3c0.9,0,1.5-0.6,1.7-1.3c0-0.1,0.1-0.3,0.1-0.4V149.9z"/>
	<path class="st1" d="M117.8,148.3c0-0.8,0-1.4-0.1-2.1h1.2l0.1,1.3h0c0.4-0.7,1.2-1.4,2.4-1.4c1,0,2.5,0.6,2.5,3.3v4.6h-1.3v-4.4
		c0-1.2-0.4-2.3-1.7-2.3c-0.9,0-1.5,0.6-1.8,1.4c-0.1,0.2-0.1,0.4-0.1,0.6v4.6h-1.3V148.3z"/>
	<path class="st1" d="M132.3,142.6v9.3c0,0.7,0,1.5,0.1,2h-1.2l-0.1-1.3h0c-0.4,0.9-1.3,1.5-2.5,1.5c-1.7,0-3.1-1.6-3.1-3.9
		c0-2.5,1.5-4.1,3.2-4.1c1.1,0,1.8,0.6,2.2,1.2h0v-4.6H132.3z M131,149.3c0-0.2,0-0.4-0.1-0.6c-0.2-0.9-0.9-1.6-1.9-1.6
		c-1.4,0-2.2,1.3-2.2,3c0,1.6,0.7,2.8,2.1,2.8c0.9,0,1.7-0.6,1.9-1.7c0-0.2,0.1-0.4,0.1-0.6V149.3z"/>
	<path class="st1" d="M142.7,153.6c-0.3,0.2-1.1,0.4-2.1,0.4c-2.2,0-3.6-1.6-3.6-3.9c0-2.4,1.5-4.1,3.9-4.1c0.8,0,1.5,0.2,1.8,0.4
		l-0.3,1.1c-0.3-0.2-0.8-0.4-1.5-0.4c-1.6,0-2.5,1.3-2.5,2.9c0,1.8,1.1,2.9,2.5,2.9c0.7,0,1.2-0.2,1.6-0.4L142.7,153.6z"/>
	<path class="st1" d="M148.2,153.8l-0.1-1h0c-0.4,0.6-1.2,1.1-2.2,1.1c-1.5,0-2.2-1.1-2.2-2.2c0-1.9,1.5-2.9,4.3-2.8v-0.2
		c0-0.6-0.2-1.8-1.6-1.8c-0.7,0-1.4,0.2-1.9,0.6l-0.3-0.9c0.6-0.4,1.5-0.7,2.4-0.7c2.2,0,2.7,1.6,2.7,3.1v2.9c0,0.7,0,1.3,0.1,1.8
		H148.2z M148,149.9c-1.4,0-3,0.2-3,1.7c0,0.9,0.6,1.3,1.2,1.3c0.9,0,1.5-0.6,1.7-1.3c0-0.1,0.1-0.3,0.1-0.4V149.9z"/>
	<path class="st1" d="M151.4,148.6c0-0.9,0-1.7-0.1-2.4h1.1l0,1.5h0.1c0.3-1,1.1-1.7,2-1.7c0.1,0,0.3,0,0.4,0v1.3
		c-0.1,0-0.3,0-0.4,0c-0.9,0-1.6,0.7-1.8,1.8c0,0.2-0.1,0.4-0.1,0.6v4.1h-1.3V148.6z"/>
	<path class="st1" d="M156.9,150.3c0,1.9,1.2,2.7,2.5,2.7c0.9,0,1.5-0.2,2-0.4l0.2,1c-0.5,0.2-1.2,0.5-2.4,0.5
		c-2.2,0-3.5-1.6-3.5-3.9c0-2.3,1.3-4.1,3.4-4.1c2.3,0,3,2.2,3,3.6c0,0.3,0,0.5,0,0.6H156.9z M160.7,149.3c0-0.9-0.3-2.3-1.8-2.3
		c-1.3,0-1.9,1.3-2,2.3H160.7z"/>
	<path class="st1" d="M164.3,150.3c0,1.9,1.2,2.7,2.5,2.7c0.9,0,1.5-0.2,2-0.4l0.2,1c-0.5,0.2-1.2,0.5-2.4,0.5
		c-2.2,0-3.5-1.6-3.5-3.9c0-2.3,1.3-4.1,3.4-4.1c2.3,0,3,2.2,3,3.6c0,0.3,0,0.5,0,0.6H164.3z M168.1,149.3c0-0.9-0.3-2.3-1.8-2.3
		c-1.3,0-1.9,1.3-2,2.3H168.1z"/>
	<path class="st1" d="M171,148.6c0-0.9,0-1.7-0.1-2.4h1.1l0,1.5h0.1c0.3-1,1.1-1.7,2-1.7c0.1,0,0.3,0,0.4,0v1.3c-0.1,0-0.3,0-0.4,0
		c-0.9,0-1.6,0.7-1.8,1.8c0,0.2-0.1,0.4-0.1,0.6v4.1H171V148.6z"/>
	<path class="st1" d="M183,153.8l-0.1-1h0c-0.4,0.6-1.2,1.1-2.2,1.1c-1.5,0-2.2-1.1-2.2-2.2c0-1.9,1.5-2.9,4.3-2.8v-0.2
		c0-0.6-0.2-1.8-1.6-1.8c-0.7,0-1.4,0.2-1.9,0.6l-0.3-0.9c0.6-0.4,1.5-0.7,2.4-0.7c2.2,0,2.7,1.6,2.7,3.1v2.9c0,0.7,0,1.3,0.1,1.8
		H183z M182.8,149.9c-1.4,0-3,0.2-3,1.7c0,0.9,0.6,1.3,1.2,1.3c0.9,0,1.5-0.6,1.7-1.3c0-0.1,0.1-0.3,0.1-0.4V149.9z"/>
	<path class="st1" d="M191.3,153.6c-0.3,0.2-1.1,0.4-2.1,0.4c-2.2,0-3.6-1.6-3.6-3.9c0-2.4,1.5-4.1,3.9-4.1c0.8,0,1.5,0.2,1.8,0.4
		l-0.3,1.1c-0.3-0.2-0.8-0.4-1.5-0.4c-1.6,0-2.5,1.3-2.5,2.9c0,1.8,1.1,2.9,2.5,2.9c0.7,0,1.2-0.2,1.6-0.4L191.3,153.6z"/>
	<path class="st1" d="M197.9,153.6c-0.3,0.2-1.1,0.4-2.1,0.4c-2.2,0-3.6-1.6-3.6-3.9c0-2.4,1.5-4.1,3.9-4.1c0.8,0,1.5,0.2,1.8,0.4
		l-0.3,1.1c-0.3-0.2-0.8-0.4-1.5-0.4c-1.6,0-2.5,1.3-2.5,2.9c0,1.8,1.1,2.9,2.5,2.9c0.7,0,1.2-0.2,1.6-0.4L197.9,153.6z"/>
	<path class="st1" d="M205.9,150c0,2.8-1.8,4.1-3.6,4.1c-1.9,0-3.4-1.5-3.4-3.9c0-2.6,1.6-4.1,3.6-4.1
		C204.5,146,205.9,147.6,205.9,150z M200.2,150c0,1.7,0.9,2.9,2.2,2.9c1.2,0,2.2-1.2,2.2-3c0-1.3-0.6-2.9-2.2-2.9
		C200.8,147.1,200.2,148.6,200.2,150z"/>
	<path class="st1" d="M207.5,148.3c0-0.8,0-1.4-0.1-2.1h1.1l0.1,1.2h0c0.4-0.7,1.1-1.4,2.3-1.4c1,0,1.7,0.6,2,1.5h0
		c0.2-0.4,0.5-0.8,0.8-1c0.4-0.3,0.9-0.5,1.6-0.5c1,0,2.4,0.7,2.4,3.3v4.5h-1.3v-4.3c0-1.5-0.5-2.4-1.6-2.4c-0.7,0-1.3,0.6-1.5,1.3
		c-0.1,0.2-0.1,0.4-0.1,0.7v4.7H212v-4.6c0-1.2-0.5-2.1-1.5-2.1c-0.8,0-1.4,0.7-1.6,1.4c-0.1,0.2-0.1,0.4-0.1,0.7v4.6h-1.3V148.3z"
		/>
	<path class="st1" d="M219.9,148.7c0-1,0-1.8-0.1-2.5h1.2l0.1,1.3h0c0.5-0.9,1.4-1.5,2.6-1.5c1.7,0,3,1.6,3,3.9
		c0,2.8-1.6,4.1-3.3,4.1c-1,0-1.8-0.4-2.2-1.2h0v4.2h-1.3V148.7z M221.2,150.7c0,0.2,0,0.4,0.1,0.6c0.2,1,1,1.6,2,1.6
		c1.4,0,2.2-1.2,2.2-3c0-1.5-0.8-2.8-2.1-2.8c-0.9,0-1.7,0.7-2,1.7c0,0.2-0.1,0.4-0.1,0.6V150.7z"/>
	<path class="st1" d="M228.4,142.6h1.3v11.2h-1.3V142.6z"/>
	<path class="st1" d="M233.3,144c0,0.5-0.3,0.9-0.8,0.9c-0.5,0-0.8-0.4-0.8-0.9c0-0.5,0.3-0.9,0.8-0.9
		C233,143.2,233.3,143.5,233.3,144z M231.9,153.8v-7.7h1.3v7.7H231.9z"/>
	<path class="st1" d="M235.2,152.4c0.4,0.3,1.1,0.6,1.7,0.6c1,0,1.4-0.5,1.4-1.1c0-0.7-0.4-1-1.3-1.4c-1.3-0.5-1.9-1.2-1.9-2.2
		c0-1.2,0.9-2.2,2.5-2.2c0.7,0,1.4,0.2,1.8,0.5l-0.3,1c-0.3-0.2-0.8-0.4-1.5-0.4c-0.8,0-1.2,0.5-1.2,1c0,0.6,0.4,0.9,1.4,1.3
		c1.2,0.5,1.9,1.2,1.9,2.3c0,1.3-1,2.3-2.7,2.3c-0.8,0-1.5-0.2-2-0.5L235.2,152.4z"/>
	<path class="st1" d="M241.3,142.6h1.3v4.8h0c0.2-0.4,0.5-0.7,0.9-1c0.4-0.2,0.8-0.4,1.3-0.4c1,0,2.5,0.6,2.5,3.3v4.6h-1.3v-4.4
		c0-1.2-0.4-2.3-1.7-2.3c-0.8,0-1.5,0.6-1.8,1.4c-0.1,0.2-0.1,0.4-0.1,0.7v4.6h-1.3V142.6z"/>
	<path class="st1" d="M249.5,148.3c0-0.8,0-1.4-0.1-2.1h1.1l0.1,1.2h0c0.4-0.7,1.1-1.4,2.3-1.4c1,0,1.7,0.6,2,1.5h0
		c0.2-0.4,0.5-0.8,0.8-1c0.4-0.3,0.9-0.5,1.6-0.5c1,0,2.4,0.7,2.4,3.3v4.5h-1.3v-4.3c0-1.5-0.5-2.4-1.6-2.4c-0.7,0-1.3,0.6-1.5,1.3
		c-0.1,0.2-0.1,0.4-0.1,0.7v4.7H254v-4.6c0-1.2-0.5-2.1-1.5-2.1c-0.8,0-1.4,0.7-1.6,1.4c-0.1,0.2-0.1,0.4-0.1,0.7v4.6h-1.3V148.3z"
		/>
	<path class="st1" d="M262.6,150.3c0,1.9,1.2,2.7,2.5,2.7c0.9,0,1.5-0.2,2-0.4l0.2,1c-0.5,0.2-1.2,0.5-2.4,0.5
		c-2.2,0-3.5-1.6-3.5-3.9c0-2.3,1.3-4.1,3.4-4.1c2.3,0,3,2.2,3,3.6c0,0.3,0,0.5,0,0.6H262.6z M266.5,149.3c0-0.9-0.3-2.3-1.8-2.3
		c-1.3,0-1.9,1.3-2,2.3H266.5z"/>
	<path class="st1" d="M269.4,148.3c0-0.8,0-1.4-0.1-2.1h1.2l0.1,1.3h0c0.4-0.7,1.2-1.4,2.4-1.4c1,0,2.5,0.6,2.5,3.3v4.6h-1.3v-4.4
		c0-1.2-0.4-2.3-1.7-2.3c-0.9,0-1.5,0.6-1.8,1.4c-0.1,0.2-0.1,0.4-0.1,0.6v4.6h-1.3V148.3z"/>
	<path class="st1" d="M279.1,144v2.2h1.9v1.1h-1.9v4.1c0,0.9,0.3,1.5,1,1.5c0.3,0,0.6,0,0.8-0.1l0.1,1c-0.3,0.1-0.7,0.2-1.2,0.2
		c-0.6,0-1.1-0.2-1.4-0.6c-0.4-0.4-0.5-1.1-0.5-2v-4.2h-1.1v-1.1h1.1v-1.8L279.1,144z"/>
	<path class="st1" d="M282.3,152.4c0.4,0.3,1.1,0.6,1.7,0.6c1,0,1.4-0.5,1.4-1.1c0-0.7-0.4-1-1.3-1.4c-1.3-0.5-1.9-1.2-1.9-2.2
		c0-1.2,0.9-2.2,2.5-2.2c0.7,0,1.4,0.2,1.8,0.5l-0.3,1c-0.3-0.2-0.8-0.4-1.5-0.4c-0.8,0-1.2,0.5-1.2,1c0,0.6,0.4,0.9,1.4,1.3
		c1.2,0.5,1.9,1.2,1.9,2.3c0,1.3-1,2.3-2.7,2.3c-0.8,0-1.5-0.2-2-0.5L282.3,152.4z"/>
	<path class="st1" d="M287.4,155.8c0.3-0.9,0.7-2.6,0.9-3.8l1.5-0.2c-0.3,1.3-1,3.1-1.4,3.8L287.4,155.8z"/>
	<path class="st1" d="M298.4,153.8l-0.1-1h0c-0.4,0.6-1.2,1.1-2.2,1.1c-1.5,0-2.2-1.1-2.2-2.2c0-1.9,1.5-2.9,4.3-2.8v-0.2
		c0-0.6-0.2-1.8-1.6-1.8c-0.7,0-1.4,0.2-1.9,0.6l-0.3-0.9c0.6-0.4,1.5-0.7,2.4-0.7c2.2,0,2.7,1.6,2.7,3.1v2.9c0,0.7,0,1.3,0.1,1.8
		H298.4z M298.2,149.9c-1.4,0-3,0.2-3,1.7c0,0.9,0.6,1.3,1.2,1.3c0.9,0,1.5-0.6,1.7-1.3c0-0.1,0.1-0.3,0.1-0.4V149.9z"/>
	<path class="st1" d="M301.6,148.3c0-0.8,0-1.4-0.1-2.1h1.2l0.1,1.3h0c0.4-0.7,1.2-1.4,2.4-1.4c1,0,2.5,0.6,2.5,3.3v4.6h-1.3v-4.4
		c0-1.2-0.4-2.3-1.7-2.3c-0.9,0-1.5,0.6-1.8,1.4c-0.1,0.2-0.1,0.4-0.1,0.6v4.6h-1.3V148.3z"/>
	<path class="st1" d="M316.1,142.6v9.3c0,0.7,0,1.5,0.1,2H315l-0.1-1.3h0c-0.4,0.9-1.3,1.5-2.5,1.5c-1.7,0-3.1-1.6-3.1-3.9
		c0-2.5,1.5-4.1,3.2-4.1c1.1,0,1.8,0.6,2.2,1.2h0v-4.6H316.1z M314.8,149.3c0-0.2,0-0.4-0.1-0.6c-0.2-0.9-0.9-1.6-1.9-1.6
		c-1.4,0-2.2,1.3-2.2,3c0,1.6,0.7,2.8,2.1,2.8c0.9,0,1.7-0.6,1.9-1.7c0-0.2,0.1-0.4,0.1-0.6V149.3z"/>
</g>
<g>
	<path class="st1" d="M54.5,169.7c0,1.9,1.2,2.7,2.5,2.7c0.9,0,1.5-0.2,2-0.4l0.2,1c-0.5,0.2-1.2,0.5-2.4,0.5
		c-2.2,0-3.5-1.6-3.5-3.9c0-2.3,1.3-4.1,3.4-4.1c2.3,0,3,2.2,3,3.6c0,0.3,0,0.5,0,0.6H54.5z M58.3,168.7c0-0.9-0.3-2.3-1.8-2.3
		c-1.3,0-1.9,1.3-2,2.3H58.3z"/>
	<path class="st1" d="M61.8,165.6l1,1.6c0.3,0.4,0.5,0.8,0.7,1.2h0c0.2-0.5,0.5-0.9,0.7-1.3l1-1.6h1.4l-2.5,3.7l2.5,4h-1.5l-1.1-1.7
		c-0.3-0.4-0.5-0.9-0.8-1.3h0c-0.2,0.5-0.5,0.9-0.8,1.3l-1,1.7h-1.4l2.6-3.9l-2.4-3.8H61.8z"/>
	<path class="st1" d="M68.5,169.7c0,1.9,1.2,2.7,2.5,2.7c0.9,0,1.5-0.2,2-0.4l0.2,1c-0.5,0.2-1.2,0.5-2.4,0.5
		c-2.2,0-3.5-1.6-3.5-3.9c0-2.3,1.3-4.1,3.4-4.1c2.3,0,3,2.2,3,3.6c0,0.3,0,0.5,0,0.6H68.5z M72.4,168.7c0-0.9-0.3-2.3-1.8-2.3
		c-1.3,0-1.9,1.3-2,2.3H72.4z"/>
	<path class="st1" d="M75.3,167.6c0-0.8,0-1.4-0.1-2.1h1.1l0.1,1.2h0c0.4-0.7,1.1-1.4,2.3-1.4c1,0,1.7,0.6,2,1.5h0
		c0.2-0.4,0.5-0.8,0.8-1c0.4-0.3,0.9-0.5,1.6-0.5c1,0,2.4,0.7,2.4,3.3v4.5h-1.3v-4.3c0-1.5-0.5-2.4-1.6-2.4c-0.7,0-1.3,0.6-1.5,1.3
		c-0.1,0.2-0.1,0.4-0.1,0.7v4.7h-1.3v-4.6c0-1.2-0.5-2.1-1.5-2.1c-0.8,0-1.4,0.7-1.6,1.4c-0.1,0.2-0.1,0.4-0.1,0.7v4.6h-1.3V167.6z"
		/>
	<path class="st1" d="M87.7,168.1c0-1,0-1.8-0.1-2.5h1.2l0.1,1.3h0c0.5-0.9,1.4-1.5,2.6-1.5c1.7,0,3,1.6,3,3.9
		c0,2.8-1.6,4.1-3.3,4.1c-1,0-1.8-0.4-2.2-1.2h0v4.2h-1.3V168.1z M89,170.1c0,0.2,0,0.4,0.1,0.6c0.2,1,1,1.6,2,1.6
		c1.4,0,2.2-1.2,2.2-3c0-1.5-0.8-2.8-2.1-2.8c-0.9,0-1.7,0.7-2,1.7c0,0.2-0.1,0.4-0.1,0.6V170.1z"/>
	<path class="st1" d="M96.1,162h1.3v11.2h-1.3V162z"/>
	<path class="st1" d="M103.6,173.2l-0.1-1h0c-0.4,0.6-1.2,1.1-2.2,1.1c-1.5,0-2.2-1.1-2.2-2.2c0-1.9,1.5-2.9,4.3-2.8v-0.2
		c0-0.6-0.2-1.8-1.6-1.8c-0.7,0-1.4,0.2-1.9,0.6l-0.3-0.9c0.6-0.4,1.5-0.7,2.4-0.7c2.2,0,2.7,1.6,2.7,3.1v2.9c0,0.7,0,1.3,0.1,1.8
		H103.6z M103.4,169.3c-1.4,0-3,0.2-3,1.7c0,0.9,0.6,1.3,1.2,1.3c0.9,0,1.5-0.6,1.7-1.3c0-0.1,0.1-0.3,0.1-0.4V169.3z"/>
	<path class="st1" d="M106.8,168c0-0.9,0-1.7-0.1-2.4h1.1l0,1.5h0.1c0.3-1,1.1-1.7,2-1.7c0.1,0,0.3,0,0.4,0v1.3c-0.1,0-0.3,0-0.4,0
		c-0.9,0-1.6,0.7-1.8,1.8c0,0.2-0.1,0.4-0.1,0.6v4.1h-1.3V168z"/>
	<path class="st1" d="M112.5,165.6l1.6,4.5c0.2,0.5,0.3,1.1,0.5,1.6h0c0.1-0.5,0.3-1,0.5-1.6l1.4-4.5h1.4l-2,5.5
		c-0.9,2.6-1.6,4-2.5,4.8c-0.6,0.6-1.3,0.8-1.6,0.9l-0.3-1.2c0.3-0.1,0.8-0.3,1.1-0.7c0.4-0.3,0.8-0.8,1.1-1.6
		c0.1-0.1,0.1-0.3,0.1-0.3s0-0.2-0.1-0.4l-2.7-7.1H112.5z"/>
	<path class="st1" d="M127.3,172.9c-0.3,0.2-1.1,0.4-2.1,0.4c-2.2,0-3.6-1.6-3.6-3.9c0-2.4,1.5-4.1,3.9-4.1c0.8,0,1.5,0.2,1.8,0.4
		l-0.3,1.1c-0.3-0.2-0.8-0.4-1.5-0.4c-1.6,0-2.5,1.3-2.5,2.9c0,1.8,1.1,2.9,2.5,2.9c0.7,0,1.2-0.2,1.6-0.4L127.3,172.9z"/>
	<path class="st1" d="M135.2,169.3c0,2.8-1.8,4.1-3.6,4.1c-1.9,0-3.4-1.5-3.4-3.9c0-2.6,1.6-4.1,3.6-4.1
		C133.8,165.4,135.2,167,135.2,169.3z M129.5,169.4c0,1.7,0.9,2.9,2.2,2.9c1.2,0,2.2-1.2,2.2-3c0-1.3-0.6-2.9-2.2-2.9
		C130.2,166.4,129.5,168,129.5,169.4z"/>
	<path class="st1" d="M136.9,167.6c0-0.8,0-1.4-0.1-2.1h1.2l0.1,1.3h0c0.4-0.7,1.2-1.4,2.4-1.4c1,0,2.5,0.6,2.5,3.3v4.6h-1.3v-4.4
		c0-1.2-0.4-2.3-1.7-2.3c-0.9,0-1.5,0.6-1.8,1.4c-0.1,0.2-0.1,0.4-0.1,0.6v4.6h-1.3V167.6z"/>
	<path class="st1" d="M146.7,163.4v2.2h1.9v1.1h-1.9v4.1c0,0.9,0.3,1.5,1,1.5c0.3,0,0.6,0,0.8-0.1l0.1,1c-0.3,0.1-0.7,0.2-1.2,0.2
		c-0.6,0-1.1-0.2-1.4-0.6c-0.4-0.4-0.5-1.1-0.5-2v-4.2h-1.1v-1.1h1.1v-1.8L146.7,163.4z"/>
</g>
<g>
	<path class="st1" d="M150,168c0-0.9,0-1.7-0.1-2.4h1.1l0,1.5h0.1c0.3-1,1.1-1.7,2-1.7c0.1,0,0.3,0,0.4,0v1.3c-0.1,0-0.3,0-0.4,0
		c-0.9,0-1.6,0.7-1.8,1.8c0,0.2-0.1,0.4-0.1,0.6v4.1H150V168z"/>
	<path class="st1" d="M156.4,163.4c0,0.5-0.3,0.9-0.8,0.9c-0.5,0-0.8-0.4-0.8-0.9c0-0.5,0.3-0.9,0.8-0.9
		C156.1,162.5,156.4,162.9,156.4,163.4z M154.9,173.2v-7.7h1.3v7.7H154.9z"/>
	<path class="st1" d="M158.4,173.2c0-0.5,0.1-1.3,0.1-2V162h1.3v4.8h0c0.5-0.9,1.3-1.4,2.5-1.4c1.8,0,3,1.6,3,3.9
		c0,2.7-1.6,4.1-3.2,4.1c-1,0-1.9-0.4-2.4-1.4h0l-0.1,1.3H158.4z M159.7,170.2c0,0.2,0,0.3,0.1,0.5c0.3,1,1,1.6,2,1.6
		c1.4,0,2.2-1.2,2.2-2.9c0-1.5-0.7-2.8-2.1-2.8c-0.9,0-1.7,0.6-2,1.7c0,0.2-0.1,0.3-0.1,0.6V170.2z"/>
	<path class="st1" d="M172.9,171.1c0,0.8,0,1.5,0.1,2.1h-1.2l-0.1-1.2h0c-0.3,0.6-1.1,1.4-2.4,1.4c-1.1,0-2.5-0.7-2.5-3.4v-4.5h1.3
		v4.2c0,1.5,0.4,2.4,1.6,2.4c0.9,0,1.5-0.6,1.7-1.3c0.1-0.2,0.1-0.5,0.1-0.7v-4.7h1.3V171.1z"/>
	<path class="st1" d="M176.6,163.4v2.2h1.9v1.1h-1.9v4.1c0,0.9,0.3,1.5,1,1.5c0.3,0,0.6,0,0.8-0.1l0.1,1c-0.3,0.1-0.7,0.2-1.2,0.2
		c-0.6,0-1.1-0.2-1.4-0.6c-0.4-0.4-0.5-1.1-0.5-2v-4.2h-1.1v-1.1h1.1v-1.8L176.6,163.4z"/>
	<path class="st1" d="M181.4,163.4c0,0.5-0.3,0.9-0.8,0.9c-0.5,0-0.8-0.4-0.8-0.9c0-0.5,0.3-0.9,0.8-0.9
		C181.1,162.5,181.4,162.9,181.4,163.4z M180,173.2v-7.7h1.3v7.7H180z"/>
	<path class="st1" d="M190,169.3c0,2.8-1.8,4.1-3.6,4.1c-1.9,0-3.4-1.5-3.4-3.9c0-2.6,1.6-4.1,3.6-4.1
		C188.6,165.4,190,167,190,169.3z M184.3,169.4c0,1.7,0.9,2.9,2.2,2.9c1.2,0,2.2-1.2,2.2-3c0-1.3-0.6-2.9-2.2-2.9
		C184.9,166.4,184.3,168,184.3,169.4z"/>
	<path class="st1" d="M191.6,167.6c0-0.8,0-1.4-0.1-2.1h1.2l0.1,1.3h0c0.4-0.7,1.2-1.4,2.4-1.4c1,0,2.5,0.6,2.5,3.3v4.6h-1.3v-4.4
		c0-1.2-0.4-2.3-1.7-2.3c-0.9,0-1.5,0.6-1.8,1.4c-0.1,0.2-0.1,0.4-0.1,0.6v4.6h-1.3V167.6z"/>
	<path class="st1" d="M199.7,171.8c0.4,0.3,1.1,0.6,1.7,0.6c1,0,1.4-0.5,1.4-1.1c0-0.7-0.4-1-1.3-1.4c-1.3-0.5-1.9-1.2-1.9-2.2
		c0-1.2,0.9-2.2,2.5-2.2c0.7,0,1.4,0.2,1.8,0.5l-0.3,1c-0.3-0.2-0.8-0.4-1.5-0.4c-0.8,0-1.2,0.5-1.2,1c0,0.6,0.4,0.9,1.4,1.3
		c1.2,0.5,1.9,1.2,1.9,2.3c0,1.3-1,2.3-2.7,2.3c-0.8,0-1.5-0.2-2-0.5L199.7,171.8z"/>
	<path class="st1" d="M210.5,163.4v2.2h1.9v1.1h-1.9v4.1c0,0.9,0.3,1.5,1,1.5c0.3,0,0.6,0,0.8-0.1l0.1,1c-0.3,0.1-0.7,0.2-1.2,0.2
		c-0.6,0-1.1-0.2-1.4-0.6c-0.4-0.4-0.5-1.1-0.5-2v-4.2h-1.1v-1.1h1.1v-1.8L210.5,163.4z"/>
	<path class="st1" d="M220.3,169.3c0,2.8-1.8,4.1-3.6,4.1c-1.9,0-3.4-1.5-3.4-3.9c0-2.6,1.6-4.1,3.6-4.1
		C218.9,165.4,220.3,167,220.3,169.3z M214.6,169.4c0,1.7,0.9,2.9,2.2,2.9c1.2,0,2.2-1.2,2.2-3c0-1.3-0.6-2.9-2.2-2.9
		C215.2,166.4,214.6,168,214.6,169.4z"/>
	<path class="st1" d="M224.9,171.8c0.4,0.3,1.1,0.6,1.7,0.6c1,0,1.4-0.5,1.4-1.1c0-0.7-0.4-1-1.3-1.4c-1.3-0.5-1.9-1.2-1.9-2.2
		c0-1.2,0.9-2.2,2.5-2.2c0.7,0,1.4,0.2,1.8,0.5l-0.3,1c-0.3-0.2-0.8-0.4-1.5-0.4c-0.8,0-1.2,0.5-1.2,1c0,0.6,0.4,0.9,1.4,1.3
		c1.2,0.5,1.9,1.2,1.9,2.3c0,1.3-1,2.3-2.7,2.3c-0.8,0-1.5-0.2-2-0.5L224.9,171.8z"/>
	<path class="st1" d="M237.5,169.3c0,2.8-1.8,4.1-3.6,4.1c-1.9,0-3.4-1.5-3.4-3.9c0-2.6,1.6-4.1,3.6-4.1
		C236.1,165.4,237.5,167,237.5,169.3z M231.8,169.4c0,1.7,0.9,2.9,2.2,2.9c1.2,0,2.2-1.2,2.2-3c0-1.3-0.6-2.9-2.2-2.9
		C232.4,166.4,231.8,168,231.8,169.4z"/>
	<path class="st1" d="M244.3,172.9c-0.3,0.2-1.1,0.4-2.1,0.4c-2.2,0-3.6-1.6-3.6-3.9c0-2.4,1.5-4.1,3.9-4.1c0.8,0,1.5,0.2,1.8,0.4
		l-0.3,1.1c-0.3-0.2-0.8-0.4-1.5-0.4c-1.6,0-2.5,1.3-2.5,2.9c0,1.8,1.1,2.9,2.5,2.9c0.7,0,1.2-0.2,1.6-0.4L244.3,172.9z"/>
	<path class="st1" d="M247.3,163.4c0,0.5-0.3,0.9-0.8,0.9c-0.5,0-0.8-0.4-0.8-0.9c0-0.5,0.3-0.9,0.8-0.9
		C246.9,162.5,247.3,162.9,247.3,163.4z M245.8,173.2v-7.7h1.3v7.7H245.8z"/>
	<path class="st1" d="M250,169.7c0,1.9,1.2,2.7,2.5,2.7c0.9,0,1.5-0.2,2-0.4l0.2,1c-0.5,0.2-1.2,0.5-2.4,0.5c-2.2,0-3.5-1.6-3.5-3.9
		c0-2.3,1.3-4.1,3.4-4.1c2.3,0,3,2.2,3,3.6c0,0.3,0,0.5,0,0.6H250z M253.8,168.7c0-0.9-0.3-2.3-1.8-2.3c-1.3,0-1.9,1.3-2,2.3H253.8z
		"/>
	<path class="st1" d="M258.3,163.4v2.2h1.9v1.1h-1.9v4.1c0,0.9,0.3,1.5,1,1.5c0.3,0,0.6,0,0.8-0.1l0.1,1c-0.3,0.1-0.7,0.2-1.2,0.2
		c-0.6,0-1.1-0.2-1.4-0.6c-0.4-0.4-0.5-1.1-0.5-2v-4.2h-1.1v-1.1h1.1v-1.8L258.3,163.4z"/>
	<path class="st1" d="M262.2,165.6l1.6,4.5c0.2,0.5,0.3,1.1,0.5,1.6h0c0.1-0.5,0.3-1,0.5-1.6l1.4-4.5h1.4l-2,5.5
		c-0.9,2.6-1.6,4-2.5,4.8c-0.6,0.6-1.3,0.8-1.6,0.9l-0.3-1.2c0.3-0.1,0.8-0.3,1.1-0.7c0.4-0.3,0.8-0.8,1.1-1.6
		c0.1-0.1,0.1-0.3,0.1-0.3s0-0.2-0.1-0.4l-2.7-7.1H262.2z"/>
	<path class="st1" d="M267.9,172.4c0-0.6,0.4-1,0.9-1s0.9,0.4,0.9,1c0,0.6-0.3,1-0.9,1C268.2,173.4,267.9,173,267.9,172.4z"/>
</g>
</svg>
