<?xml version="1.0" encoding="utf-8"?>
<!-- Generator: Adobe Illustrator 16.0.4, SVG Export Plug-In . SVG Version: 6.00 Build 0)  -->
<!DOCTYPE svg PUBLIC "-//W3C//DTD SVG 1.1//EN" "http://www.w3.org/Graphics/SVG/1.1/DTD/svg11.dtd">
<svg version="1.1" id="Layer_1" xmlns="http://www.w3.org/2000/svg" xmlns:xlink="http://www.w3.org/1999/xlink" x="0px" y="0px"
	 width="615.753px" height="66.438px" viewBox="0 0 615.753 66.438" enable-background="new 0 0 615.753 66.438"
	 xml:space="preserve">
<g>
	<g>
		<path fill="#FFFFFF" d="M148.802,54h-8.213V9.69h28.014v6.849h-19.801v12.108h15.581v6.654h-15.581V54z"/>
		<path fill="#FFFFFF" stroke="#FFFFFF" stroke-width="3" stroke-miterlimit="10" d="M205.187,51.64h-5.434l-7.633-17.297h-11.857
			V51.64h-4.852V11.69h16.312c4.428,0,7.707,1.166,9.84,3.498c2.133,2.331,3.199,4.883,3.199,7.653c0,2.126-0.598,4.165-1.789,6.116
			c-1.193,1.951-3.164,3.347-5.912,4.186L205.187,51.64z M180.263,30.275h10.824c2.852,0,4.979-0.727,6.383-2.181
			c1.404-1.453,2.107-3.234,2.107-5.341c0-2.107-0.742-3.746-2.229-4.917s-3.361-1.756-5.625-1.756h-11.461V30.275z"/>
		<path fill="#FFFFFF" d="M239.499,54h-28.793V9.69h28.502v6.59h-20.516v12.011h16.49v6.427h-16.49v12.4h20.807V54z"/>
		<path fill="#FFFFFF" d="M273.726,54h-28.793V9.69h28.502v6.59h-20.516v12.011h16.49v6.427h-16.49v12.4h20.807V54z"/>
	</g>
	<g>
		<path fill="#FFFFFF" d="M310.922,43.423l3.389,0.76C312.689,50.728,309.025,54,303.32,54c-3.75,0-6.693-1.515-8.828-4.543
			c-2.137-3.028-3.205-6.752-3.205-11.172c0-4.563,1.115-8.229,3.346-10.997s5.221-4.151,8.971-4.151
			c5.559,0,9.129,3.179,10.707,9.534l-3.496,0.695c-1.275-4.72-3.686-7.08-7.232-7.08c-2.621,0-4.652,1.097-6.094,3.29
			c-1.439,2.194-2.16,5.274-2.16,9.242c0,3.634,0.738,6.548,2.215,8.741c1.477,2.194,3.432,3.291,5.865,3.291
			C307.188,50.851,309.691,48.374,310.922,43.423z"/>
		<path fill="#FFFFFF" d="M330.033,54c-3.807,0-6.775-1.481-8.904-4.445c-2.129-2.963-3.193-6.596-3.193-10.899
			c0-4.492,1.115-8.201,3.346-11.128s5.184-4.391,8.861-4.391c3.664,0,6.604,1.438,8.818,4.314s3.322,6.502,3.322,10.878
			c0,4.202-1.074,7.864-3.225,10.987C336.908,52.438,333.9,54,330.033,54z M330.121,50.98c2.592,0,4.619-1.181,6.082-3.543
			c1.461-2.362,2.193-5.405,2.193-9.13c0-3.826-0.758-6.805-2.27-8.935c-1.514-2.131-3.523-3.195-6.027-3.195
			c-2.535,0-4.547,1.151-6.039,3.456c-1.49,2.305-2.236,5.318-2.236,9.043c0,3.638,0.752,6.598,2.26,8.88
			C325.588,49.84,327.602,50.98,330.121,50.98z"/>
		<path fill="#FFFFFF" d="M363.873,23.745h3.084V43.11c0,3.884-0.951,6.669-2.855,8.357c-1.904,1.688-4.398,2.532-7.482,2.532
			c-3.432,0-5.973-0.869-7.623-2.608s-2.477-4.499-2.477-8.281V23.745h3.715v19.367c0,2.305,0.268,3.927,0.803,4.869
			s1.348,1.638,2.434,2.087s2.223,0.674,3.41,0.674c2.287,0,4.025-0.602,5.213-1.805c1.186-1.202,1.779-3.145,1.779-5.825V23.745z"
			/>
		<path fill="#FFFFFF" d="M394.369,53.392h-3.893l-5.467-12.836h-8.494v12.836h-3.475V23.745h11.686c3.17,0,5.52,0.865,7.047,2.595
			c1.527,1.73,2.291,3.624,2.291,5.68c0,1.579-0.428,3.092-1.281,4.54c-0.854,1.447-2.266,2.483-4.234,3.105L394.369,53.392z
			 M376.516,37.536h7.754c2.041,0,3.564-0.539,4.572-1.618c1.006-1.078,1.51-2.399,1.51-3.963c0-1.564-0.533-2.78-1.598-3.649
			c-1.064-0.868-2.406-1.303-4.027-1.303h-8.211V37.536z"/>
		<path fill="#FFFFFF" d="M397.039,45.551l3.346-0.76c1.346,4.039,4.264,6.06,8.752,6.06c2.346,0,4.113-0.498,5.301-1.493
			c1.186-0.995,1.779-2.328,1.779-3.999c0-1.264-0.451-2.281-1.355-3.052c-0.904-0.77-1.951-1.3-3.137-1.591l-5.932-1.462
			c-1.535-0.392-2.791-0.866-3.77-1.425c-0.977-0.559-1.807-1.418-2.486-2.577c-0.68-1.16-1.021-2.487-1.021-3.98
			c0-2.479,0.936-4.455,2.803-5.927s4.264-2.208,7.189-2.208c5.387,0,8.926,2.439,10.621,7.319l-3.367,0.999
			c-0.391-1.737-1.311-3.052-2.758-3.942c-1.449-0.891-2.99-1.335-4.627-1.335c-1.621,0-3.066,0.429-4.332,1.287
			c-1.268,0.858-1.9,2.073-1.9,3.645c0,2.196,1.605,3.68,4.816,4.451l5.543,1.3c5.068,1.217,7.602,3.946,7.602,8.189
			c0,2.563-0.953,4.696-2.855,6.397c-1.904,1.702-4.588,2.553-8.047,2.553C403.062,54,399.008,51.184,397.039,45.551z"/>
		<path fill="#FFFFFF" d="M443.912,50.134v3.258h-19.18V23.745h18.766v3.258h-15.051v9.426h11.945v3.02h-11.945v10.686H443.912z"/>
		<path fill="#FFFFFF" d="M445.844,45.551l3.346-0.76c1.346,4.039,4.264,6.06,8.752,6.06c2.346,0,4.113-0.498,5.301-1.493
			c1.186-0.995,1.779-2.328,1.779-3.999c0-1.264-0.451-2.281-1.355-3.052c-0.904-0.77-1.951-1.3-3.137-1.591l-5.932-1.462
			c-1.535-0.392-2.791-0.866-3.77-1.425c-0.977-0.559-1.807-1.418-2.486-2.577c-0.68-1.16-1.021-2.487-1.021-3.98
			c0-2.479,0.936-4.455,2.803-5.927s4.264-2.208,7.189-2.208c5.387,0,8.926,2.439,10.621,7.319l-3.367,0.999
			c-0.391-1.737-1.311-3.052-2.758-3.942c-1.449-0.891-2.99-1.335-4.627-1.335c-1.621,0-3.066,0.429-4.332,1.287
			c-1.268,0.858-1.9,2.073-1.9,3.645c0,2.196,1.605,3.68,4.816,4.451l5.543,1.3c5.068,1.217,7.602,3.946,7.602,8.189
			c0,2.563-0.953,4.696-2.855,6.397C464.15,53.149,461.467,54,458.008,54C451.867,54,447.812,51.184,445.844,45.551z"/>
	</g>
</g>
</svg>
