<?xml version="1.0" encoding="utf-8"?>
<!-- Generator: Adobe Illustrator 16.0.4, SVG Export Plug-In . SVG Version: 6.00 Build 0)  -->
<!DOCTYPE svg PUBLIC "-//W3C//DTD SVG 1.1//EN" "http://www.w3.org/Graphics/SVG/1.1/DTD/svg11.dtd">
<svg version="1.1" id="Layer_1" xmlns="http://www.w3.org/2000/svg" xmlns:xlink="http://www.w3.org/1999/xlink" x="0px" y="0px"
	 width="514.38px" height="68.42px" viewBox="0 0 514.38 68.42" enable-background="new 0 0 514.38 68.42" xml:space="preserve">

<path fill="#FFFFFF" d="M160.328,56.544h-3.868V25.681h18.896v3.392h-15.028v9.738h12.451v3.123h-12.451V56.544z"/>
<path fill="#FFFFFF" d="M202.171,56.544h-4.054l-5.687-13.369h-8.844v13.369h-3.614V25.681h12.16c3.301,0,5.745,0.901,7.342,2.697
	c1.588,1.803,2.383,3.776,2.383,5.914c0,1.646-0.444,3.217-1.338,4.73c-0.887,1.501-2.358,2.574-4.408,3.225L202.171,56.544z
	 M183.587,40.036h8.074c2.12,0,3.706-0.563,4.758-1.688c1.043-1.124,1.57-2.493,1.57-4.122s-0.554-2.899-1.661-3.803
	c-1.111-0.903-2.506-1.352-4.195-1.352h-8.546V40.036z"/>
<path fill="#FFFFFF" d="M228.311,53.152v3.392H208.34V25.681h19.539v3.392H212.21v9.81h12.432v3.142H212.21v11.129H228.311z"/>
<path fill="#FFFFFF" d="M253.679,53.152v3.392h-19.971V25.681h19.538v3.392h-15.67v9.81h12.429v3.142h-12.429v11.129H253.679z"/>
<path fill="#FFFFFF" d="M289.144,46.162l3.523,0.791c-1.683,6.816-5.501,10.218-11.44,10.218c-3.896,0-6.964-1.58-9.181-4.723
	c-2.229-3.157-3.339-7.033-3.339-11.632c0-4.755,1.155-8.569,3.479-11.451c2.327-2.882,5.431-4.319,9.338-4.319
	c5.783,0,9.507,3.306,11.144,9.926l-3.644,0.726c-1.323-4.92-3.834-7.372-7.514-7.372c-2.729,0-4.845,1.142-6.342,3.42
	c-1.514,2.287-2.264,5.494-2.264,9.621c0,3.786,0.775,6.819,2.316,9.104c1.539,2.285,3.57,3.43,6.095,3.43
	C285.259,53.9,287.864,51.315,289.144,46.162z"/>
<path fill="#FFFFFF" d="M309.041,57.171c-3.964,0-7.051-1.541-9.274-4.625c-2.214-3.083-3.319-6.867-3.319-11.352
	c0-4.673,1.155-8.53,3.48-11.575c2.326-3.051,5.388-4.573,9.219-4.573c3.819,0,6.872,1.497,9.186,4.491
	c2.302,2.994,3.452,6.766,3.452,11.325c0,4.372-1.113,8.176-3.354,11.43C316.19,55.544,313.059,57.171,309.041,57.171z
	 M309.129,54.033c2.693,0,4.807-1.23,6.336-3.691c1.513-2.462,2.269-5.631,2.269-9.506c0-3.983-0.771-7.086-2.352-9.297
	c-1.58-2.221-3.663-3.326-6.282-3.326c-2.639,0-4.726,1.196-6.273,3.595c-1.563,2.398-2.33,5.54-2.33,9.417
	c0,3.787,0.787,6.868,2.346,9.245C304.415,52.847,306.502,54.033,309.129,54.033z"/>
<path fill="#FFFFFF" d="M344.265,25.681h3.215v20.162c0,4.031-1.001,6.932-2.981,8.691c-1.981,1.756-4.579,2.637-7.79,2.637
	c-3.569,0-6.214-0.91-7.932-2.719c-1.72-1.811-2.586-4.679-2.586-8.609V25.681h3.87v20.163c0,2.392,0.287,4.074,0.837,5.067
	c0.562,0.977,1.402,1.694,2.537,2.167c1.121,0.473,2.307,0.702,3.542,0.702c2.381,0,4.202-0.622,5.438-1.883
	c1.235-1.245,1.851-3.269,1.851-6.054V25.681z"/>
<path fill="#FFFFFF" d="M375.999,56.544h-4.054l-5.686-13.369h-8.831v13.369h-3.629V25.681h12.175c3.302,0,5.737,0.901,7.327,2.697
	c1.588,1.803,2.383,3.776,2.383,5.914c0,1.646-0.442,3.217-1.33,4.73c-0.886,1.501-2.365,2.574-4.407,3.225L375.999,56.544z
	 M357.428,40.036h8.067c2.123,0,3.707-0.563,4.758-1.688s1.562-2.493,1.562-4.122s-0.546-2.899-1.651-3.803s-2.508-1.352-4.19-1.352
	h-8.546V40.036z"/>
<path fill="#FFFFFF" d="M378.791,48.373l3.482-0.792c1.401,4.212,4.427,6.319,9.11,6.319c2.437,0,4.278-0.521,5.515-1.564
	c1.233-1.029,1.852-2.425,1.852-4.155c0-1.317-0.474-2.376-1.413-3.176c-0.935-0.812-2.028-1.356-3.261-1.661l-6.171-1.525
	c-1.609-0.408-2.907-0.896-3.938-1.477c-1.015-0.581-1.871-1.483-2.577-2.685c-0.708-1.208-1.062-2.59-1.062-4.141
	c0-2.587,0.972-4.64,2.914-6.175c1.942-1.527,4.441-2.296,7.484-2.296c5.603,0,9.29,2.537,11.056,7.619l-3.512,1.038
	c-0.403-1.808-1.364-3.176-2.868-4.102c-1.505-0.926-3.116-1.389-4.811-1.389c-1.696,0-3.199,0.444-4.518,1.34
	c-1.319,0.89-1.979,2.157-1.979,3.793c0,2.286,1.672,3.829,5.014,4.629l5.771,1.356c5.277,1.269,7.917,4.106,7.917,8.519
	c0,2.675-0.999,4.888-2.98,6.668c-1.983,1.77-4.77,2.653-8.373,2.653C385.055,57.171,380.833,54.234,378.791,48.373z"/>
<path fill="#FFFFFF" d="M427.582,53.152v3.392h-19.974V25.681h19.54v3.392h-15.67v9.81h12.429v3.142h-12.429v11.129H427.582z"/>
<path fill="#FFFFFF" d="M429.583,48.373l3.481-0.792c1.404,4.212,4.44,6.319,9.112,6.319c2.449,0,4.277-0.521,5.514-1.564
	c1.233-1.029,1.864-2.425,1.864-4.155c0-1.317-0.474-2.376-1.423-3.176c-0.938-0.812-2.029-1.356-3.263-1.661l-6.174-1.525
	c-1.593-0.408-2.904-0.896-3.922-1.477c-1.015-0.581-1.885-1.483-2.591-2.685c-0.707-1.208-1.062-2.59-1.062-4.141
	c0-2.587,0.972-4.64,2.914-6.175c1.941-1.527,4.442-2.296,7.484-2.296c5.616,0,9.291,2.537,11.056,7.619l-3.497,1.038
	c-0.404-1.808-1.363-3.176-2.868-4.102c-1.519-0.926-3.117-1.389-4.826-1.389c-1.682,0-3.184,0.444-4.503,1.34
	c-1.319,0.89-1.979,2.157-1.979,3.793c0,2.286,1.671,3.829,5.015,4.629l5.77,1.356c5.278,1.269,7.903,4.106,7.903,8.519
	c0,2.675-0.982,4.888-2.966,6.668c-1.98,1.77-4.783,2.653-8.373,2.653C435.862,57.171,431.64,54.234,429.583,48.373z"/>
</svg>
