<?xml version="1.0" encoding="utf-8"?>
<!-- Generator: Adobe Illustrator 16.0.4, SVG Export Plug-In . SVG Version: 6.00 Build 0)  -->
<!DOCTYPE svg PUBLIC "-//W3C//DTD SVG 1.1//EN" "http://www.w3.org/Graphics/SVG/1.1/DTD/svg11.dtd">
<svg version="1.1" id="Layer_1" xmlns="http://www.w3.org/2000/svg" xmlns:xlink="http://www.w3.org/1999/xlink" x="0px" y="0px"
	 width="514.383px" height="68.493px" viewBox="0 0 514.383 68.493" enable-background="new 0 0 514.383 68.493"
	 xml:space="preserve">
<g>
	<path fill="#FFFFFF" d="M39.625,56.058h-8.213v-44.31h28.014v6.849H39.625v12.108h15.582v6.654H39.625V56.058z"/>
	<path fill="#FFFFFF" d="M73.157,56.058h-7.986v-44.31h7.986V56.058z"/>
	<path fill="#FFFFFF" d="M89.779,56.058h-8.213v-44.31h28.014v6.849H89.779v12.108h15.582v6.654H89.779V56.058z"/>
	<path fill="#FFFFFF" d="M133.469,56.058h-8.57V18.597h-11.784v-6.849h32.137v6.849h-11.783V56.058z"/>
	<path fill="#FFFFFF" d="M172.065,56.058h-8.472V37.359l-15.095-25.611h9.673l10.518,18.275l10.063-18.275h7.66l-14.348,25.611
		V56.058z"/>
	<path fill="#FFFFFF" d="M205.373,56.058h-3.714V26.411h18.157v3.258h-14.443v9.36h11.968v2.998h-11.968V56.058z"/>
	<path fill="#FFFFFF" d="M245.575,56.058h-3.893l-5.467-12.836h-8.493v12.836h-3.476V26.411h11.686c3.171,0,5.52,0.865,7.048,2.595
		c1.527,1.73,2.291,3.624,2.291,5.68c0,1.579-0.428,3.092-1.281,4.54c-0.854,1.447-2.267,2.483-4.235,3.105L245.575,56.058z
		 M227.722,40.202h7.754c2.041,0,3.564-0.539,4.571-1.618c1.007-1.078,1.51-2.399,1.51-3.963c0-1.564-0.532-2.78-1.597-3.649
		c-1.064-0.868-2.407-1.303-4.028-1.303h-8.21V40.202z"/>
	<path fill="#FFFFFF" d="M270.683,52.8v3.258h-19.179V26.411h18.766v3.258h-15.052v9.426h11.946v3.02h-11.946V52.8H270.683z"/>
	<path fill="#FFFFFF" d="M295.053,52.8v3.258h-19.18V26.411h18.766v3.258h-15.051v9.426h11.945v3.02h-11.945V52.8H295.053z"/>
	<path fill="#FFFFFF" d="M329.129,46.089l3.389,0.76c-1.621,6.545-5.285,9.817-10.99,9.817c-3.75,0-6.693-1.515-8.828-4.543
		c-2.137-3.028-3.205-6.752-3.205-11.172c0-4.563,1.115-8.229,3.346-10.997s5.221-4.151,8.971-4.151
		c5.559,0,9.129,3.179,10.707,9.534l-3.496,0.695c-1.275-4.72-3.686-7.08-7.232-7.08c-2.621,0-4.652,1.097-6.094,3.29
		c-1.439,2.194-2.16,5.274-2.16,9.242c0,3.634,0.738,6.548,2.215,8.741c1.477,2.194,3.432,3.291,5.865,3.291
		C325.395,53.517,327.899,51.04,329.129,46.089z"/>
	<path fill="#FFFFFF" d="M348.241,56.666c-3.807,0-6.775-1.481-8.904-4.445c-2.129-2.963-3.193-6.596-3.193-10.899
		c0-4.492,1.115-8.201,3.346-11.128s5.184-4.391,8.861-4.391c3.664,0,6.604,1.438,8.818,4.314s3.322,6.502,3.322,10.878
		c0,4.202-1.074,7.864-3.225,10.987C355.116,55.104,352.108,56.666,348.241,56.666z M348.329,53.646
		c2.592,0,4.619-1.181,6.082-3.543c1.461-2.362,2.193-5.405,2.193-9.13c0-3.826-0.758-6.805-2.27-8.935
		c-1.514-2.131-3.523-3.195-6.027-3.195c-2.535,0-4.547,1.151-6.039,3.456c-1.49,2.305-2.236,5.318-2.236,9.043
		c0,3.638,0.752,6.598,2.26,8.88C343.795,52.506,345.809,53.646,348.329,53.646z"/>
	<path fill="#FFFFFF" d="M382.081,26.411h3.084v19.365c0,3.884-0.951,6.669-2.855,8.357c-1.904,1.688-4.398,2.532-7.482,2.532
		c-3.432,0-5.973-0.869-7.623-2.608s-2.477-4.499-2.477-8.281V26.411h3.715v19.367c0,2.305,0.268,3.927,0.803,4.869
		s1.348,1.638,2.434,2.087s2.223,0.674,3.41,0.674c2.287,0,4.025-0.602,5.213-1.805c1.186-1.202,1.779-3.145,1.779-5.825V26.411z"/>
	<path fill="#FFFFFF" d="M412.577,56.058h-3.893l-5.467-12.836h-8.494v12.836h-3.475V26.411h11.686c3.17,0,5.52,0.865,7.047,2.595
		c1.527,1.73,2.291,3.624,2.291,5.68c0,1.579-0.428,3.092-1.281,4.54c-0.854,1.447-2.266,2.483-4.234,3.105L412.577,56.058z
		 M394.723,40.202h7.754c2.041,0,3.564-0.539,4.572-1.618c1.006-1.078,1.51-2.399,1.51-3.963c0-1.564-0.533-2.78-1.598-3.649
		c-1.064-0.868-2.406-1.303-4.027-1.303h-8.211V40.202z"/>
	<path fill="#FFFFFF" d="M415.247,48.217l3.346-0.76c1.346,4.039,4.264,6.06,8.752,6.06c2.346,0,4.113-0.498,5.301-1.493
		c1.186-0.995,1.779-2.328,1.779-3.999c0-1.264-0.451-2.281-1.355-3.052c-0.904-0.77-1.951-1.3-3.137-1.591L424,41.92
		c-1.535-0.392-2.791-0.866-3.77-1.425c-0.977-0.559-1.807-1.418-2.486-2.577c-0.68-1.16-1.021-2.487-1.021-3.98
		c0-2.479,0.936-4.455,2.803-5.927s4.264-2.208,7.189-2.208c5.387,0,8.926,2.439,10.621,7.319l-3.367,0.999
		c-0.391-1.737-1.311-3.052-2.758-3.942c-1.449-0.891-2.99-1.335-4.627-1.335c-1.621,0-3.066,0.429-4.332,1.287
		c-1.268,0.858-1.9,2.073-1.9,3.645c0,2.196,1.605,3.68,4.816,4.451l5.543,1.3c5.068,1.217,7.602,3.946,7.602,8.189
		c0,2.563-0.953,4.696-2.855,6.397c-1.904,1.702-4.588,2.553-8.047,2.553C421.27,56.666,417.215,53.85,415.247,48.217z"/>
	<path fill="#FFFFFF" d="M462.12,52.8v3.258h-19.18V26.411h18.766v3.258h-15.051v9.426H458.6v3.02h-11.945V52.8H462.12z"/>
	<path fill="#FFFFFF" d="M464.051,48.217l3.346-0.76c1.346,4.039,4.264,6.06,8.752,6.06c2.346,0,4.113-0.498,5.301-1.493
		c1.186-0.995,1.779-2.328,1.779-3.999c0-1.264-0.451-2.281-1.355-3.052c-0.904-0.77-1.951-1.3-3.137-1.591l-5.932-1.462
		c-1.535-0.392-2.791-0.866-3.77-1.425c-0.977-0.559-1.807-1.418-2.486-2.577c-0.68-1.16-1.021-2.487-1.021-3.98
		c0-2.479,0.936-4.455,2.803-5.927s4.264-2.208,7.189-2.208c5.387,0,8.926,2.439,10.621,7.319l-3.367,0.999
		c-0.391-1.737-1.311-3.052-2.758-3.942c-1.449-0.891-2.99-1.335-4.627-1.335c-1.621,0-3.066,0.429-4.332,1.287
		c-1.268,0.858-1.9,2.073-1.9,3.645c0,2.196,1.605,3.68,4.816,4.451l5.543,1.3c5.068,1.217,7.602,3.946,7.602,8.189
		c0,2.563-0.953,4.696-2.855,6.397c-1.904,1.702-4.588,2.553-8.047,2.553C470.075,56.666,466.02,53.85,464.051,48.217z"/>
</g>
</svg>
