<?xml version="1.0" encoding="utf-8"?>
<!-- Generator: Adobe Illustrator 16.0.4, SVG Export Plug-In . SVG Version: 6.00 Build 0)  -->
<!DOCTYPE svg PUBLIC "-//W3C//DTD SVG 1.1//EN" "http://www.w3.org/Graphics/SVG/1.1/DTD/svg11.dtd">
<svg version="1.1" id="Layer_1" xmlns="http://www.w3.org/2000/svg" xmlns:xlink="http://www.w3.org/1999/xlink" x="0px" y="0px"
	 width="473.64px" height="147.5px" viewBox="0 0 473.64 147.5" enable-background="new 0 0 473.64 147.5" xml:space="preserve">
<g>
	<g>
		<path fill-rule="evenodd" clip-rule="evenodd" fill="#0F3B63" d="M115.159,59.971C79.235,78.783,56.749,95.688,27.441,98.44
			c-9.543,0.893-15.398-0.714-18.385-3.538c9.666,13.581,27.662,19.718,39.732,36.667c6.007,7.336,10.821,13.207,24.424,10.624
			c13.595-2.581,53.687-27.482,146.572-60.116c10.273-3.612,20.741-6.569,31.247-8.939c84.475-19.098,171.394-0.633,179.249,17.488
			c2.85,6.573,1.629,10.782-2.61,12.902c-0.055,0.022-0.091,0.042-0.126,0.064c9.36-2.97,16.924-18.303,24.756-27.414
			c7.264-8.449,22.72-23.107,11.808-33.844C416.615-4.38,296.729,5.045,232.733,18.395
			C179.093,29.587,143.067,45.354,115.159,59.971z"/>
		<path fill="#FFFFFF" d="M68.312,144.199c-10.79,0.451-15.438-5.22-20.817-11.796l-0.06-0.077
			c-6.242-8.754-14.069-14.548-21.643-20.15c-6.884-5.099-13.391-9.906-18.09-16.511l2.52-1.727
			c2.948,2.771,8.913,3.859,17.066,3.096c21.949-2.061,40.22-12.311,63.351-25.288c7.437-4.177,23.655-12.766,32.479-16.761
			c28.287-12.814,53.501-24.944,109.27-37.966c15.501-3.619,49.933-10.341,88.47-11.922c48.778-2.002,111.432,3.82,144.438,36.288
			c10.662,10.5-1.324,23.947-9.261,32.841c-0.886,0.993-1.733,1.935-2.486,2.808c-2.347,2.736-4.657,6.018-7.092,9.491
			c-5.603,7.949-11.377,16.171-18.394,18.394l-1.279-2.567l0.098-0.049c3.681-1.836,4.323-5.592,1.911-11.159
			c-5.758-13.266-58.518-26.807-117.919-24.366c-20.501,0.847-40.508,3.444-59.47,7.731c-10.72,2.418-21.168,5.408-31.047,8.877
			c-58.116,20.426-96.065,38.057-118.736,48.59c-14.211,6.608-22.797,10.591-28.092,11.601
			C71.69,143.927,69.939,144.134,68.312,144.199z M50.111,130.768c5.224,6.382,9.018,10.987,18.088,10.614
			c1.442-0.065,3.015-0.257,4.688-0.565c4.865-0.928,13.781-5.073,27.274-11.341c22.724-10.564,60.768-28.238,119.052-48.709
			c9.994-3.522,20.579-6.547,31.432-8.998c19.17-4.333,39.392-6.965,60.115-7.812c63.504-2.606,114.742,11.688,121.014,26.148
			c1.435,3.311,1.83,5.943,1.59,8.04c3.584-3.424,7.034-8.316,10.39-13.104c2.376-3.372,4.833-6.858,7.277-9.705
			c0.753-0.889,1.606-1.84,2.513-2.853c7.705-8.63,18.251-20.461,9.37-29.189C430.734,11.631,369.33,6.37,321.218,8.35
			c-38.277,1.571-72.702,7.923-88.132,11.422c-53.213,12.078-86.905,27.57-113.944,40.274c-8.729,4.103-19.397,9.922-26.813,14.086
			c-23.489,13.175-42.042,23.587-64.733,25.71c-5.021,0.471-9.338,0.286-12.826-0.555c3.823,3.859,8.365,7.219,13.081,10.711
			C35.599,115.733,43.616,121.657,50.111,130.768z"/>
	</g>
	<g>
		<path fill-rule="evenodd" clip-rule="evenodd" fill="#F5D182" d="M27.441,98.44c29.31-2.743,51.794-19.657,87.717-38.469
			c-7.204-8.559-15.805-13.356-23.958-19.368c0.556,0.493,1.009,1.068,1.367,1.736c4.484,8.41-7.062,15.904-15.208,18.978
			c-14.427,5.447-30.197,5.404-44.036,8.141c-5.938,1.175-11.513,2.856-16.479,5.7c-9.007,5.164-13.34,14.525-7.789,19.757
			C12.043,97.726,17.898,99.333,27.441,98.44z"/>
		<path fill="#FFFFFF" d="M24.49,100.056L24.49,100.056c-7.629,0.312-13.368-1.133-16.599-4.177
			c-2.283-2.146-3.248-4.973-2.79-8.176c0.722-5.034,4.894-10.286,10.879-13.727c4.611-2.642,10.022-4.518,17.01-5.897
			c4.874-0.967,9.85-1.571,15.125-2.214c9.55-1.168,19.419-2.369,28.636-5.849c5.409-2.045,12.48-6.164,14.605-11.059
			c0.906-2.061,0.825-4.025-0.233-5.998c-0.269-0.523-0.628-0.98-1.063-1.357l2.172-2.09c1.958,1.441,3.986,2.847,5.956,4.207
			c6.229,4.311,12.671,8.771,18.247,15.405l1.065,1.259l-1.539,0.802c-8.542,4.479-16.225,8.783-23.646,12.947
			c-23.48,13.178-42.029,23.587-64.72,25.717C26.529,99.942,25.484,100.014,24.49,100.056z M95.116,45.202
			c0.173,1.562-0.088,3.155-0.779,4.752C91.853,55.68,84.256,60.247,77.98,62.616c-9.615,3.632-19.709,4.859-29.453,6.047
			c-5.208,0.633-10.126,1.237-14.875,2.171c-6.606,1.305-11.676,3.058-15.953,5.508c-5.14,2.944-8.831,7.534-9.431,11.688
			c-0.235,1.633-0.084,3.986,1.954,5.908c2.584,2.431,7.472,3.573,14.154,3.294l0,0c0.934-0.039,1.915-0.101,2.912-0.195
			c21.949-2.064,40.218-12.314,63.345-25.288c6.989-3.921,14.196-7.965,22.16-12.168c-5.054-5.645-10.671-9.536-16.59-13.629
			C95.841,45.702,95.479,45.452,95.116,45.202z"/>
	</g>
	<g>
		<path fill-rule="evenodd" clip-rule="evenodd" fill="#0F3B63" d="M33.324,69.458c13.838-2.736,29.608-2.694,44.036-8.141
			c8.146-3.074,19.691-10.568,15.208-18.978c-0.358-0.668-0.811-1.243-1.367-1.736c-4.875-4.375-16.726-2.132-24.376,2.188
			C55.49,49.185,42.899,61.126,19.431,56.3C23.323,64.836,28.764,62.327,33.324,69.458z"/>
		<path fill="#FFFFFF" d="M32.502,71.062l-0.57-0.899c-1.895-2.97-3.923-4.067-6.067-5.229c-2.766-1.506-5.62-3.058-7.912-8.092
			L16.792,54.3l3.01,0.623c4.148,0.851,8.184,1.201,12,1.042c12.099-0.497,20.693-5.946,28.28-10.76
			c2.039-1.289,3.961-2.519,5.894-3.606c4.828-2.727,11.045-4.548,16.229-4.762c4.419-0.182,7.924,0.772,10.136,2.762
			c0.684,0.617,1.25,1.324,1.674,2.132c1.421,2.662,1.532,5.434,0.322,8.222C91.853,55.68,84.256,60.247,77.98,62.616
			c-9.615,3.632-19.709,4.859-29.453,6.047c-5.208,0.633-10.126,1.237-14.875,2.171L32.502,71.062z M22.3,58.247
			c1.568,2.262,3.306,3.213,5.255,4.262c2.079,1.139,4.417,2.408,6.556,5.355c4.517-0.844,9.135-1.409,14.005-2
			c9.55-1.168,19.419-2.369,28.636-5.849c5.409-2.045,12.48-6.164,14.605-11.059c0.906-2.061,0.825-4.025-0.233-5.998
			c-0.269-0.523-0.628-0.98-1.063-1.357c-1.985-1.782-5.301-2.038-7.738-1.938c-4.66,0.191-10.271,1.84-14.649,4.313
			c-1.855,1.052-3.751,2.252-5.756,3.521c-7.947,5.041-16.954,10.757-30.001,11.292l0,0C28.815,58.916,25.592,58.737,22.3,58.247z"
			/>
	</g>
	<g>
		<path fill-rule="evenodd" clip-rule="evenodd" fill="#0F3B63" d="M280.778,79.442c-19.857,3.509-31.345,12.662-29.852,20.416
			c1.542,8.088,17.245,14.655,52.3,11.659c67.064-5.722,87.831,25.211,87.831,25.211s-6.31-23.507,2.314-36
			c-14.759-5.249-30.16-13.142-41.611-16.372C328.726,77.855,301.711,75.749,280.778,79.442z"/>
		<path fill="#FFFFFF" d="M392.794,139.214c-0.182-0.27-22.408-29.245-80.82-26.837c-2.813,0.117-5.709,0.299-8.614,0.542
			c-3.2,0.272-6.336,0.475-9.302,0.598c-26.178,1.071-42.891-3.94-44.708-13.405c-1.753-9.127,11.637-18.611,31.141-22.052
			c5.079-0.902,10.606-1.474,16.442-1.714c17.855-0.73,37.506,1.636,55.325,6.66c6.494,1.834,14.148,5.103,22.26,8.566
			c6.381,2.726,12.982,5.537,19.455,7.842l1.743,0.626l-0.99,1.418c-8.186,11.854-2.178,34.701-2.116,34.932L392.794,139.214z
			 M311.854,109.554c31.498-1.299,51.677,5.897,63.06,12.168c6.252,3.44,10.595,6.952,13.393,9.637
			c-1.276-7.514-2.454-20.799,2.794-29.916c-6.03-2.217-12.104-4.811-17.991-7.323c-8.007-3.418-15.563-6.641-21.844-8.419
			c-17.223-4.859-36.982-7.238-54.208-6.531c-5.687,0.237-11.049,0.792-15.97,1.662c-19.497,3.444-29.839,12.25-28.589,18.777
			c1.172,6.135,12.675,12.272,41.442,11.088c2.915-0.12,5.988-0.325,9.146-0.588C306.031,109.858,308.991,109.664,311.854,109.554z"
			/>
	</g>
	<g>
		<path fill-rule="evenodd" clip-rule="evenodd" fill="#F5D182" d="M280.778,79.442c20.933-3.693,47.947-1.587,70.982,4.915
			c11.451,3.229,26.853,11.123,41.611,16.372c12.915,4.606,25.333,7.186,34.172,2.866l0.126-0.064c4.239-2.12,5.46-6.33,2.61-12.902
			c-7.855-18.121-94.774-36.586-179.249-17.488c-3.642,13.912-1.775,21.318-0.104,26.719
			C249.434,92.104,260.921,82.951,280.778,79.442z"/>
		<path fill="#FFFFFF" d="M418.234,107.184c-6.741,0.276-14.839-1.359-25.473-5.145c-6.569-2.343-13.217-5.177-19.653-7.919
			c-8.007-3.418-15.563-6.641-21.844-8.419c-17.223-4.859-36.982-7.238-54.208-6.531c-5.687,0.237-11.049,0.792-15.97,1.662
			c-19.497,3.444-29.839,12.25-28.589,18.777l-3.116,0.633c-1.853-6.005-3.528-13.567,0.088-27.408l0.224-0.857l0.951-0.208
			c20.686-5.94,41.537-8.345,62.258-9.192c63.504-2.606,112.6,13.067,118.871,27.527c3.82,8.829,0.298,12.837-3.337,14.658
			l-0.133,0.062C425.414,106.242,422.026,107.034,418.234,107.184z M296.933,76.346c17.855-0.73,37.506,1.636,55.325,6.66
			c6.494,1.834,14.148,5.103,22.26,8.566c6.381,2.726,12.982,5.537,19.455,7.842c10.205,3.642,17.871,5.212,24.146,4.943
			c3.301-0.13,6.212-0.798,8.653-2.006l0.12-0.052c3.678-1.833,4.313-5.589,1.901-11.156
			c-5.758-13.266-59.018-28.475-118.419-26.038c-20.163,0.834-41.572,4.34-58.013,9.182c-2.061,8.261-2.116,14.093-1.435,18.699
			c4.1-6.553,15.168-12.383,29.563-14.927C285.569,77.157,291.097,76.586,296.933,76.346z"/>
	</g>
</g>
<g id="label">
	<path id="t_1_" fill="#FFFFFF" d="M88.115,117.617l-3.328,1.76l-8.071-15.281l-4.577,2.418l-1.476-2.793l12.484-6.594l1.476,2.794
		l-4.577,2.417L88.115,117.617z"/>
	<path id="h" fill="#FFFFFF" d="M107.614,107.698l-3.137,1.572l-3.978-7.938l-6.643,3.328l3.977,7.938l-3.135,1.571l-9.156-18.272
		l3.136-1.572l3.763,7.511l6.643-3.329l-3.763-7.511l3.136-1.571L107.614,107.698z"/>
	<path id="e_1_" fill="#FFFFFF" d="M123.022,100.358l-11.429,5.418l-8.757-18.468l11.312-5.363l1.303,2.748l-8.144,3.861
		l2.375,5.006l6.546-3.104l1.27,2.678l-6.546,3.104l2.451,5.167l8.261-3.914L123.022,100.358z"/>
	<path id="p" fill="#FFFFFF" stroke="#FFFFFF" stroke-width="0.914" stroke-miterlimit="10" d="M136.184,94.423l-3.375,1.476
		l-8.179-18.731l7.67-3.35c2.186-0.955,4.048-1.112,5.587-0.471c1.538,0.641,2.634,1.712,3.29,3.211
		c0.747,1.71,0.781,3.347,0.1,4.908c-0.68,1.56-1.898,2.725-3.655,3.491L132.942,87L136.184,94.423z M131.678,84.104l3.993-1.743
		c1.043-0.456,1.728-1.06,2.052-1.813c0.326-0.751,0.302-1.553-0.069-2.402c-0.335-0.769-0.877-1.318-1.625-1.646
		c-0.747-0.326-1.784-0.2-3.111,0.38l-3.691,1.611L131.678,84.104z"/>
	<path id="o_2_" fill="#FFFFFF" stroke="#FFFFFF" stroke-width="0.914" stroke-miterlimit="10" d="M157.406,85.778
		c-2.517,1.021-4.857,0.872-7.024-0.445c-2.168-1.317-3.815-3.364-4.942-6.138c-1.119-2.757-1.311-5.365-0.574-7.824
		c0.735-2.459,2.325-4.186,4.767-5.177c2.46-1,4.781-0.862,6.963,0.412s3.838,3.303,4.97,6.088c1.186,2.923,1.402,5.586,0.648,7.986
		C161.46,83.082,159.856,84.781,157.406,85.778z M156.318,83.019c1.229-0.5,2.063-1.432,2.501-2.793
		c0.438-1.363,0.114-3.382-0.972-6.055c-0.882-2.173-1.927-3.734-3.13-4.684c-1.204-0.951-2.547-1.125-4.026-0.522
		c-2.923,1.186-3.428,4.133-1.517,8.841c0.929,2.285,2.003,3.866,3.228,4.742C153.626,83.425,154.932,83.582,156.318,83.019z"/>
	<path id="w" fill="#FFFFFF" stroke="#FFFFFF" stroke-width="0.914" stroke-miterlimit="10" d="M184.824,53.143l1.93,21.07
		l-3.626,1.334l-9.014-12.702l1.721,15.385l-3.554,1.308L159.98,62.287l3.667-1.351l8.855,12.617l-1.688-15.254l3.499-1.289
		l8.968,12.576l-1.507-15.322L184.824,53.143z"/>
	<path id="e" fill="#FFFFFF" stroke="#FFFFFF" stroke-width="0.914" stroke-miterlimit="10" d="M207.564,67.222l-12.612,4.158
		l-6.4-19.408l12.486-4.117l0.952,2.889l-8.987,2.96l1.733,5.261l7.225-2.381l0.929,2.814l-7.225,2.383l1.791,5.432l9.116-3.005
		L207.564,67.222z"/>
	<path id="r" fill="#FFFFFF" stroke="#FFFFFF" stroke-width="0.914" stroke-miterlimit="10" d="M226.536,61.546l-3.733,1.104
		l-5.425-7.157l-4.968,1.467l2.379,8.058l-3.533,1.044l-5.788-19.602l8.5-2.512c2.365-0.696,4.26-0.677,5.687,0.063
		c1.426,0.74,2.389,1.956,2.89,3.652c0.743,2.517,0.077,4.594-1.997,6.24L226.536,61.546z M211.573,54.131l4.396-1.298
		c1.272-0.375,2.142-0.922,2.605-1.643c0.464-0.719,0.557-1.548,0.28-2.486c-0.255-0.862-0.767-1.467-1.537-1.819
		c-0.769-0.349-1.704-0.364-2.805-0.038l-4.682,1.383L211.573,54.131z"/>
	<path id="o_1_" fill="#FFFFFF" d="M244.429,57.264c-2.512,0.608-4.708,0.092-6.587-1.548c-1.879-1.643-3.17-3.916-3.874-6.828
		c-0.699-2.89-0.541-5.488,0.478-7.793c1.017-2.306,2.745-3.752,5.184-4.343c2.458-0.596,4.637-0.093,6.535,1.507
		c1.897,1.6,3.198,3.861,3.906,6.781c0.741,3.067,0.599,5.722-0.429,7.967C248.616,55.253,246.878,56.671,244.429,57.264z
		 M243.761,54.375c1.229-0.297,2.139-1.081,2.732-2.355c0.591-1.271,0.549-3.311-0.13-6.113c-0.552-2.28-1.335-3.984-2.352-5.109
		c-1.014-1.125-2.262-1.509-3.741-1.151c-2.92,0.706-3.782,3.528-2.588,8.467c0.579,2.397,1.391,4.122,2.435,5.179
		C241.16,54.351,242.375,54.711,243.761,54.375z"/>
	<path id="f" fill="#FFFFFF" d="M259.297,53.588l-3.533,0.724l-4.103-20.021l12.058-2.469l0.633,3.095l-8.52,1.745l1.119,5.472
		l6.706-1.375l0.615,3.007l-6.706,1.373L259.297,53.588z"/>
	<path id="c" fill="#FFFFFF" d="M287.391,41.496l3.27-0.107c0.095,2.056-0.403,3.833-1.494,5.331
		c-1.089,1.5-2.678,2.402-4.765,2.712c-1.76,0.26-3.256,0.008-4.489-0.758c-1.231-0.766-2.263-1.9-3.092-3.403
		c-0.827-1.501-1.383-3.21-1.667-5.125c-0.457-3.081-0.133-5.692,0.975-7.828c1.104-2.137,2.875-3.385,5.312-3.747
		c1.908-0.282,3.59,0.099,5.042,1.146c1.452,1.046,2.514,2.695,3.183,4.948l-3.161,0.831c-1.046-2.962-2.579-4.296-4.602-3.994
		c-1.298,0.189-2.212,0.975-2.742,2.352c-0.532,1.373-0.62,3.267-0.262,5.677c0.362,2.447,1.021,4.241,1.978,5.375
		c0.957,1.134,2.068,1.608,3.34,1.422c1.016-0.153,1.818-0.7,2.408-1.646C287.214,43.737,287.47,42.675,287.391,41.496z"/>
	<path id="o" fill="#FFFFFF" d="M301.584,47.304c-2.573,0.257-4.677-0.557-6.312-2.439c-1.636-1.884-2.602-4.317-2.898-7.296
		c-0.296-2.96,0.219-5.512,1.543-7.655c1.324-2.143,3.236-3.34,5.733-3.588c2.516-0.251,4.604,0.545,6.265,2.392
		c1.66,1.845,2.641,4.263,2.938,7.254c0.313,3.139-0.193,5.75-1.518,7.832C306.008,45.887,304.092,47.054,301.584,47.304z
		 M301.318,44.35c1.258-0.125,2.269-0.777,3.029-1.957c0.762-1.18,0.998-3.206,0.713-6.076c-0.233-2.334-0.775-4.127-1.626-5.381
		c-0.853-1.255-2.034-1.807-3.548-1.656c-2.989,0.299-4.232,2.975-3.728,8.03c0.245,2.456,0.812,4.278,1.699,5.466
		C298.746,43.967,299.899,44.491,301.318,44.35z"/>
	<path id="m_1_" fill="#FFFFFF" d="M332.112,45.21l-3.576,0.128l-0.64-17.882l-4.747,18.074l-1.839,0.066l-6.055-17.689
		l0.639,17.884l-2.864,0.102l-0.729-20.427l5.486-0.197l4.546,13.008l3.534-13.296l5.515-0.198L332.112,45.21z"/>
	<path id="m" fill="#FFFFFF" d="M355.315,46.083l-3.575-0.164l0.821-17.876l-6.208,17.628l-1.837-0.084l-4.592-18.125l-0.822,17.875
		l-2.863-0.133l0.94-20.417l5.483,0.251l3.47,13.337l4.607-12.964l5.513,0.253L355.315,46.083z"/>
	<path id="u" fill="#FFFFFF" d="M375.273,27.988l-1.682,13.023c-0.227,1.763-0.59,3.093-1.09,3.996
		c-0.502,0.902-1.334,1.626-2.503,2.175c-1.168,0.548-2.53,0.722-4.086,0.522c-1.576-0.205-2.832-0.667-3.768-1.392
		c-0.938-0.726-1.561-1.633-1.869-2.725c-0.31-1.092-0.362-2.441-0.156-4.044l1.719-13.292l3.548,0.459l-1.682,13.022
		c-0.23,1.784-0.023,3.001,0.615,3.652c0.64,0.65,1.432,1.037,2.373,1.16c1.086,0.14,1.991-0.047,2.719-0.563
		c0.729-0.516,1.204-1.623,1.423-3.327l1.682-13.025L375.273,27.988z"/>
	<path id="n" fill="#FFFFFF" d="M390.821,51.958l-3.332-0.717l-4.479-14.316c-0.068-0.219-0.182-0.576-0.338-1.068
		c-0.069-0.221-0.177-0.563-0.317-1.034l-3.147,14.64l-2.76-0.594l4.294-19.983l3.793,0.815l4.135,13.204
		c0.034,0.107,0.282,0.914,0.75,2.412l2.991-13.923l2.705,0.581L390.821,51.958z"/>
	<path id="i" fill="#FFFFFF" d="M398.217,54.123l-3.373-0.967l5.635-19.647l3.373,0.969L398.217,54.123z"/>
	<path id="t" fill="#FFFFFF" d="M408.675,57.569l-3.55-1.25l5.735-16.298l-4.882-1.719l1.049-2.981l13.317,4.688l-1.05,2.98
		l-4.882-1.719L408.675,57.569z"/>
	<path id="y" fill="#FFFFFF" d="M423.566,63.784l-3.383-1.553l3.602-7.839l-1.092-13.502l3.862,1.775l0.677,9.588l7.538-5.812
		l3.06,1.406l-10.663,8.1L423.566,63.784z"/>
</g>
</svg>
