<?xml version="1.0" encoding="utf-8"?>
<!-- Generator: Adobe Illustrator 16.0.4, SVG Export Plug-In . SVG Version: 6.00 Build 0)  -->
<!DOCTYPE svg PUBLIC "-//W3C//DTD SVG 1.1//EN" "http://www.w3.org/Graphics/SVG/1.1/DTD/svg11.dtd">
<svg version="1.1" id="Layer_1" xmlns="http://www.w3.org/2000/svg" xmlns:xlink="http://www.w3.org/1999/xlink" x="0px" y="0px"
	 width="1061px" height="123.069px" viewBox="0 0 1061 123.069" enable-background="new 0 0 1061 123.069" xml:space="preserve">
<g>
	<defs>
		<rect id="SVGID_1_" x="30" y="32.988" width="1007" height="59.435"/>
	</defs>
	<clipPath id="SVGID_2_">
		<use xlink:href="#SVGID_1_"  overflow="visible"/>
	</clipPath>
	<path clip-path="url(#SVGID_2_)" fill="#FFFFFF" d="M1030.073,34.725l-14.951,25.71l-14.854-25.71h-8.288l18.737,32.428v23.536
		h7.012V67.152l18.735-32.428H1030.073z M972.588,40.873h16.07v-6.148h-39.111v6.148h16.028v49.815h7.013V40.873z M941.714,34.725
		h-7.007v55.964h7.007V34.725z M924.923,34.725h-5.534v37.657c0,1.175,0.026,2.526,0.083,4.056l0.08,3.894l-27.059-45.606h-8.776
		v55.964h5.658V49.115c0-0.955-0.04-2.132-0.121-3.526l-0.083-3.688l28.947,48.788h6.805V34.725z M868.936,71.284
		c0,5.061-1.123,8.725-3.36,10.993c-2.244,2.271-5.524,3.407-9.842,3.407c-2.243,0-4.386-0.423-6.439-1.271
		c-2.049-0.85-3.577-2.161-4.589-3.939c-1.011-1.778-1.519-4.842-1.519-9.19v-36.56h-7.01v36.555c0,7.141,1.559,12.35,4.674,15.635
		c3.114,3.282,7.912,4.923,14.389,4.923c5.823,0,10.53-1.594,14.128-4.783c3.593-3.187,5.389-8.443,5.389-15.774V34.725h-5.82
		V71.284z M827.254,34.725h-10.246l-16.504,44.758l-16.908-44.758H773.22v55.964h5.944V41.817l18.36,48.871h4.757l18.169-48.871
		v48.871h6.804V34.725z M763.436,34.725h-10.246l-16.504,44.758l-16.908-44.758h-10.376v55.964h5.943V41.817l18.362,48.871h4.756
		l18.168-48.871v48.871h6.805V34.725z M664.505,79.674c-2.843-4.311-4.262-9.896-4.262-16.765c0-7.028,1.407-12.721,4.222-17.069
		c2.814-4.35,6.615-6.525,11.396-6.525c4.729,0,8.521,2.012,11.379,6.033c2.856,4.021,4.282,9.645,4.282,16.864
		c0,7.033-1.38,12.776-4.14,17.236c-2.76,4.459-6.586,6.688-11.479,6.688C671.146,86.137,667.349,83.983,664.505,79.674
		 M692.773,82.994c4.058-5.894,6.089-12.806,6.089-20.74c0-8.26-2.092-15.105-6.274-20.533c-4.181-5.432-9.73-8.145-16.644-8.145
		c-6.942,0-12.519,2.763-16.727,8.287c-4.208,5.525-6.314,12.527-6.314,21.007c0,8.124,2.011,14.98,6.025,20.577
		c4.021,5.592,9.621,8.39,16.811,8.39C683.035,91.837,688.716,88.889,692.773,82.994 M627.156,85.89
		c-4.591,0-8.282-2.069-11.069-6.21c-2.788-4.142-4.183-9.642-4.183-16.504c0-7.486,1.361-13.303,4.08-17.443
		c2.718-4.141,6.552-6.211,11.499-6.211c6.697,0,11.247,4.455,13.65,13.364l6.602-1.312c-2.979-11.999-9.713-17.998-20.21-17.998
		c-7.082,0-12.725,2.611-16.933,7.834c-4.211,5.227-6.314,12.146-6.314,20.761c0,8.343,2.017,15.372,6.048,21.092
		c4.031,5.715,9.587,8.574,16.665,8.574c10.771,0,17.684-6.177,20.744-18.533l-6.394-1.434
		C639.02,81.216,634.288,85.89,627.156,85.89 M551.187,64.202h22.59v-5.657h-22.59V40.873h27.26v-6.148h-34.273v55.964h7.014V64.202
		z M499.279,79.674c-2.843-4.311-4.263-9.896-4.263-16.765c0-7.028,1.409-12.721,4.224-17.069c2.814-4.35,6.613-6.525,11.396-6.525
		c4.729,0,8.521,2.012,11.377,6.033c2.855,4.021,4.287,9.645,4.287,16.864c0,7.033-1.383,12.776-4.143,17.236
		c-2.761,4.459-6.588,6.688-11.479,6.688C505.921,86.137,502.122,83.983,499.279,79.674 M527.549,82.994
		c4.06-5.894,6.088-12.806,6.088-20.74c0-8.26-2.091-15.105-6.272-20.533c-4.183-5.432-9.73-8.145-16.646-8.145
		c-6.942,0-12.519,2.763-16.728,8.287c-4.21,5.525-6.314,12.527-6.314,21.007c0,8.124,2.009,14.98,6.028,20.577
		c4.018,5.592,9.62,8.39,16.808,8.39C517.813,91.837,523.49,88.889,527.549,82.994"/>
	<path clip-path="url(#SVGID_2_)" fill="none" stroke="#FFFFFF" stroke-width="0.6196" stroke-miterlimit="13.191" d="
		M1030.073,34.725l-14.951,25.71l-14.854-25.71h-8.288l18.737,32.428v23.536h7.012V67.152l18.735-32.428H1030.073z M972.588,40.873
		h16.07v-6.148h-39.111v6.148h16.028v49.815h7.013V40.873z M941.714,34.725h-7.007v55.964h7.007V34.725z M924.923,34.725h-5.534
		v37.657c0,1.175,0.026,2.526,0.083,4.056l0.08,3.894l-27.059-45.606h-8.776v55.964h5.658V49.115c0-0.955-0.04-2.132-0.121-3.526
		l-0.083-3.688l28.947,48.788h6.805V34.725z M868.936,71.284c0,5.061-1.123,8.725-3.36,10.993c-2.244,2.271-5.524,3.407-9.842,3.407
		c-2.243,0-4.386-0.423-6.439-1.271c-2.049-0.85-3.577-2.161-4.589-3.939c-1.011-1.778-1.519-4.842-1.519-9.19v-36.56h-7.01v36.555
		c0,7.141,1.559,12.35,4.674,15.635c3.114,3.282,7.912,4.923,14.389,4.923c5.823,0,10.53-1.594,14.128-4.783
		c3.593-3.187,5.389-8.443,5.389-15.774V34.725h-5.82V71.284z M827.254,34.725h-10.246l-16.504,44.758l-16.908-44.758H773.22v55.964
		h5.944V41.817l18.36,48.871h4.757l18.169-48.871v48.871h6.804V34.725z M763.436,34.725h-10.246l-16.504,44.758l-16.908-44.758
		h-10.376v55.964h5.943V41.817l18.362,48.871h4.756l18.168-48.871v48.871h6.805V34.725z M664.505,79.674
		c-2.843-4.311-4.262-9.896-4.262-16.765c0-7.028,1.407-12.721,4.222-17.069c2.814-4.35,6.615-6.525,11.396-6.525
		c4.729,0,8.521,2.012,11.379,6.033c2.856,4.021,4.282,9.645,4.282,16.864c0,7.033-1.38,12.776-4.14,17.236
		c-2.76,4.459-6.586,6.688-11.479,6.688C671.146,86.137,667.349,83.983,664.505,79.674z M692.773,82.994
		c4.058-5.894,6.089-12.806,6.089-20.74c0-8.26-2.092-15.105-6.274-20.533c-4.181-5.432-9.73-8.145-16.644-8.145
		c-6.942,0-12.519,2.763-16.727,8.287c-4.208,5.525-6.314,12.527-6.314,21.007c0,8.124,2.011,14.98,6.025,20.577
		c4.021,5.592,9.621,8.39,16.811,8.39C683.035,91.837,688.716,88.889,692.773,82.994z M627.156,85.89
		c-4.591,0-8.282-2.069-11.069-6.21c-2.788-4.142-4.183-9.642-4.183-16.504c0-7.486,1.361-13.303,4.08-17.443
		c2.718-4.141,6.552-6.211,11.499-6.211c6.697,0,11.247,4.455,13.65,13.364l6.602-1.312c-2.979-11.999-9.713-17.998-20.21-17.998
		c-7.082,0-12.725,2.611-16.933,7.834c-4.211,5.227-6.314,12.146-6.314,20.761c0,8.343,2.017,15.372,6.048,21.092
		c4.031,5.715,9.587,8.574,16.665,8.574c10.771,0,17.684-6.177,20.744-18.533l-6.394-1.434
		C639.02,81.216,634.288,85.89,627.156,85.89z M551.187,64.202h22.59v-5.657h-22.59V40.873h27.26v-6.148h-34.273v55.964h7.014
		V64.202z M499.279,79.674c-2.843-4.311-4.263-9.896-4.263-16.765c0-7.028,1.409-12.721,4.224-17.069
		c2.814-4.35,6.613-6.525,11.396-6.525c4.729,0,8.521,2.012,11.377,6.033c2.855,4.021,4.287,9.645,4.287,16.864
		c0,7.033-1.383,12.776-4.143,17.236c-2.761,4.459-6.588,6.688-11.479,6.688C505.921,86.137,502.122,83.983,499.279,79.674z
		 M527.549,82.994c4.06-5.894,6.088-12.806,6.088-20.74c0-8.26-2.091-15.105-6.272-20.533c-4.183-5.432-9.73-8.145-16.646-8.145
		c-6.942,0-12.519,2.763-16.728,8.287c-4.21,5.525-6.314,12.527-6.314,21.007c0,8.124,2.009,14.98,6.028,20.577
		c4.018,5.592,9.62,8.39,16.808,8.39C517.813,91.837,523.49,88.889,527.549,82.994z"/>
	<path clip-path="url(#SVGID_2_)" fill="#FFFFFF" d="M425.481,42.76h13.366c3.144,0,5.589,0.758,7.34,2.275
		c1.749,1.517,2.625,3.506,2.625,5.966c0,2.68-0.889,4.784-2.664,6.313c-1.778,1.528-4.485,2.295-8.119,2.295h-12.547V42.76z
		 M449.221,65.964c6.725-2.705,10.084-7.652,10.084-14.841c0-4.838-1.584-8.779-4.754-11.829c-3.173-3.046-8.134-4.569-14.884-4.569
		h-24.272v55.964h10.086V67.689h14.187l8.692,22.999h10.66L449.221,65.964z M406.705,81.994h-26.281V66.333h20.829v-8.118h-20.829
		V43.046h25.913v-8.321h-35.999v55.964h36.367V81.994z M354.473,34.725l-10.62,40.793L332.7,34.725h-10.207l-10.087,40.793
		l-10.823-40.793h-10.701l15.292,55.964h10.374l10.127-41.165l11.149,41.165h10.58l14.965-55.964H354.473z M254.66,78.202
		c-2.201-3.484-3.302-8.603-3.302-15.354c0-13.912,4.32-20.868,12.956-20.868c4.374,0,7.601,1.824,9.678,5.476
		c2.077,3.646,3.116,8.684,3.116,15.106c0,7.898-1.257,13.353-3.771,16.359c-2.516,3.007-5.591,4.51-9.225,4.51
		C260.011,83.432,256.86,81.688,254.66,78.202 M281.473,83.573c4.388-5.314,6.579-12.292,6.579-20.93
		c0-8.227-2.111-15.08-6.333-20.562c-4.223-5.479-9.97-8.219-17.24-8.219c-7.216,0-13.026,2.74-17.424,8.219
		c-4.403,5.481-6.6,12.294-6.6,20.439c0,8.198,2.068,15.089,6.209,20.665c4.143,5.576,9.929,8.36,17.363,8.36
		C271.271,91.547,277.087,88.89,281.473,83.573 M203.186,43.088h11.029c3.964,0,6.704,0.82,8.22,2.459
		c1.517,1.641,2.276,3.609,2.276,5.905c0,2.542-0.821,4.58-2.46,6.109c-1.64,1.528-4.017,2.295-7.134,2.295h-11.93V43.088z
		 M203.186,68.508h13.98c5.247,0,9.579-1.585,12.996-4.756c3.418-3.172,5.126-7.312,5.126-12.425c0-4.48-1.579-8.368-4.735-11.663
		c-3.158-3.295-8.001-4.939-14.534-4.939h-22.918v55.964h10.085V68.508z"/>
	<path clip-path="url(#SVGID_2_)" fill="none" stroke="#FFFFFF" stroke-width="1.7483" stroke-miterlimit="13.191" d="
		M425.481,42.76h13.366c3.144,0,5.589,0.758,7.34,2.275c1.749,1.517,2.625,3.506,2.625,5.966c0,2.68-0.889,4.784-2.664,6.313
		c-1.778,1.528-4.485,2.295-8.119,2.295h-12.547V42.76z M449.221,65.964c6.725-2.705,10.084-7.652,10.084-14.841
		c0-4.838-1.584-8.779-4.754-11.829c-3.173-3.046-8.134-4.569-14.884-4.569h-24.272v55.964h10.086V67.689h14.187l8.692,22.999h10.66
		L449.221,65.964z M406.705,81.994h-26.281V66.333h20.829v-8.118h-20.829V43.046h25.913v-8.321h-35.999v55.964h36.367V81.994z
		 M354.473,34.725l-10.62,40.793L332.7,34.725h-10.207l-10.087,40.793l-10.823-40.793h-10.701l15.292,55.964h10.374l10.127-41.165
		l11.149,41.165h10.58l14.965-55.964H354.473z M254.66,78.202c-2.201-3.484-3.302-8.603-3.302-15.354
		c0-13.912,4.32-20.868,12.956-20.868c4.374,0,7.601,1.824,9.678,5.476c2.077,3.646,3.116,8.684,3.116,15.106
		c0,7.898-1.257,13.353-3.771,16.359c-2.516,3.007-5.591,4.51-9.225,4.51C260.011,83.432,256.86,81.688,254.66,78.202z
		 M281.473,83.573c4.388-5.314,6.579-12.292,6.579-20.93c0-8.227-2.111-15.08-6.333-20.562c-4.223-5.479-9.97-8.219-17.24-8.219
		c-7.216,0-13.026,2.74-17.424,8.219c-4.403,5.481-6.6,12.294-6.6,20.439c0,8.198,2.068,15.089,6.209,20.665
		c4.143,5.576,9.929,8.36,17.363,8.36C271.271,91.547,277.087,88.89,281.473,83.573z M203.186,43.088h11.029
		c3.964,0,6.704,0.82,8.22,2.459c1.517,1.641,2.276,3.609,2.276,5.905c0,2.542-0.821,4.58-2.46,6.109
		c-1.64,1.528-4.017,2.295-7.134,2.295h-11.93V43.088z M203.186,68.508h13.98c5.247,0,9.579-1.585,12.996-4.756
		c3.418-3.172,5.126-7.312,5.126-12.425c0-4.48-1.579-8.368-4.735-11.663c-3.158-3.295-8.001-4.939-14.534-4.939h-22.918v55.964
		h10.085V68.508z"/>
</g>
<path fill="#FFFFFF" d="M30.31,34.725v6.148h16.03v49.814h7.01V40.873h16.072v-6.148H30.31z M110.174,34.725v23.164H84.222V34.725
	h-7.008v55.963h7.008V64.038h25.952v26.649h7.013V34.725H110.174z M126.968,34.725v55.963h36.202v-6.15h-29.19V64.365h22.549v-5.698
	h-22.549V40.873h28.411v-6.148H126.968z"/>
<g>
	<defs>
		<rect id="SVGID_3_" x="30" y="32.988" width="1007" height="59.435"/>
	</defs>
	<clipPath id="SVGID_4_">
		<use xlink:href="#SVGID_3_"  overflow="visible"/>
	</clipPath>
	<path clip-path="url(#SVGID_4_)" fill="none" stroke="#FFFFFF" stroke-width="0.6196" stroke-miterlimit="13.191" d="
		M133.979,84.538V64.365h22.55v-5.698h-22.55V40.875h28.413v-6.15h-35.424v55.963h36.202v-6.149H133.979z M117.187,34.725h-7.011
		v23.164H84.222V34.725h-7.009v55.963h7.009V64.038h25.954v26.649h7.011V34.725z M53.351,40.875h16.072v-6.15H30.311v6.15h16.03
		v49.812h7.01V40.875z"/>
</g>
</svg>
