<?xml version="1.0" encoding="utf-8"?>
<!-- Generator: Adobe Illustrator 16.0.4, SVG Export Plug-In . SVG Version: 6.00 Build 0)  -->
<!DOCTYPE svg PUBLIC "-//W3C//DTD SVG 1.1//EN" "http://www.w3.org/Graphics/SVG/1.1/DTD/svg11.dtd">
<svg version="1.1" id="Layer_1" xmlns="http://www.w3.org/2000/svg" xmlns:xlink="http://www.w3.org/1999/xlink" x="0px" y="0px"
	 width="582px" height="97.312px" viewBox="0 0 582 97.312" enable-background="new 0 0 582 97.312" xml:space="preserve">
<g>
	<path fill="#FFFFFF" d="M4.5,38.02l7.058-1.506c0.847,3.996,4.095,5.994,9.746,5.994c2.579,0,4.562-0.512,5.951-1.535
		s2.082-2.293,2.082-3.81c0-1.103-0.315-2.121-0.945-3.057c-0.63-0.935-1.979-1.669-4.046-2.2l-7.708-2.008
		c-2.638-0.689-4.587-1.472-5.847-2.348c-1.26-0.876-2.27-2.112-3.027-3.707c-0.758-1.595-1.137-3.297-1.137-5.108
		c0-3.604,1.339-6.492,4.016-8.668c2.677-2.175,6.103-3.263,10.277-3.263c3.465,0,6.561,0.758,9.288,2.273
		c2.727,1.517,4.464,3.662,5.212,6.438l-6.91,1.712c-1.063-3.051-3.544-4.577-7.442-4.577c-2.264,0-3.992,0.473-5.183,1.418
		c-1.191,0.944-1.787,2.146-1.787,3.603c0,2.304,1.87,3.918,5.611,4.844l6.852,1.713c4.154,1.043,6.94,2.584,8.357,4.621
		c1.417,2.038,2.126,4.287,2.126,6.748c0,3.957-1.492,7.073-4.474,9.347c-2.983,2.274-6.847,3.411-11.591,3.411
		c-3.997,0-7.497-0.837-10.499-2.51C7.479,44.172,5.485,41.563,4.5,38.02z"/>
	<path fill="#FFFFFF" d="M70.947,7.425v25.899c0,3.504-0.394,6.201-1.181,8.092c-0.788,1.89-2.309,3.519-4.563,4.887
		c-2.254,1.369-5.005,2.053-8.254,2.053c-3.288,0-5.99-0.591-8.106-1.771c-2.117-1.182-3.638-2.801-4.562-4.858
		c-0.926-2.057-1.388-4.681-1.388-7.87V7.425h7.413v25.899c0,3.543,0.743,5.872,2.229,6.983c1.486,1.113,3.214,1.669,5.183,1.669
		c2.264,0,4.076-0.595,5.434-1.786s2.038-3.48,2.038-6.866V7.425H70.947z"/>
	<path fill="#FFFFFF" d="M101.778,33.737l6.733,0.738c-0.433,4.036-1.993,7.358-4.681,9.967c-2.688,2.609-6.217,3.913-10.587,3.913
		c-3.682,0-6.669-0.925-8.963-2.776c-2.293-1.85-4.061-4.36-5.301-7.53s-1.86-6.664-1.86-10.483c0-6.143,1.457-11.139,4.371-14.987
		c2.914-3.85,6.92-5.773,12.02-5.773c3.996,0,7.324,1.23,9.981,3.691s4.331,5.985,5.021,10.572l-6.733,0.709
		c-1.24-6.084-3.977-9.126-8.209-9.126c-2.717,0-4.829,1.266-6.335,3.795c-1.506,2.53-2.259,6.197-2.259,11.001
		c0,4.883,0.807,8.569,2.421,11.06c1.614,2.49,3.75,3.735,6.408,3.735c2.126,0,3.938-0.836,5.434-2.51
		C100.735,38.059,101.582,36.061,101.778,33.737z"/>
	<path fill="#FFFFFF" d="M136.803,33.737l6.733,0.738c-0.433,4.036-1.993,7.358-4.681,9.967c-2.688,2.609-6.217,3.913-10.587,3.913
		c-3.682,0-6.669-0.925-8.963-2.776c-2.293-1.85-4.061-4.36-5.301-7.53s-1.86-6.664-1.86-10.483c0-6.143,1.457-11.139,4.371-14.987
		c2.914-3.85,6.92-5.773,12.02-5.773c3.996,0,7.324,1.23,9.981,3.691s4.331,5.985,5.021,10.572l-6.733,0.709
		c-1.24-6.084-3.977-9.126-8.209-9.126c-2.717,0-4.829,1.266-6.335,3.795c-1.506,2.53-2.259,6.197-2.259,11.001
		c0,4.883,0.807,8.569,2.421,11.06c1.614,2.49,3.75,3.735,6.408,3.735c2.126,0,3.938-0.836,5.434-2.51
		C135.76,38.059,136.606,36.061,136.803,33.737z"/>
	<path fill="#FFFFFF" d="M175.49,47.735h-26.195V7.425h25.929v5.994H156.56v10.927h15.002v5.848H156.56v11.281h18.93V47.735z"/>
	<path fill="#FFFFFF" d="M177.527,38.02l7.058-1.506c0.847,3.996,4.095,5.994,9.746,5.994c2.579,0,4.562-0.512,5.951-1.535
		s2.082-2.293,2.082-3.81c0-1.103-0.315-2.121-0.945-3.057c-0.63-0.935-1.979-1.669-4.046-2.2l-7.708-2.008
		c-2.638-0.689-4.587-1.472-5.847-2.348c-1.26-0.876-2.27-2.112-3.027-3.707c-0.758-1.595-1.137-3.297-1.137-5.108
		c0-3.604,1.339-6.492,4.016-8.668c2.677-2.175,6.103-3.263,10.277-3.263c3.465,0,6.561,0.758,9.288,2.273
		c2.727,1.517,4.464,3.662,5.212,6.438l-6.91,1.712c-1.063-3.051-3.544-4.577-7.442-4.577c-2.264,0-3.992,0.473-5.183,1.418
		c-1.191,0.944-1.787,2.146-1.787,3.603c0,2.304,1.87,3.918,5.611,4.844l6.852,1.713c4.154,1.043,6.94,2.584,8.357,4.621
		c1.417,2.038,2.126,4.287,2.126,6.748c0,3.957-1.492,7.073-4.474,9.347c-2.983,2.274-6.847,3.411-11.591,3.411
		c-3.997,0-7.497-0.837-10.499-2.51C180.505,44.172,178.512,41.563,177.527,38.02z"/>
	<path fill="#FFFFFF" d="M212.08,38.02l7.058-1.506c0.847,3.996,4.095,5.994,9.746,5.994c2.579,0,4.562-0.512,5.951-1.535
		s2.082-2.293,2.082-3.81c0-1.103-0.315-2.121-0.945-3.057c-0.63-0.935-1.979-1.669-4.046-2.2l-7.708-2.008
		c-2.638-0.689-4.587-1.472-5.847-2.348c-1.26-0.876-2.27-2.112-3.027-3.707c-0.758-1.595-1.137-3.297-1.137-5.108
		c0-3.604,1.339-6.492,4.016-8.668c2.677-2.175,6.103-3.263,10.277-3.263c3.465,0,6.561,0.758,9.288,2.273
		c2.727,1.517,4.464,3.662,5.212,6.438l-6.91,1.712c-1.063-3.051-3.544-4.577-7.442-4.577c-2.264,0-3.992,0.473-5.183,1.418
		c-1.191,0.944-1.787,2.146-1.787,3.603c0,2.304,1.87,3.918,5.611,4.844l6.852,1.713c4.154,1.043,6.94,2.584,8.357,4.621
		c1.417,2.038,2.126,4.287,2.126,6.748c0,3.957-1.492,7.073-4.474,9.347c-2.983,2.274-6.847,3.411-11.591,3.411
		c-3.997,0-7.497-0.837-10.499-2.51C215.058,44.172,213.064,41.563,212.08,38.02z"/>
	<path fill="#FFFFFF" d="M258.327,47.735h-7.472V7.425h25.486v6.23h-18.014v11.016h14.175v6.054h-14.175V47.735z"/>
	<path fill="#FFFFFF" d="M309.239,7.425v25.899c0,3.504-0.394,6.201-1.181,8.092c-0.788,1.89-2.309,3.519-4.563,4.887
		c-2.254,1.369-5.005,2.053-8.254,2.053c-3.288,0-5.99-0.591-8.106-1.771c-2.117-1.182-3.638-2.801-4.562-4.858
		c-0.926-2.057-1.388-4.681-1.388-7.87V7.425h7.413v25.899c0,3.543,0.743,5.872,2.229,6.983c1.486,1.113,3.214,1.669,5.183,1.669
		c2.264,0,4.076-0.595,5.434-1.786s2.038-3.48,2.038-6.866V7.425H309.239z"/>
	<path fill="#FFFFFF" d="M342.344,47.735h-24.806V7.425h7.649v33.725h17.157V47.735z"/>
	<path fill="#FFFFFF" d="M393.405,27.122v20.613h-3.22l-2.215-5.434c-2.343,4.036-5.975,6.054-10.896,6.054
		c-5.493,0-9.594-2.087-12.301-6.261s-4.061-9.007-4.061-14.5c0-5.808,1.512-10.725,4.533-14.751
		c3.022-4.026,7.25-6.039,12.685-6.039c4.056,0,7.393,1.176,10.011,3.528c2.619,2.354,4.272,5.282,4.961,8.786l-6.319,1.122
		c-1.181-4.922-4.007-7.383-8.476-7.383c-2.854,0-5.183,1.162-6.984,3.484c-1.801,2.323-2.701,5.896-2.701,10.721
		c0,10.179,3.189,15.268,9.567,15.268c2.481,0,4.533-0.856,6.157-2.569c1.625-1.713,2.437-3.977,2.437-6.792h-8.327v-5.848H393.405z
		"/>
	<path fill="#FFFFFF" d="M433.066,47.735h-7.678l-6.262-16.567H408.91v16.567h-7.266V7.425h17.482c4.863,0,8.437,1.098,10.721,3.292
		c2.283,2.196,3.426,5.035,3.426,8.521c0,5.178-2.422,8.741-7.266,10.69L433.066,47.735z M408.91,25.351h9.036
		c2.618,0,4.567-0.552,5.847-1.654c1.28-1.103,1.92-2.618,1.92-4.548c0-1.771-0.631-3.204-1.89-4.297
		c-1.261-1.093-3.022-1.639-5.286-1.639h-9.627V25.351z"/>
	<path fill="#FFFFFF" d="M472.137,47.735h-7.767l-3.22-9.598h-15.504l-3.16,9.598h-6.201l13.378-40.311h8.948L472.137,47.735z
		 M459.202,32.319l-5.877-17.984l-5.877,17.984H459.202z"/>
	<path fill="#FFFFFF" d="M476.773,47.735V7.425h14.854c5.493,0,9.903,1.944,13.229,5.832c3.328,3.889,4.992,8.688,4.992,14.396
		c0,5.71-1.713,10.484-5.139,14.323s-8.328,5.759-14.707,5.759H476.773z M484.245,41.8h6.054c3.248,0,6.005-1.221,8.27-3.662
		c2.264-2.441,3.396-6.073,3.396-10.897c0-3.938-0.989-7.27-2.968-9.996s-4.592-4.091-7.841-4.091h-6.91V41.8z"/>
	<path fill="#FFFFFF" d="M512.359,38.02l7.058-1.506c0.847,3.996,4.095,5.994,9.745,5.994c2.58,0,4.562-0.512,5.951-1.535
		s2.082-2.293,2.082-3.81c0-1.103-0.314-2.121-0.945-3.057c-0.63-0.935-1.979-1.669-4.045-2.2l-7.709-2.008
		c-2.638-0.689-4.587-1.472-5.847-2.348c-1.261-0.876-2.27-2.112-3.026-3.707c-0.759-1.595-1.138-3.297-1.138-5.108
		c0-3.604,1.339-6.492,4.017-8.668c2.677-2.175,6.103-3.263,10.277-3.263c3.465,0,6.561,0.758,9.287,2.273
		c2.727,1.517,4.464,3.662,5.213,6.438l-6.91,1.712c-1.064-3.051-3.545-4.577-7.443-4.577c-2.264,0-3.991,0.473-5.182,1.418
		c-1.191,0.944-1.787,2.146-1.787,3.603c0,2.304,1.87,3.918,5.611,4.844l6.852,1.713c4.153,1.043,6.939,2.584,8.357,4.621
		c1.417,2.038,2.126,4.287,2.126,6.748c0,3.957-1.491,7.073-4.474,9.347c-2.983,2.274-6.848,3.411-11.592,3.411
		c-3.997,0-7.496-0.837-10.498-2.51C515.337,44.172,513.344,41.563,512.359,38.02z"/>
	<path fill="#FFFFFF" d="M564.424,36.159h-5.759v-3.987c0-1.339,0.271-2.392,0.812-3.16c0.542-0.768,1.729-1.86,3.559-3.277
		c2.796-2.146,4.193-4.42,4.193-6.822c0-1.811-0.546-3.248-1.639-4.312c-1.092-1.063-2.516-1.595-4.268-1.595
		c-4.056,0-6.447,2.806-7.176,8.417l-6.438-1.152c0.393-4.193,1.943-7.486,4.65-9.878c2.707-2.393,5.951-3.588,9.731-3.588
		c3.761,0,6.87,1.117,9.332,3.352c2.46,2.234,3.691,5.016,3.691,8.343c0,1.653-0.34,3.224-1.019,4.71
		c-0.68,1.487-1.453,2.639-2.318,3.455c-0.867,0.817-2.697,2.25-5.493,4.297c-0.788,0.571-1.29,1.128-1.507,1.669
		C564.561,33.172,564.443,34.348,564.424,36.159z M565.605,40.353v7.383h-6.94v-7.383H565.605z"/>
	<path fill="#FFFFFF" d="M99.18,53.466l-7.136,29.646h-3.72l-6.471-23.001l-6.002,23.001h-3.819l-7.526-29.646h3.854l5.936,24.021
		l6.291-24.021h3.022l6.78,24.021l5.529-24.021H99.18z"/>
	<path fill="#FFFFFF" d="M117.743,76.575l3.171,0.651c-0.58,1.874-1.709,3.425-3.388,4.652c-1.68,1.228-3.656,1.842-5.93,1.842
		c-2.997,0-5.422-1.055-7.276-3.163s-2.78-4.873-2.78-8.294c0-3.493,0.962-6.315,2.889-8.468c1.925-2.152,4.344-3.229,7.254-3.229
		c2.867,0,5.173,0.992,6.917,2.976c1.745,1.984,2.639,4.952,2.683,8.905h-15.942c0,3.315,0.695,5.553,2.085,6.711
		c1.39,1.159,2.859,1.737,4.409,1.737C114.63,80.896,116.6,79.456,117.743,76.575z M117.548,69.907
		c-0.029-1.23-0.232-2.324-0.608-3.28c-0.377-0.955-1.014-1.77-1.912-2.443c-0.898-0.673-1.976-1.01-3.236-1.01
		c-1.694,0-3.131,0.608-4.312,1.824c-1.18,1.217-1.843,2.854-1.987,4.909H117.548z"/>
	<path fill="#FFFFFF" d="M140.959,83.112h-1.65V53.466h3.41v11.358c1.564-2.837,3.721-4.257,6.472-4.257
		c2.52,0,4.63,0.993,6.332,2.979c1.701,1.985,2.552,4.87,2.552,8.652c0,3.262-0.836,5.997-2.508,8.207s-3.848,3.315-6.527,3.315
		c-2.983,0-5.271-1.412-6.863-4.235L140.959,83.112z M142.719,74.512c0.16,2.252,0.852,3.887,2.078,4.903
		c1.226,1.017,2.521,1.525,3.884,1.525c1.741,0,3.144-0.754,4.21-2.262c1.066-1.507,1.6-3.573,1.6-6.197
		c0-2.827-0.515-5.049-1.545-6.665c-1.03-1.617-2.458-2.425-4.286-2.425c-1.437,0-2.731,0.575-3.884,1.727
		c-1.153,1.15-1.838,2.639-2.056,4.463V74.512z"/>
	<path fill="#FFFFFF" d="M178.576,76.575l3.171,0.651c-0.58,1.874-1.709,3.425-3.388,4.652c-1.68,1.228-3.656,1.842-5.93,1.842
		c-2.997,0-5.422-1.055-7.276-3.163s-2.78-4.873-2.78-8.294c0-3.493,0.962-6.315,2.889-8.468c1.925-2.152,4.344-3.229,7.254-3.229
		c2.867,0,5.173,0.992,6.917,2.976c1.745,1.984,2.639,4.952,2.683,8.905h-15.942c0,3.315,0.695,5.553,2.085,6.711
		c1.39,1.159,2.859,1.737,4.409,1.737C175.463,80.896,177.433,79.456,178.576,76.575z M178.381,69.907
		c-0.029-1.23-0.232-2.324-0.608-3.28c-0.377-0.955-1.014-1.77-1.912-2.443c-0.898-0.673-1.976-1.01-3.236-1.01
		c-1.694,0-3.131,0.608-4.312,1.824c-1.18,1.217-1.843,2.854-1.987,4.909H178.381z"/>
	<path fill="#FFFFFF" d="M197.862,80.788v2.693c-1.202,0.159-2.245,0.239-3.127,0.239c-4.243,0-6.364-2.218-6.364-6.653v-13.22
		h-3.888v-2.672h3.888l0.152-5.517l3.171-0.304v5.82h4.909v2.672h-4.909v13.787c0,2.262,1.173,3.393,3.519,3.393
		C195.995,81.027,196.877,80.948,197.862,80.788z"/>
	<path fill="#FFFFFF" d="M229.554,61.176l-8.794,24.502c-1.275,3.531-3.312,5.297-6.108,5.297c-0.884,0-1.862-0.152-2.935-0.456
		v-2.672c0.883,0.203,1.643,0.305,2.28,0.305c1.085,0,1.994-0.312,2.725-0.935c0.731-0.622,1.46-2.14,2.188-4.552l-7.59-21.489
		h3.465l5.891,16.484l5.999-16.484H229.554z"/>
	<path fill="#FFFFFF" d="M241.125,83.721c-3.012,0-5.361-1.116-7.048-3.348c-1.687-2.232-2.53-5.001-2.53-8.305
		c0-3.493,0.948-6.283,2.845-8.37c1.896-2.087,4.257-3.131,7.08-3.131c3.026,0,5.412,1.098,7.157,3.294
		c1.745,2.195,2.617,4.938,2.617,8.229c0,3.42-0.941,6.214-2.824,8.381C246.54,82.637,244.107,83.721,241.125,83.721z
		 M241.385,80.896c1.738,0,3.193-0.716,4.366-2.149s1.759-3.663,1.759-6.689c0-3.041-0.616-5.246-1.846-6.614
		c-1.231-1.368-2.671-2.052-4.322-2.052c-1.694,0-3.128,0.691-4.301,2.074s-1.759,3.572-1.759,6.569c0,3.171,0.586,5.441,1.759,6.81
		S239.662,80.896,241.385,80.896z"/>
	<path fill="#FFFFFF" d="M274.528,83.112h-3.084v-4.191c-1.562,3.2-3.889,4.8-6.983,4.8c-2.241,0-4.001-0.739-5.281-2.218
		s-1.919-3.58-1.919-6.305V61.176h3.41v14.009c0,2.172,0.453,3.667,1.357,4.485s1.9,1.227,2.986,1.227
		c1.101,0,2.096-0.311,2.986-0.934c0.891-0.622,1.632-1.51,2.227-2.66c0.593-1.151,0.891-2.407,0.891-3.769V61.176h3.41V83.112z"/>
	<path fill="#FFFFFF" d="M312.361,83.112h-3.535l-6.412-12.248l-4.758,5.472v6.776h-3.41V53.466h3.41V72.47l10.189-11.294h3.646
		l-6.854,7.702L312.361,83.112z"/>
	<path fill="#FFFFFF" d="M334.71,83.112h-3.192V69.017c0-2.027-0.442-3.453-1.326-4.279c-0.883-0.825-1.954-1.237-3.214-1.237
		c-1.737,0-3.196,0.694-4.376,2.085c-1.18,1.39-1.77,3.222-1.77,5.495v12.032h-3.41V61.176h3.171v4.04
		c1.781-3.099,4.09-4.648,6.928-4.648c1.636,0,3.03,0.424,4.181,1.271c1.151,0.848,1.94,1.8,2.367,2.856
		c0.428,1.057,0.642,2.969,0.642,5.734V83.112z"/>
	<path fill="#FFFFFF" d="M350.281,83.721c-3.012,0-5.361-1.116-7.047-3.348c-1.688-2.232-2.531-5.001-2.531-8.305
		c0-3.493,0.948-6.283,2.846-8.37c1.896-2.087,4.257-3.131,7.08-3.131c3.026,0,5.412,1.098,7.156,3.294
		c1.745,2.195,2.617,4.938,2.617,8.229c0,3.42-0.941,6.214-2.823,8.381C355.697,82.637,353.264,83.721,350.281,83.721z
		 M350.542,80.896c1.737,0,3.192-0.716,4.366-2.149c1.172-1.434,1.759-3.663,1.759-6.689c0-3.041-0.616-5.246-1.847-6.614
		s-2.671-2.052-4.321-2.052c-1.694,0-3.128,0.691-4.301,2.074s-1.759,3.572-1.759,6.569c0,3.171,0.586,5.441,1.759,6.81
		S348.818,80.896,350.542,80.896z"/>
	<path fill="#FFFFFF" d="M391.113,61.176l-6.315,21.937h-2.763l-4.898-16.289l-4.496,16.289h-2.803l-6.592-21.937h3.422
		l4.777,16.354l4.56-16.354h2.492l4.938,16.42l4.929-16.42H391.113z"/>
	<path fill="#FFFFFF" d="M425.428,83.112h-3.367c-0.13-0.695-0.26-2.013-0.391-3.953c-1.506,3.041-4.068,4.562-7.688,4.562
		c-2.462,0-4.351-0.653-5.669-1.958c-1.317-1.306-1.977-2.871-1.977-4.698c0-2.219,0.941-4.042,2.824-5.471
		c1.882-1.429,5.082-2.143,9.6-2.143c0.607,0,1.578,0.029,2.91,0.087c0-1.738-0.134-2.994-0.401-3.769
		c-0.269-0.774-0.837-1.394-1.705-1.857c-0.869-0.463-2.013-0.694-3.432-0.694c-3.461,0-5.474,1.317-6.038,3.952l-3.149-0.543
		c0.768-4.039,3.997-6.06,9.687-6.06c3.026,0,5.173,0.67,6.439,2.01c1.268,1.339,1.901,3.659,1.901,6.961v9.317
		C424.972,80.405,425.123,81.824,425.428,83.112z M421.67,72.145c-1.39-0.087-2.447-0.131-3.171-0.131
		c-2.693,0-4.786,0.443-6.276,1.328c-1.492,0.886-2.237,2.177-2.237,3.875c0,1.074,0.401,1.988,1.205,2.743s1.966,1.133,3.485,1.133
		c2.057,0,3.747-0.748,5.072-2.243c1.324-1.494,1.987-3.251,1.987-5.269C421.735,73.175,421.713,72.696,421.67,72.145z"/>
	<path fill="#FFFFFF" d="M453.791,61.176v2.672h-5.213v19.265h-3.41V63.848h-3.735v-2.672h3.735
		c0.059-3.519,0.735-5.784,2.031-6.798s2.878-1.521,4.746-1.521c0.912,0,1.955,0.102,3.127,0.304v2.715
		c-0.738-0.188-1.441-0.282-2.106-0.282c-1.491,0-2.596,0.33-3.312,0.988c-0.716,0.659-1.075,1.894-1.075,3.703v0.891H453.791z"/>
	<path fill="#FFFFFF" d="M472.295,76.575l3.172,0.651c-0.58,1.874-1.709,3.425-3.389,4.652s-3.656,1.842-5.93,1.842
		c-2.997,0-5.422-1.055-7.275-3.163s-2.78-4.873-2.78-8.294c0-3.493,0.962-6.315,2.889-8.468c1.925-2.152,4.344-3.229,7.254-3.229
		c2.867,0,5.173,0.992,6.917,2.976c1.746,1.984,2.64,4.952,2.684,8.905h-15.942c0,3.315,0.694,5.553,2.085,6.711
		c1.391,1.159,2.859,1.737,4.409,1.737C469.182,80.896,471.151,79.456,472.295,76.575z M472.1,69.907
		c-0.029-1.23-0.232-2.324-0.607-3.28c-0.377-0.955-1.014-1.77-1.912-2.443c-0.898-0.673-1.977-1.01-3.236-1.01
		c-1.693,0-3.131,0.608-4.311,1.824c-1.181,1.217-1.844,2.854-1.988,4.909H472.1z"/>
	<path fill="#FFFFFF" d="M506.372,61.176l-6.315,21.937h-2.763l-4.898-16.289l-4.496,16.289h-2.802l-6.592-21.937h3.421
		l4.778,16.354l4.559-16.354h2.492l4.938,16.42l4.929-16.42H506.372z"/>
	<path fill="#FFFFFF" d="M514.56,78.247v4.865h-4.865v-4.865H514.56z"/>
</g>
</svg>
