<?xml version="1.0" encoding="utf-8"?>
<!-- Generator: Adobe Illustrator 16.0.4, SVG Export Plug-In . SVG Version: 6.00 Build 0)  -->
<!DOCTYPE svg PUBLIC "-//W3C//DTD SVG 1.1//EN" "http://www.w3.org/Graphics/SVG/1.1/DTD/svg11.dtd">
<svg version="1.1" id="Layer_1" xmlns="http://www.w3.org/2000/svg" xmlns:xlink="http://www.w3.org/1999/xlink" x="0px" y="0px"
	 width="514.38px" height="68.42px" viewBox="0 0 514.38 68.42" enable-background="new 0 0 514.38 68.42" xml:space="preserve">
<g>
	<path fill="#C61F48" d="M34.62,54.316h-3.359V30.445H23.58v-2.947h18.743v2.947H34.62V54.316z"/>
	<path fill="#C61F48" d="M63.404,51.368v2.948H46.055V27.498h16.976v2.947H49.415v8.526h10.807v2.732H49.415v9.664H63.404z"/>
	<path fill="#C61F48" d="M83.131,51.368v2.948H67.294V27.498h3.438v23.87H83.131z"/>
	<path fill="#C61F48" d="M102.836,51.368v2.948H87V27.498h3.439v23.87H102.836z"/>
	<path fill="#C61F48" d="M132.052,27.498h2.79v17.52c0,3.511-0.86,6.031-2.583,7.559c-1.724,1.526-3.98,2.291-6.77,2.291
		c-3.105,0-5.402-0.787-6.896-2.36c-1.494-1.573-2.24-4.069-2.24-7.489v-17.52h3.36v17.521c0,2.083,0.243,3.551,0.726,4.403
		c0.486,0.853,1.219,1.482,2.2,1.889c0.985,0.405,2.012,0.609,3.085,0.609c2.071,0,3.641-0.545,4.715-1.633
		c1.076-1.087,1.612-2.846,1.612-5.269V27.498z"/>
	<path fill="#C61F48" d="M139.005,47.223l3.027-0.688c1.219,3.656,3.856,5.483,7.917,5.483c2.122,0,3.723-0.451,4.794-1.353
		c1.073-0.899,1.613-2.105,1.613-3.618c0-1.142-0.41-2.063-1.228-2.761c-0.821-0.694-1.767-1.175-2.837-1.437l-5.366-1.323
		c-1.391-0.354-2.525-0.784-3.411-1.289c-0.885-0.505-1.633-1.282-2.248-2.331s-0.924-2.252-0.924-3.601
		c0-2.243,0.845-4.029,2.534-5.363c1.688-1.331,3.857-1.995,6.503-1.995c4.872,0,8.076,2.206,9.606,6.62l-3.043,0.905
		c-0.354-1.573-1.188-2.761-2.495-3.566c-1.312-0.806-2.704-1.209-4.186-1.209c-1.466,0-2.773,0.389-3.92,1.163
		c-1.146,0.776-1.719,1.878-1.719,3.299c0,1.986,1.451,3.328,4.357,4.026l5.017,1.175c4.582,1.1,6.873,3.57,6.873,7.409
		c0,2.317-0.86,4.247-2.582,5.785c-1.724,1.542-4.151,2.312-7.28,2.312C144.456,54.867,140.788,52.319,139.005,47.223z"/>
	<path fill="#C61F48" d="M191.282,54.316h-7.662V37.401l-13.656-23.167h8.751l9.516,16.532l9.102-16.532h6.932l-12.981,23.167
		V54.316z"/>
	<path fill="#C61F48" d="M220.619,54.932c-5.326,0-9.47-1.994-12.436-5.986c-2.966-3.997-4.448-8.93-4.448-14.804
		c0-5.833,1.573-10.712,4.726-14.638c3.152-3.924,7.313-5.886,12.48-5.886c5.208,0,9.323,1.962,12.348,5.886
		c3.023,3.926,4.537,8.835,4.537,14.727c0,6.186-1.571,11.183-4.712,14.99C229.971,53.029,225.805,54.932,220.619,54.932z
		 M220.679,49.118c2.602,0,4.805-1.076,6.604-3.229c1.803-2.155,2.702-6.061,2.702-11.716c0-4.601-0.744-8.208-2.23-10.822
		c-1.489-2.612-3.8-3.919-6.93-3.919c-6.188,0-9.28,4.983-9.28,14.947c0,4.834,0.788,8.502,2.364,10.998
		S217.741,49.118,220.679,49.118z"/>
	<path fill="#C61F48" d="M269.659,14.234v25.752c0,3.484-0.39,6.167-1.173,8.047c-0.784,1.879-2.298,3.498-4.539,4.857
		c-2.242,1.363-4.977,2.041-8.207,2.041c-3.27,0-5.954-0.587-8.061-1.761c-2.104-1.176-3.616-2.786-4.536-4.829
		c-0.92-2.046-1.381-4.654-1.381-7.828v-26.28h7.373v25.752c0,3.523,0.736,5.838,2.215,6.943c1.478,1.107,3.196,1.661,5.153,1.661
		c2.251,0,4.053-0.592,5.402-1.778c1.353-1.182,2.028-3.459,2.028-6.826V14.234H269.659z"/>
	<path fill="#C61F48" d="M306.749,54.316h-7.634l-6.225-16.473h-10.159v16.473h-7.225V14.234h17.384
		c4.835,0,8.387,1.091,10.66,3.273c2.27,2.185,3.406,5.006,3.406,8.472c0,5.149-2.407,8.693-7.225,10.63L306.749,54.316z
		 M282.731,32.057h8.985c2.603,0,4.54-0.546,5.813-1.644c1.272-1.096,1.908-2.604,1.908-4.521c0-1.764-0.626-3.188-1.881-4.272
		c-1.25-1.089-3.003-1.631-5.256-1.631h-9.57V32.057z"/>
	<path fill="#C61F48" d="M323.784,44.654l7.017-1.497c0.844,3.974,4.074,5.961,9.69,5.961c2.566,0,4.538-0.509,5.918-1.528
		c1.379-1.017,2.071-2.278,2.071-3.787c0-1.096-0.314-2.109-0.939-3.038c-0.629-0.931-1.969-1.658-4.022-2.188l-7.666-1.997
		c-2.623-0.684-4.561-1.465-5.814-2.336c-1.25-0.869-2.256-2.099-3.009-3.683c-0.754-1.587-1.131-3.279-1.131-5.081
		c0-3.582,1.33-6.453,3.993-8.617c2.664-2.165,6.068-3.245,10.22-3.245c3.444,0,6.522,0.752,9.234,2.26
		c2.713,1.51,4.439,3.642,5.185,6.402l-6.873,1.701c-1.057-3.03-3.522-4.549-7.399-4.549c-2.25,0-3.972,0.47-5.152,1.412
		c-1.186,0.938-1.776,2.131-1.776,3.581c0,2.291,1.857,3.893,5.577,4.814l6.812,1.705c4.131,1.036,6.901,2.566,8.313,4.595
		c1.408,2.024,2.112,4.263,2.112,6.708c0,3.934-1.482,7.033-4.446,9.297c-2.966,2.259-6.812,3.389-11.529,3.389
		c-3.974,0-7.452-0.831-10.438-2.495C326.746,50.771,324.762,48.18,323.784,44.654z"/>
	<path fill="#C61F48" d="M376.345,54.316h-7.752v-33.89h-10.66v-6.193h29.07v6.193h-10.658V54.316z"/>
	<path fill="#C61F48" d="M405.33,54.932c-5.326,0-9.472-1.994-12.436-5.986c-2.967-3.997-4.45-8.93-4.45-14.804
		c0-5.833,1.574-10.712,4.727-14.638c3.152-3.924,7.313-5.886,12.482-5.886c5.205,0,9.322,1.962,12.347,5.886
		c3.023,3.926,4.538,8.835,4.538,14.727c0,6.186-1.571,11.183-4.713,14.99C414.68,53.029,410.515,54.932,405.33,54.932z
		 M405.389,49.118c2.603,0,4.804-1.076,6.604-3.229c1.801-2.155,2.702-6.061,2.702-11.716c0-4.601-0.744-8.208-2.23-10.822
		c-1.488-2.612-3.8-3.919-6.929-3.919c-6.19,0-9.279,4.983-9.279,14.947c0,4.834,0.786,8.502,2.362,10.998
		C400.193,47.872,402.452,49.118,405.389,49.118z"/>
	<path fill="#C61F48" d="M458.098,54.316h-7.634l-6.224-16.473h-10.162v16.473h-7.224V14.234h17.386
		c4.833,0,8.387,1.091,10.659,3.273c2.27,2.185,3.407,5.006,3.407,8.472c0,5.149-2.41,8.693-7.225,10.63L458.098,54.316z
		 M434.079,32.057h8.987c2.603,0,4.54-0.546,5.815-1.644c1.271-1.096,1.907-2.604,1.907-4.521c0-1.764-0.627-3.188-1.88-4.272
		c-1.253-1.089-3.007-1.631-5.257-1.631h-9.573V32.057z"/>
	<path fill="#C61F48" d="M480.592,54.316h-7.666V37.401l-13.654-23.167h8.753l9.515,16.532l9.102-16.532h6.93l-12.979,23.167V54.316
		z"/>
</g>
</svg>
