<?xml version="1.0" encoding="utf-8"?>
<!-- Generator: Adobe Illustrator 16.0.4, SVG Export Plug-In . SVG Version: 6.00 Build 0)  -->
<!DOCTYPE svg PUBLIC "-//W3C//DTD SVG 1.1//EN" "http://www.w3.org/Graphics/SVG/1.1/DTD/svg11.dtd">
<svg version="1.1" id="Layer_1" xmlns="http://www.w3.org/2000/svg" xmlns:xlink="http://www.w3.org/1999/xlink" x="0px" y="0px"
	 width="514.383px" height="68.493px" viewBox="0 0 514.383 68.493" enable-background="new 0 0 514.383 68.493"
	 xml:space="preserve">
<g>
	<path fill="#0F3B63" stroke="#0F3B63" stroke-width="3" stroke-miterlimit="10" d="M41.051,14.519l-0.424,4.303H20.281
		l-0.879,12.965c3.072-2.907,6.448-4.36,10.127-4.36c3.881,0,7.231,1.299,10.051,3.896c2.82,2.598,4.23,5.918,4.23,9.961
		c0,4.102-1.531,7.461-4.594,10.078s-6.807,3.926-11.233,3.926c-3.478,0-6.569-0.878-9.278-2.634s-4.487-4.028-5.336-6.819
		l4.396-1.463c1.821,4.644,5.242,6.965,10.263,6.965c3.3,0,5.921-0.942,7.864-2.828s2.915-4.293,2.915-7.225
		c0-3.067-0.96-5.462-2.88-7.181c-1.922-1.72-4.226-2.58-6.914-2.58c-3.922,0-7.166,1.814-9.732,5.444l-4.094-0.85l1.334-21.599
		H41.051z"/>
	<path fill="#0F3B63" stroke="#0F3B63" stroke-width="3" stroke-miterlimit="10" d="M64.127,55.287
		c-4.771,0-8.581-1.996-11.432-5.989c-2.85-3.992-4.275-8.946-4.275-14.863c0-5.818,1.354-10.729,4.063-14.731
		c2.708-4.002,6.538-6.004,11.491-6.004c5.174,0,9.102,2.09,11.779,6.268c2.678,4.179,4.018,9.079,4.018,14.702
		c0,5.506-1.375,10.319-4.123,14.438C72.898,53.228,69.059,55.287,64.127,55.287z M64.156,51.336c3.497,0,6.084-1.526,7.762-4.58
		c1.678-3.053,2.518-6.893,2.518-11.517c0-5.053-0.859-9.258-2.578-12.613c-1.718-3.355-4.365-5.034-7.943-5.034
		c-3.457,0-6.029,1.532-7.717,4.595c-1.688,3.063-2.531,7.093-2.531,12.087c0,5.19,0.889,9.332,2.668,12.424
		C58.112,49.79,60.721,51.336,64.156,51.336z"/>
	<path fill="#0F3B63" stroke="#0F3B63" stroke-width="3" stroke-miterlimit="10" d="M128.861,14.519l-13.857,23.15v16.799h-5.184
		V37.669l-13.857-23.15h6.129l10.985,18.355l11.056-18.355H128.861z"/>
	<path fill="#0F3B63" stroke="#0F3B63" stroke-width="3" stroke-miterlimit="10" d="M162.695,50.078v4.39h-26.772V14.519h26.196
		v4.391h-21.012V31.61h16.676v4.068h-16.676v14.399H162.695z"/>
	<path fill="#0F3B63" stroke="#0F3B63" stroke-width="3" stroke-miterlimit="10" d="M202.782,54.468h-5.294l-4.162-11.678h-15.357
		l-3.703,11.678h-4.336l13.449-39.949h5.865L202.782,54.468z M192.223,39.044l-6.412-19.198l-6.402,19.198H192.223z"/>
	<path fill="#0F3B63" stroke="#0F3B63" stroke-width="3" stroke-miterlimit="10" d="M239.188,54.468h-5.434l-7.632-17.297h-11.857
		v17.297h-4.852V14.519h16.312c4.427,0,7.706,1.166,9.839,3.498c2.133,2.331,3.199,4.883,3.199,7.653
		c0,2.126-0.597,4.165-1.789,6.116c-1.193,1.951-3.164,3.347-5.912,4.186L239.188,54.468z M214.265,33.104h10.824
		c2.851,0,4.978-0.727,6.382-2.181c1.405-1.453,2.107-3.234,2.107-5.341c0-2.107-0.742-3.746-2.229-4.917
		c-1.485-1.171-3.36-1.756-5.624-1.756h-11.461V33.104z"/>
	<path fill="#0F3B63" stroke="#0F3B63" stroke-width="3" stroke-miterlimit="10" d="M244.159,43.902l4.669-1.024
		c1.881,5.444,5.953,8.166,12.219,8.166c3.274,0,5.741-0.671,7.397-2.012c1.658-1.341,2.486-3.138,2.486-5.39
		c0-1.703-0.631-3.073-1.893-4.111c-1.264-1.037-2.723-1.752-4.379-2.144l-8.281-1.971c-2.144-0.527-3.896-1.167-5.262-1.92
		c-1.363-0.752-2.521-1.91-3.471-3.473c-0.951-1.563-1.426-3.351-1.426-5.363c0-3.342,1.305-6.003,3.912-7.986
		s5.952-2.976,10.035-2.976c7.519,0,12.462,3.288,14.826,9.863l-4.699,1.346c-0.545-2.341-1.828-4.111-3.85-5.312
		s-4.175-1.8-6.458-1.8c-2.264,0-4.28,0.578-6.049,1.734c-1.77,1.157-2.652,2.794-2.652,4.911c0,2.96,2.24,4.959,6.723,5.998
		l7.74,1.751c7.074,1.64,10.611,5.318,10.611,11.036c0,3.454-1.33,6.327-3.986,8.62c-2.658,2.293-6.404,3.439-11.233,3.439
		C252.568,55.287,246.908,51.492,244.159,43.902z"/>
	<path fill="#0F3B63" d="M310.129,52.833v2.657h-20.747v-2.657h8.888V30.778c-2.615,2.637-5.333,4.694-8.15,6.172v-3.599
		c3.888-1.967,6.901-4.303,9.04-7.01h2.666v26.491H310.129z"/>
	<path fill="#0F3B63" d="M312.414,50.301l2.97-1.046c1.228,2.636,3.295,3.954,6.2,3.954c2.818,0,4.938-1.144,6.362-3.432
		c1.423-2.287,2.158-5.391,2.201-9.312c-1.937,3.432-4.85,5.148-8.737,5.148c-2.746,0-5.051-0.904-6.915-2.714
		c-1.864-1.808-2.796-4.046-2.796-6.713c0-2.709,0.979-5.027,2.937-6.954c1.959-1.928,4.455-2.892,7.49-2.892
		c3.714,0,6.561,1.26,8.541,3.779s2.97,5.986,2.97,10.397c0,4.634-1.047,8.386-3.143,11.255c-2.097,2.868-5.081,4.303-8.953,4.303
		C317.016,56.076,313.975,54.151,312.414,50.301z M322.233,42.747c2.039,0,3.747-0.688,5.128-2.064
		c1.38-1.376,2.069-2.986,2.069-4.83c0-1.789-0.653-3.326-1.962-4.611c-1.307-1.285-3.03-1.928-5.169-1.928
		c-2.168,0-3.881,0.66-5.138,1.98c-1.259,1.32-1.887,2.931-1.887,4.831c0,2.04,0.696,3.653,2.092,4.841
		S320.384,42.747,322.233,42.747z"/>
	<path fill="#0F3B63" d="M358.806,32.766l-3.339,0.879c-1.141-2.901-3.223-4.352-6.243-4.352c-5.55,0-8.389,4.429-8.519,13.287
		c0.881-1.968,2.131-3.425,3.749-4.373c1.619-0.949,3.332-1.424,5.138-1.424c2.747,0,5.048,0.926,6.905,2.775
		c1.856,1.851,2.786,4.067,2.786,6.651c0,2.682-0.987,4.996-2.959,6.944c-1.974,1.948-4.499,2.922-7.577,2.922
		c-3.498,0-6.284-1.273-8.357-3.821c-2.074-2.548-3.11-6.013-3.11-10.396c0-4.286,0.979-7.943,2.937-10.973
		c1.958-3.028,4.99-4.544,9.096-4.544C354.038,26.342,357.202,28.483,358.806,32.766z M348.682,53.209
		c2.096,0,3.812-0.666,5.148-2.001c1.336-1.334,2.005-2.938,2.005-4.81c0-1.845-0.653-3.427-1.962-4.747
		c-1.307-1.32-2.93-1.98-4.866-1.98c-1.994,0-3.735,0.691-5.225,2.075c-1.488,1.383-2.232,3.004-2.232,4.862
		c0,1.718,0.665,3.248,1.994,4.589C344.874,52.539,346.587,53.209,348.682,53.209z"/>
	<path fill="#0F3B63" d="M384.841,32.766l-3.339,0.879c-1.141-2.901-3.223-4.352-6.243-4.352c-5.55,0-8.389,4.429-8.519,13.287
		c0.881-1.968,2.131-3.425,3.749-4.373c1.619-0.949,3.332-1.424,5.138-1.424c2.747,0,5.048,0.926,6.905,2.775
		c1.856,1.851,2.786,4.067,2.786,6.651c0,2.682-0.987,4.996-2.959,6.944c-1.974,1.948-4.5,2.922-7.577,2.922
		c-3.498,0-6.284-1.273-8.357-3.821c-2.074-2.548-3.11-6.013-3.11-10.396c0-4.286,0.979-7.943,2.937-10.973
		c1.958-3.028,4.99-4.544,9.096-4.544C380.073,26.342,383.237,28.483,384.841,32.766z M374.717,53.209
		c2.096,0,3.812-0.666,5.148-2.001c1.336-1.334,2.006-2.938,2.006-4.81c0-1.845-0.654-3.427-1.963-4.747
		c-1.307-1.32-2.93-1.98-4.866-1.98c-1.994,0-3.735,0.691-5.224,2.075c-1.489,1.383-2.233,3.004-2.233,4.862
		c0,1.718,0.665,3.248,1.994,4.589C370.909,52.539,372.623,53.209,374.717,53.209z"/>
	<path fill="#0F3B63" d="M405.158,43.501v2.552h-14.055v-2.552H405.158z"/>
	<path fill="#0F3B63" d="M431.745,52.519v2.972H410.74v-2.972c8.295-5.997,13.241-9.949,14.839-11.854
		c1.596-1.904,2.395-3.791,2.395-5.66c0-1.744-0.672-3.152-2.016-4.227s-2.891-1.611-4.64-1.611c-1.806,0-3.403,0.589-4.79,1.768
		c-1.388,1.18-2.169,2.78-2.342,4.803l-3.446-1.004c1.445-5.595,4.985-8.392,10.622-8.392c3.049,0,5.527,0.837,7.436,2.511
		c1.907,1.675,2.861,3.718,2.861,6.131c0,1.66-0.451,3.258-1.355,4.792c-0.903,1.535-2.611,3.369-5.126,5.504
		c-2.515,2.134-5.767,4.548-9.755,7.239H431.745z"/>
	<path fill="#0F3B63" d="M446.639,56.076c-3.41,0-6.135-1.427-8.172-4.282c-2.039-2.854-3.057-6.396-3.057-10.627
		c0-4.16,0.968-7.671,2.904-10.532c1.938-2.861,4.676-4.293,8.217-4.293c3.699,0,6.506,1.494,8.422,4.481
		c1.914,2.987,2.873,6.491,2.873,10.512c0,3.937-0.983,7.378-2.95,10.323C452.913,54.604,450.166,56.076,446.639,56.076z
		 M446.662,53.251c2.499,0,4.35-1.091,5.55-3.274c1.199-2.183,1.798-4.928,1.798-8.234c0-3.612-0.614-6.619-1.842-9.018
		c-1.229-2.399-3.122-3.6-5.679-3.6c-2.472,0-4.312,1.096-5.518,3.285c-1.208,2.19-1.812,5.071-1.812,8.642
		c0,3.711,0.637,6.672,1.909,8.883C442.339,52.146,444.204,53.251,446.662,53.251z"/>
	<path fill="#0F3B63" d="M481.872,52.833v2.657h-20.747v-2.657h8.889V30.778c-2.616,2.637-5.333,4.694-8.151,6.172v-3.599
		c3.888-1.967,6.901-4.303,9.041-7.01h2.665v26.491H481.872z"/>
	<path fill="#0F3B63" d="M505.348,32.766l-3.339,0.879c-1.141-2.901-3.223-4.352-6.243-4.352c-5.55,0-8.389,4.429-8.519,13.287
		c0.882-1.968,2.131-3.425,3.749-4.373c1.619-0.949,3.332-1.424,5.138-1.424c2.747,0,5.049,0.926,6.905,2.775
		c1.856,1.851,2.786,4.067,2.786,6.651c0,2.682-0.987,4.996-2.959,6.944c-1.973,1.948-4.499,2.922-7.577,2.922
		c-3.498,0-6.283-1.273-8.357-3.821s-3.109-6.013-3.109-10.396c0-4.286,0.979-7.943,2.937-10.973
		c1.958-3.028,4.989-4.544,9.095-4.544C500.58,26.342,503.744,28.483,505.348,32.766z M495.224,53.209
		c2.096,0,3.812-0.666,5.148-2.001c1.337-1.334,2.006-2.938,2.006-4.81c0-1.845-0.653-3.427-1.962-4.747
		c-1.308-1.32-2.93-1.98-4.867-1.98c-1.994,0-3.735,0.691-5.224,2.075c-1.489,1.383-2.233,3.004-2.233,4.862
		c0,1.718,0.665,3.248,1.994,4.589C491.417,52.539,493.129,53.209,495.224,53.209z"/>
</g>
</svg>
