<?xml version="1.0" encoding="utf-8"?>
<!-- Generator: Adobe Illustrator 16.0.4, SVG Export Plug-In . SVG Version: 6.00 Build 0)  -->
<!DOCTYPE svg PUBLIC "-//W3C//DTD SVG 1.1//EN" "http://www.w3.org/Graphics/SVG/1.1/DTD/svg11.dtd">
<svg version="1.1" id="Layer_1" xmlns="http://www.w3.org/2000/svg" xmlns:xlink="http://www.w3.org/1999/xlink" x="0px" y="0px"
	 width="615.753px" height="66.438px" viewBox="0 0 615.753 66.438" enable-background="new 0 0 615.753 66.438"
	 xml:space="preserve">
<path fill="#0F3B63" stroke="#0F3B63" stroke-width="3" stroke-miterlimit="10" d="M39.681,13.713l-0.424,4.303H18.911L18.032,30.98
	c3.072-2.907,6.448-4.36,10.127-4.36c3.881,0,7.231,1.299,10.051,3.896c2.82,2.598,4.23,5.918,4.23,9.961
	c0,4.102-1.531,7.461-4.594,10.078s-6.807,3.926-11.233,3.926c-3.478,0-6.569-0.878-9.278-2.634s-4.487-4.028-5.336-6.819
	l4.396-1.463c1.821,4.644,5.242,6.965,10.263,6.965c3.3,0,5.921-0.942,7.864-2.828s2.915-4.293,2.915-7.225
	c0-3.067-0.96-5.462-2.88-7.181c-1.922-1.72-4.226-2.58-6.914-2.58c-3.922,0-7.166,1.814-9.732,5.444l-4.094-0.85l1.334-21.599
	H39.681z"/>
<path fill="#0F3B63" stroke="#0F3B63" stroke-width="3" stroke-miterlimit="10" d="M62.757,54.481
	c-4.771,0-8.581-1.996-11.432-5.989c-2.85-3.992-4.275-8.946-4.275-14.863c0-5.818,1.354-10.729,4.063-14.731
	c2.708-4.002,6.538-6.004,11.491-6.004c5.174,0,9.102,2.09,11.779,6.268c2.678,4.179,4.018,9.079,4.018,14.702
	c0,5.506-1.375,10.319-4.123,14.438C71.528,52.422,67.688,54.481,62.757,54.481z M62.786,50.53c3.497,0,6.084-1.526,7.762-4.58
	c1.678-3.053,2.518-6.893,2.518-11.517c0-5.053-0.859-9.258-2.578-12.613c-1.718-3.355-4.365-5.034-7.943-5.034
	c-3.457,0-6.029,1.532-7.717,4.595c-1.688,3.063-2.531,7.093-2.531,12.087c0,5.19,0.889,9.332,2.668,12.424
	C56.742,48.984,59.351,50.53,62.786,50.53z"/>
<path fill="#0F3B63" stroke="#0F3B63" stroke-width="3" stroke-miterlimit="10" d="M127.491,13.713l-13.857,23.15v16.799h-5.184
	V36.863l-13.857-23.15h6.129l10.985,18.355l11.056-18.355H127.491z"/>
<path fill="#0F3B63" stroke="#0F3B63" stroke-width="3" stroke-miterlimit="10" d="M161.325,49.272v4.39h-26.772V13.713h26.196
	v4.391h-21.012v12.701h16.676v4.068h-16.676v14.399H161.325z"/>
<path fill="#0F3B63" stroke="#0F3B63" stroke-width="3" stroke-miterlimit="10" d="M201.412,53.662h-5.294l-4.162-11.678h-15.357
	l-3.703,11.678h-4.336l13.449-39.949h5.865L201.412,53.662z M190.853,38.238L184.44,19.04l-6.402,19.198H190.853z"/>
<path fill="#0F3B63" stroke="#0F3B63" stroke-width="3" stroke-miterlimit="10" d="M237.817,53.662h-5.434l-7.632-17.297h-11.857
	v17.297h-4.852V13.713h16.312c4.427,0,7.706,1.166,9.839,3.498c2.133,2.331,3.199,4.883,3.199,7.653
	c0,2.126-0.597,4.165-1.789,6.116c-1.193,1.951-3.164,3.347-5.912,4.186L237.817,53.662z M212.895,32.298h10.824
	c2.851,0,4.978-0.727,6.382-2.181c1.405-1.453,2.107-3.234,2.107-5.341c0-2.107-0.742-3.746-2.229-4.917
	c-1.485-1.171-3.36-1.756-5.624-1.756h-11.461V32.298z"/>
<path fill="#0F3B63" stroke="#0F3B63" stroke-width="3" stroke-miterlimit="10" d="M242.789,43.097l4.669-1.024
	c1.881,5.444,5.953,8.166,12.219,8.166c3.274,0,5.741-0.671,7.397-2.012c1.658-1.341,2.486-3.138,2.486-5.39
	c0-1.703-0.631-3.073-1.893-4.111c-1.264-1.037-2.723-1.752-4.379-2.144l-8.28-1.971c-2.144-0.527-3.896-1.167-5.262-1.92
	c-1.363-0.752-2.521-1.91-3.471-3.473c-0.951-1.563-1.426-3.351-1.426-5.363c0-3.342,1.305-6.003,3.912-7.986
	s5.952-2.976,10.035-2.976c7.519,0,12.462,3.288,14.825,9.863l-4.699,1.346c-0.545-2.341-1.828-4.111-3.85-5.312
	s-4.174-1.8-6.458-1.8c-2.264,0-4.28,0.578-6.049,1.734c-1.77,1.157-2.652,2.794-2.652,4.911c0,2.96,2.24,4.959,6.723,5.998
	l7.739,1.751c7.074,1.64,10.611,5.318,10.611,11.036c0,3.454-1.33,6.327-3.986,8.62c-2.658,2.293-6.404,3.439-11.233,3.439
	C251.198,54.481,245.538,50.687,242.789,43.097z"/>
<path fill="#0F3B63" d="M330.23,49.945v3.717h-29.018v-3.717h12.432V19.099c-3.658,3.688-7.459,6.565-11.4,8.633v-5.033
	c5.438-2.751,9.652-6.019,12.645-9.805h3.729v37.052H330.23z"/>
<path fill="#0F3B63" d="M333.426,46.404l4.154-1.464c1.717,3.688,4.607,5.531,8.672,5.531c3.941,0,6.906-1.6,8.898-4.8
	c1.99-3.199,3.018-7.54,3.078-13.023c-2.709,4.8-6.783,7.2-12.221,7.2c-3.84,0-7.064-1.265-9.672-3.795
	c-2.607-2.529-3.91-5.659-3.91-9.39c0-3.789,1.369-7.031,4.107-9.727c2.74-2.695,6.23-4.044,10.477-4.044
	c5.193,0,9.176,1.763,11.945,5.286c2.77,3.524,4.154,8.372,4.154,14.542c0,6.481-1.465,11.729-4.396,15.741
	c-2.932,4.013-7.105,6.019-12.521,6.019C339.863,54.481,335.609,51.789,333.426,46.404z M347.16,35.839
	c2.852,0,5.24-0.962,7.172-2.888c1.93-1.925,2.895-4.177,2.895-6.756c0-2.502-0.914-4.651-2.744-6.449
	c-1.828-1.798-4.238-2.696-7.23-2.696c-3.031,0-5.428,0.924-7.186,2.771c-1.76,1.846-2.639,4.099-2.639,6.756
	c0,2.854,0.975,5.11,2.926,6.771S344.574,35.839,347.16,35.839z"/>
<path fill="#0F3B63" d="M398.312,21.879l-4.67,1.229c-1.596-4.058-4.508-6.087-8.732-6.087c-7.762,0-11.732,6.194-11.914,18.584
	c1.232-2.751,2.98-4.789,5.244-6.116s4.66-1.99,7.186-1.99c3.842,0,7.061,1.294,9.658,3.882c2.596,2.588,3.896,5.688,3.896,9.302
	c0,3.751-1.381,6.988-4.139,9.713c-2.76,2.725-6.293,4.087-10.598,4.087c-4.893,0-8.789-1.781-11.689-5.345s-4.35-8.41-4.35-14.541
	c0-5.994,1.369-11.109,4.107-15.347c2.738-4.236,6.979-6.355,12.721-6.355C391.643,12.894,396.068,15.889,398.312,21.879z
	 M384.152,50.472c2.932,0,5.332-0.933,7.201-2.799s2.805-4.108,2.805-6.728c0-2.579-0.914-4.792-2.744-6.639
	c-1.828-1.847-4.098-2.771-6.807-2.771c-2.789,0-5.225,0.968-7.307,2.902s-3.123,4.201-3.123,6.801c0,2.403,0.93,4.543,2.789,6.419
	S381.223,50.472,384.152,50.472z"/>
<path fill="#0F3B63" d="M434.727,21.879l-4.67,1.229c-1.596-4.058-4.508-6.087-8.732-6.087c-7.762,0-11.732,6.194-11.914,18.584
	c1.232-2.751,2.98-4.789,5.244-6.116s4.66-1.99,7.186-1.99c3.842,0,7.061,1.294,9.658,3.882c2.596,2.588,3.896,5.688,3.896,9.302
	c0,3.751-1.381,6.988-4.139,9.713c-2.76,2.725-6.293,4.087-10.598,4.087c-4.893,0-8.789-1.781-11.689-5.345s-4.35-8.41-4.35-14.541
	c0-5.994,1.369-11.109,4.107-15.347c2.738-4.236,6.979-6.355,12.721-6.355C428.057,12.894,432.482,15.889,434.727,21.879z
	 M420.566,50.472c2.932,0,5.332-0.933,7.201-2.799s2.805-4.108,2.805-6.728c0-2.579-0.914-4.792-2.744-6.639
	c-1.828-1.847-4.098-2.771-6.807-2.771c-2.789,0-5.225,0.968-7.307,2.902s-3.123,4.201-3.123,6.801c0,2.403,0.93,4.543,2.789,6.419
	S417.637,50.472,420.566,50.472z"/>
<path fill="#0F3B63" d="M463.143,36.893v3.57h-19.658v-3.57H463.143z"/>
<path fill="#0F3B63" d="M500.328,49.506v4.156h-29.379v-4.156c11.602-8.389,18.52-13.916,20.754-16.579
	c2.232-2.663,3.35-5.302,3.35-7.917c0-2.438-0.939-4.409-2.818-5.911c-1.881-1.503-4.043-2.254-6.49-2.254
	c-2.525,0-4.76,0.824-6.699,2.473c-1.941,1.649-3.033,3.889-3.275,6.717l-4.82-1.404c2.021-7.824,6.973-11.736,14.857-11.736
	c4.264,0,7.73,1.171,10.398,3.512c2.668,2.342,4.002,5.2,4.002,8.575c0,2.322-0.631,4.557-1.895,6.702
	c-1.264,2.146-3.652,4.712-7.17,7.697s-8.066,6.361-13.645,10.126H500.328z"/>
<path fill="#0F3B63" d="M521.16,54.481c-4.77,0-8.58-1.996-11.43-5.989c-2.852-3.992-4.275-8.946-4.275-14.863
	c0-5.818,1.354-10.729,4.062-14.731c2.709-4.002,6.539-6.004,11.492-6.004c5.174,0,9.1,2.09,11.779,6.268
	c2.678,4.179,4.018,9.079,4.018,14.702c0,5.506-1.375,10.319-4.125,14.438C529.934,52.422,526.092,54.481,521.16,54.481z
	 M521.191,50.53c3.496,0,6.084-1.526,7.762-4.58c1.678-3.053,2.516-6.893,2.516-11.517c0-5.053-0.859-9.258-2.576-12.613
	c-1.719-3.355-4.367-5.034-7.943-5.034c-3.457,0-6.029,1.532-7.717,4.595c-1.689,3.063-2.533,7.093-2.533,12.087
	c0,5.19,0.891,9.332,2.67,12.424C515.146,48.984,517.754,50.53,521.191,50.53z"/>
<path fill="#0F3B63" d="M570.438,49.945v3.717H541.42v-3.717h12.432V19.099c-3.658,3.688-7.459,6.565-11.4,8.633v-5.033
	c5.438-2.751,9.652-6.019,12.645-9.805h3.729v37.052H570.438z"/>
<path fill="#0F3B63" d="M603.273,21.879l-4.67,1.229c-1.596-4.058-4.508-6.087-8.732-6.087c-7.762,0-11.732,6.194-11.914,18.584
	c1.232-2.751,2.98-4.789,5.244-6.116s4.66-1.99,7.186-1.99c3.842,0,7.061,1.294,9.658,3.882c2.596,2.588,3.896,5.688,3.896,9.302
	c0,3.751-1.381,6.988-4.139,9.713c-2.76,2.725-6.293,4.087-10.598,4.087c-4.893,0-8.789-1.781-11.689-5.345s-4.35-8.41-4.35-14.541
	c0-5.994,1.369-11.109,4.107-15.347c2.738-4.236,6.979-6.355,12.721-6.355C596.604,12.894,601.029,15.889,603.273,21.879z
	 M589.113,50.472c2.932,0,5.332-0.933,7.201-2.799s2.805-4.108,2.805-6.728c0-2.579-0.914-4.792-2.744-6.639
	c-1.828-1.847-4.098-2.771-6.807-2.771c-2.789,0-5.225,0.968-7.307,2.902s-3.123,4.201-3.123,6.801c0,2.403,0.93,4.543,2.789,6.419
	S586.184,50.472,589.113,50.472z"/>
</svg>
